<svg xmlns="http://www.w3.org/2000/svg" viewBox="0 0 93.6 60.95"><defs><style>.cls-1{fill:#323233;}</style></defs><g id="Layer_2" data-name="Layer 2"><g id="Layer_1-2" data-name="Layer 1"><path class="cls-1" d="M0,0H93.6V18.5H0Z"/><path class="cls-1" d="M0,20.68V40.27H93.6V20.68Zm46.83,1,0,0h0a0,0,0,0,1,0,0l.24,5.05a1.44,1.44,0,0,0,.07-.23c.08-.36,0-.76.14-1.14s.4-.87.53-1.31a4,4,0,0,0,.08-.93,1.63,1.63,0,0,1,.24-.92.71.71,0,0,1,.3-.21l.2-.08a.06.06,0,0,1,.08,0,0,0,0,0,1,0,.06s-.08.11-.16.25a1.09,1.09,0,0,0-.16.43,9.35,9.35,0,0,1,0,1.51c-.07.36-.31.65-.37,1a10.28,10.28,0,0,0-.16,1.65l2.17-4.54h0a.05.05,0,0,1,.08,0s0,0,0,.06l-1.62,4.76.11-.13c.21-.31.32-.69.56-1s.7-.65,1-1a4.06,4.06,0,0,0,.43-.83,1.67,1.67,0,0,1,.57-.76.73.73,0,0,1,.36-.08,1.2,1.2,0,0,1,.21,0s.06,0,.06.07a.08.08,0,0,1,0,0h0a2.46,2.46,0,0,0-.24.18,1.09,1.09,0,0,0-.32.33,10,10,0,0,1-.59,1.39c-.2.3-.53.48-.71.75a10.68,10.68,0,0,0-.79,1.49l3.74-3.32a.06.06,0,0,1,.08,0,.08.08,0,0,1,0,.08h0l-3.36,3.8.21-.13c.3-.22.54-.53.88-.75s.88-.36,1.27-.6a4.45,4.45,0,0,0,.7-.62,1.63,1.63,0,0,1,.8-.51.65.65,0,0,1,.36.05,1,1,0,0,1,.2.08s.05,0,0,.08a.1.1,0,0,1,0,0,1.87,1.87,0,0,0-.29.07,1.18,1.18,0,0,0-.42.21,9,9,0,0,1-1,1.08c-.3.22-.67.27-.93.46a11.07,11.07,0,0,0-1.26,1.12l4.73-1.6a.06.06,0,0,1,.06,0,.06.06,0,0,1,0,.09h0l-4.59,2.2a.24.24,0,0,1,0,.08.65.65,0,0,0,.17,0c.36-.07.71-.27,1.1-.33s1,0,1.41-.05a4,4,0,0,0,.89-.29,1.61,1.61,0,0,1,.94-.15.73.73,0,0,1,.31.19,1.74,1.74,0,0,1,.15.15.06.06,0,0,1,0,.09.07.07,0,0,1-.06,0,2,2,0,0,0-.3,0,1.13,1.13,0,0,0-.46,0,9.85,9.85,0,0,1-1.38.59c-.36.08-.73,0-1,0a8.43,8.43,0,0,0-1.42.47l4.87.34a.09.09,0,0,1,.06.07s0,0,0,0a.09.09,0,0,1-.05,0l-5,.24.23.06c.36.08.76.05,1.14.14s.87.41,1.31.53a4.59,4.59,0,0,0,.93.09A1.63,1.63,0,0,1,55,32a.65.65,0,0,1,.21.3,1.42,1.42,0,0,1,.08.2.07.07,0,0,1,0,.06h-.09a2,2,0,0,0-.25-.17,1.15,1.15,0,0,0-.43-.16,10.62,10.62,0,0,1-1.51,0c-.36-.07-.65-.31-1-.37a9.24,9.24,0,0,0-1.65-.16l4.54,2.18a.05.05,0,0,1,0,.08h0a0,0,0,0,1-.06,0l-4.51-1.53c.29.19.63.31.93.54s.64.71,1,1a4,4,0,0,0,.82.45,1.66,1.66,0,0,1,.75.58.73.73,0,0,1,.07.36c0,.12,0,.22,0,.22a.06.06,0,0,1-.06.06l0,0h0a2.65,2.65,0,0,0-.17-.25,1.28,1.28,0,0,0-.33-.33,9.21,9.21,0,0,1-1.37-.62c-.31-.21-.48-.54-.75-.73a10,10,0,0,0-1.47-.81L53,36.58a.05.05,0,0,1,0,.08,0,0,0,0,1-.08,0l-3.7-3.29.08.15c.2.31.5.57.7.91s.32.91.53,1.31a4,4,0,0,0,.6.72,1.78,1.78,0,0,1,.47.82,1,1,0,0,1-.07.37l-.09.2h0a.07.07,0,0,1-.09,0,.05.05,0,0,1,0,0s0-.13-.06-.29A1.24,1.24,0,0,0,51,37.1,8.72,8.72,0,0,1,50,36c-.2-.31-.23-.68-.41-.95a8.81,8.81,0,0,0-1-1.2l1.6,4.68a.13.13,0,0,1,0,.06.06.06,0,0,1-.09,0h0l0,0-2.23-4.65h0c0,.09,0,.18,0,.24.08.37.27.71.34,1.1s0,1,0,1.41a3.89,3.89,0,0,0,.3.89,1.62,1.62,0,0,1,.15.94.73.73,0,0,1-.19.31l-.15.16a.08.08,0,0,1-.09,0,.08.08,0,0,1,0-.07s0-.13.05-.29a1.18,1.18,0,0,0,0-.47,9.85,9.85,0,0,1-.59-1.38c-.08-.36,0-.73-.05-1a8.61,8.61,0,0,0-.46-1.43l-.34,4.87a.07.07,0,0,1-.07.06.06.06,0,0,1-.06-.06l-.24-5c0,.08-.05.17-.07.24-.07.36,0,.75-.14,1.14s-.4.87-.52,1.3a3.58,3.58,0,0,0-.09.94,1.62,1.62,0,0,1-.24.91.71.71,0,0,1-.3.21l-.2.08s0,0-.06,0a.05.05,0,0,1,0-.08,2.45,2.45,0,0,0,.16-.26,1.32,1.32,0,0,0,.17-.43,9.4,9.4,0,0,1,0-1.51c.07-.36.31-.65.38-1a9.11,9.11,0,0,0,.15-1.65l-2.17,4.54a0,0,0,0,1,0,0,.05.05,0,0,1-.08,0h0a.07.07,0,0,1,0-.06L45,33.79l-.1.13c-.21.31-.33.69-.56,1s-.7.65-1,1a3.83,3.83,0,0,0-.44.83,1.65,1.65,0,0,1-.57.76.67.67,0,0,1-.35.08h-.22s-.06,0-.06-.07l0,0v0a2.65,2.65,0,0,0,.25-.17,1.18,1.18,0,0,0,.31-.34,10,10,0,0,1,.6-1.39c.2-.3.53-.48.71-.75a10,10,0,0,0,.78-1.5l-3.74,3.33h-.07a.07.07,0,0,1,0-.09h0L44,32.78l-.22.13c-.3.21-.54.53-.87.74s-.89.37-1.28.6a4.53,4.53,0,0,0-.7.63,1.64,1.64,0,0,1-.79.51.74.74,0,0,1-.36,0l-.21-.08h0a.05.05,0,0,1,0-.08l0,0a2.14,2.14,0,0,0,.3-.07,1.21,1.21,0,0,0,.41-.21,11,11,0,0,1,1-1.09c.3-.21.67-.27.94-.45a8.64,8.64,0,0,0,1-.91l-4.5,1.53a.06.06,0,0,1-.07,0,.05.05,0,0,1,0-.07l4.62-2.22,0-.05a1.18,1.18,0,0,0-.21,0c-.36.07-.71.26-1.1.32s-1,0-1.41.05a4.24,4.24,0,0,0-.89.3,1.59,1.59,0,0,1-.93.15.67.67,0,0,1-.31-.19l-.16-.15a.06.06,0,0,1,0-.08h0l.06,0,.3,0a1.32,1.32,0,0,0,.46,0,9.84,9.84,0,0,1,1.39-.58c.36-.08.72,0,1,0A8.48,8.48,0,0,0,43,30.89l-4.87-.35,0,0a.06.06,0,0,1,0-.09h0l5-.24a1.27,1.27,0,0,0-.24-.07c-.36-.08-.75,0-1.14-.14s-.87-.4-1.3-.53a4.07,4.07,0,0,0-.94-.08,1.59,1.59,0,0,1-.91-.24.71.71,0,0,1-.21-.3,1.87,1.87,0,0,1-.08-.21.05.05,0,0,1,0-.07,0,0,0,0,1,.05,0,2.45,2.45,0,0,0,.26.16,1.09,1.09,0,0,0,.43.16,10.48,10.48,0,0,1,1.5,0c.36.07.66.31,1,.37a9.15,9.15,0,0,0,1.64.16l-4.53-2.18a.06.06,0,0,1,0-.08h0s0,0,.06,0l4.8,1.63-.23-.2c-.31-.21-.68-.33-1-.58s-.63-.71-1-1a4.11,4.11,0,0,0-.83-.45,1.63,1.63,0,0,1-.74-.58.73.73,0,0,1-.08-.36c0-.12,0-.22,0-.22a0,0,0,0,1,0,0,.06.06,0,0,1,.09,0h0l0,0,.17.25a1.23,1.23,0,0,0,.33.32,10.25,10.25,0,0,1,1.37.62c.3.21.47.54.74.73a10.54,10.54,0,0,0,1.48.81l-3.3-3.72a.06.06,0,1,1,.09-.09l3.7,3.29a1,1,0,0,0-.09-.15c-.19-.31-.49-.57-.69-.92s-.32-.89-.54-1.29a4,4,0,0,0-.59-.73,1.61,1.61,0,0,1-.47-.83.72.72,0,0,1,.06-.35,1.51,1.51,0,0,1,.1-.2s0,0,0,0a.06.06,0,0,1,.08,0,.05.05,0,0,1,0,0s0,.13.06.29a1.23,1.23,0,0,0,.19.43,9.38,9.38,0,0,1,1,1.09c.21.31.24.68.41,1a8.65,8.65,0,0,0,1,1.19L43.37,22.4a0,0,0,0,1,0-.06h0a.06.06,0,0,1,.09,0h0L45.71,27h0c0-.09,0-.19,0-.25-.08-.36-.27-.71-.33-1.1s0-1,0-1.41a4.06,4.06,0,0,0-.3-.89,1.67,1.67,0,0,1-.15-.93.8.8,0,0,1,.19-.32l.16-.15a.05.05,0,0,1,.08,0,.08.08,0,0,1,0,.05s0,.13-.05.3a1.11,1.11,0,0,0,0,.46,9.84,9.84,0,0,1,.58,1.39c.08.36,0,.72.05,1a8.48,8.48,0,0,0,.46,1.42l.35-4.87a.06.06,0,0,1,.06-.05Zm0,5.53a3.26,3.26,0,1,0,3.26,3.26A3.25,3.25,0,0,0,46.8,27.22ZM48,28.66a1.44,1.44,0,0,1,1,.63l.13.11h-.21l0,0a1.32,1.32,0,0,0-1.7-.21,1.14,1.14,0,0,0-.18.41,1.22,1.22,0,0,0,.27.91l0,.06,0-.06h0a.3.3,0,0,1,.22.29.3.3,0,0,1-.31.3.29.29,0,0,1-.2-.09.75.75,0,0,1-.28.07h0a.67.67,0,0,1-.27-.07.33.33,0,0,1-.21.09.3.3,0,0,1-.31-.3.31.31,0,0,1,.22-.29h0v.05l.05-.06a1.2,1.2,0,0,0,.26-.91.8.8,0,0,0-.18-.4,1.3,1.3,0,0,0-1.7.21l0,0h-.21l.13-.11a1.33,1.33,0,0,1,2-.27l0,0h0a1.82,1.82,0,0,1-.13,1.57l0,0,0,0a.48.48,0,0,0,.08.1.29.29,0,0,0,.19.07A.25.25,0,0,0,47,30.8a.35.35,0,0,0,.09-.1v-.07a1.94,1.94,0,0,1-.23-1.25,1.58,1.58,0,0,1,.09-.31v0a1.47,1.47,0,0,1,1-.35v0Zm-2.35.15a1,1,0,0,0-.37.12,1.44,1.44,0,0,1,.67-.08A.78.78,0,0,0,45.63,28.81Zm2.34,0a1.1,1.1,0,0,0-.31,0,1.48,1.48,0,0,1,.68.08A1.14,1.14,0,0,0,48,28.81Zm-1.47.29a1.47,1.47,0,0,1,.1.22l-.06-.19Zm.59,0,0,0a1.05,1.05,0,0,0,0,.19A2,2,0,0,1,47.09,29.1Zm-1.5,0a.8.8,0,0,1,.63.23.38.38,0,0,0,.16.09.06.06,0,0,0,0,0l.06,0a.11.11,0,0,1,0,.07.17.17,0,0,1,0,.07s0,0-.06.05,0,0-.07,0a.1.1,0,0,1,0,0s0,0,0,.06l0,0a1,1,0,0,1-.24.18,1.09,1.09,0,0,1-1.24-.16l-.2-.15h0l0-.05s0,0,0,0a.3.3,0,0,1,0-.08.8.8,0,0,1,.16-.16,1.06,1.06,0,0,1,.66-.23Zm2.41,0h0a1.13,1.13,0,0,1,.66.23.81.81,0,0,1,.16.17l0,.07a.09.09,0,0,1,0,0s0,0,0,0h0l-.2.15a1.09,1.09,0,0,1-1.24.16.88.88,0,0,1-.25-.18s0,0,0,0a.08.08,0,0,1,0-.07l0,0h-.05a.17.17,0,0,1-.06-.06.14.14,0,0,1,0-.06.1.1,0,0,1,0-.08s0,0,.06,0h0a.43.43,0,0,0,.16-.1A.82.82,0,0,1,48,29.13Zm-2.42.34s-.07,0-.1,0a.21.21,0,0,0,0,.11.25.25,0,0,0,0,.12.7.7,0,0,0,.25,0,.16.16,0,0,0,.05-.11.21.21,0,0,0,0-.11l-.16,0Zm2.44,0a.29.29,0,0,0-.16,0,.13.13,0,0,0,0,.1.21.21,0,0,0,0,.11.42.42,0,0,0,.25,0,.16.16,0,0,0,0-.11.17.17,0,0,0,0-.12l-.09,0Zm-2.7.09a.31.31,0,0,0-.11.09.42.42,0,0,0,.12,0s0-.05,0-.07S45.32,29.58,45.32,29.57Zm.57,0a.09.09,0,0,1,0,.05h0l0,0S45.91,29.58,45.89,29.57Zm1.81,0a.1.1,0,0,0-.05,0l0,0h0S47.7,29.58,47.7,29.57Zm.57,0a.05.05,0,0,1,0,0s0,.05,0,.08.09,0,.13,0A.34.34,0,0,0,48.27,29.57Zm-3.35.06-.05.05h0l.08,0,0,0,0,0Zm3.77,0h0v0l0,0h.06Zm-2.42.94v0a.09.09,0,0,0-.06.09.09.09,0,0,0,.18,0v-.09h0l0,0Zm1,0h0v.09a.09.09,0,1,0,.18,0,.1.1,0,0,0-.06-.09v0Zm.2.27a.2.2,0,0,1-.14.06.22.22,0,0,1-.14-.05h0a.15.15,0,0,0,.13.07.17.17,0,0,0,.14-.08Zm-1.27,0h0a.17.17,0,0,0,.14.09.16.16,0,0,0,.14-.08h0a.21.21,0,0,1-.29,0Zm.35.31a.71.71,0,0,1,.27.09.67.67,0,0,1,.26-.09.57.57,0,0,1,.37.16,2.43,2.43,0,0,0,.29.26l0,.05v.07a.43.43,0,0,0-.38.18.53.53,0,0,1-.16.13.1.1,0,0,1-.07,0,.53.53,0,0,1,.27.44h0v.09h-.13l0-.05a.42.42,0,0,0-.41-.33.44.44,0,0,0-.41.33l-.13,0v0h0a.54.54,0,0,1,.28-.44s-.06,0-.08,0a.53.53,0,0,1-.16-.13.43.43,0,0,0-.38-.18v-.07l0-.05a2.33,2.33,0,0,0,.28-.26A.57.57,0,0,1,46.51,31.19Zm.06.24h0a.26.26,0,0,0-.21,0l-.15.1a1,1,0,0,1,.21,0h0c.18,0,.27,0,.35,0h0c.07,0,.13,0,.25,0a2.8,2.8,0,0,1,.34,0l-.17-.1a.27.27,0,0,0-.21,0,.65.65,0,0,1-.21.06h0A.65.65,0,0,1,46.57,31.43Zm-.17.29s0,0,0,0a.4.4,0,0,0,.34.13h0a.4.4,0,0,0,.35-.15h0a1.42,1.42,0,0,1-.31.06h0a1.52,1.52,0,0,1-.32-.06Z"/><path class="cls-1" d="M0,42.45H93.6V61H0Z"/></g></g></svg>