<svg xmlns="http://www.w3.org/2000/svg" viewBox="0 0 93.6 61.99"><defs><style>.cls-1{fill:#323233;}</style></defs><g id="Layer_2" data-name="Layer 2"><g id="Layer_1-2" data-name="Layer 1"><rect class="cls-1" width="19.37" height="61.99"/><rect class="cls-1" x="74.23" width="19.37" height="61.99"/><path class="cls-1" d="M22.59,62H71V0H22.59Zm15.87-6.55A15.44,15.44,0,0,1,25.84,42.68L29,42.14A12.18,12.18,0,0,0,39,52.22Zm8.34,1.65A3.26,3.26,0,1,1,50,53.83,3.25,3.25,0,0,1,46.8,57.09Zm0-11.41c-3.57,0-6.46-1.46-6.46-3.27s2.89-3.26,6.46-3.26,6.45,1.46,6.45,3.26S50.36,45.68,46.8,45.68Zm8.33,9.76-.53-3.22a12.19,12.19,0,0,0,10-10.08l3.19.54A15.44,15.44,0,0,1,55.13,55.44ZM66.16,31v3.27H64.27a12.5,12.5,0,0,1-8.93-3.74l2.28-2.31A9.28,9.28,0,0,0,64.27,31ZM53.29,26.42,52.81,24a12.49,12.49,0,0,0-5.29-8l1.79-2.72A15.77,15.77,0,0,1,56,23.39l.47,2.39ZM28.14,14.88a6.72,6.72,0,0,1,2.08-3.41L29.1,6.92l3.13-.79L33.17,10a6.82,6.82,0,0,1,1.43-.17h0l.91-3.66,3.13.79-.91,3.7a6.6,6.6,0,0,1,2.15,1.86l1.48,2,1-2.9a7.29,7.29,0,0,1,6.92-5,7.21,7.21,0,0,1,5.17,2.16,29.43,29.43,0,0,1,8.14,16.45l.33,2.36L59.73,28l-.34-2.36A26,26,0,0,0,52.16,11a4.06,4.06,0,0,0-6.74,1.61l-2.91,8.81-5.17-7a3.41,3.41,0,0,0-6.07,1.23l-.22.89A8.34,8.34,0,0,1,37,22.07,12.92,12.92,0,0,0,48.88,31a21.82,21.82,0,0,1-2-4.36l-1.61-4.89,3.06-1,1.61,4.89a19,19,0,0,0,11.89,12l-1,3.1a22.1,22.1,0,0,1-9.53-6.44H49.2A16.14,16.14,0,0,1,33.89,23.1a5.1,5.1,0,0,0-4.84-3.52H27Zm-2.32,8h3.23v.67a3.75,3.75,0,0,0,2.83,3.66,4.82,4.82,0,0,1,3.62,4.7A4.92,4.92,0,0,1,35,34l-.68,1.38a4.12,4.12,0,0,0,1.81,5.5l-.63,1.5-.72,1.46a7.36,7.36,0,0,1-4.12-6.63A7.53,7.53,0,0,1,31.43,34l.68-1.38a1.54,1.54,0,0,0,.17-.7,1.57,1.57,0,0,0-1.19-1.53,7,7,0,0,1-5.27-6.83Z"/></g></g></svg>