<svg xmlns="http://www.w3.org/2000/svg" viewBox="0 0 93.6 62"><defs><style>.cls-1{fill:#323233;}</style></defs><g id="Layer_2" data-name="Layer 2"><g id="Layer_1-2" data-name="Layer 1"><path class="cls-1" d="M0,0H93.6V18.82H0Z"/><path class="cls-1" d="M0,21V41H93.6V21Zm43.29,1.79,1,1.91,2-.36-1.38,1.5,1,1.88L44,26.82l-1.34,1.46.25-2-1.8-.94L43,25Zm7,.08.31,2,2,.39-1.84.87.3,2-1.42-1.45-1.83.86.93-1.78L47.24,24.3l2.07.4ZM36.82,25.15l1.55,1.44,1.72-1-.78,1.89,1.53,1.43-2-.24-.76,1.84-.46-2-2-.24,1.71-1Zm20,0-.49,2.08,1.71,1-2,.24-.47,2-.76-1.84-2,.24,1.54-1.43-.79-1.89,1.72,1ZM34.77,29,34.64,31l1.9.84-2,.44-.13,2-1.08-1.72-2,.43,1.28-1.53-1.13-1.81,1.94.85Zm24.12,0,1.29,1.54,1.94-.85L61,31.45,62.28,33l-2-.43-1.07,1.72-.13-2-2-.44L59,31Zm-28.1,5,.62,2h2l-1.6,1.23.6,2-1.61-1.24-1.56,1.19.59-1.94-1.6-1.24h2Zm32,0,.61,2h2l-1.61,1.23.6,2-1.61-1.24-1.56,1.19.59-1.94-1.59-1.24h2Z"/><path class="cls-1" d="M0,43.18H93.6V62H0Z"/></g></g></svg>