<?xml version="1.0" encoding="UTF-8"?>
<svg id="Layer_2" data-name="Layer 2" xmlns="http://www.w3.org/2000/svg" viewBox="0 0 218.63 545.49">
  <defs>
    <style>
      .cls-1 {
        fill: #172834;
      }

      .cls-1, .cls-2, .cls-3, .cls-4 {
        stroke-width: 0px;
      }

      .cls-2 {
        fill: #847571;
      }

      .cls-3 {
        fill: #bf997f;
      }

      .cls-4 {
        fill: #525156;
      }
    </style>
  </defs>
  <g id="Layer_1-2" data-name="Layer 1">
    <g>
      <path class="cls-1" d="M13.48,262.24c-1.9,8.22-7.04,19.53-7.98,27.39-.83,6.88-.62,54.36,0,64.03.86,13.56,4.71,48.28,12.97,56.71-1.04,2.56-2.86,44.79-3.99,53.62-4.02,31.43-25.92,69.79,26.94,81.39-15.67.67-27.02-1.87-40.92-6.94C1.7,365.12-1.08,191.76.5,18.44,9.93,11.71,25.78,2.43,38.43.7,20.51,40.22,5.97,80.74,12.48,122.98c2.53,16.41,16.5,43.28,11.98,57.86-1.35,4.34-8.97,11.64-8.98,12.34-.03,1.52,5.27,4.56,5.99,6.17,7.04,15.87-4.07,45.97-7.98,62.88Z"/>
      <path class="cls-2" d="M86.33,8.41c-1.55,40.28,15.03,29.21,26.45,33.95,10.43,4.32,4.95,32.05,8.48,37.42,1.5,2.28,9.27,3.36,10.98,6.17,1.72,2.85.46,6.01,1,6.94,4.27,7.43,15.35,6.33,21.46,9.64,3.39,1.84,4.94,5.61,6.99,6.94.59.39,7.79.98,12.47,6.56,4.06,4.85,9.01,26.62,7.98,32.4-2.63,14.78-19.17,19.55-20.46,20.44-6.86,4.79-10.79,23.3-9.48,26.62.41,1.02,6.13,4.36,6.99,6.17,2.1,4.42-1.57,12.95,10.48,17.36,2.19.8,6.99.25,11.98,2.31,13.74,5.69,6.06,17.15,7.48,22.76.33,1.31,14.76,22.15,22.95,17.36,12.69,48.12,6.03,31.31-11.98,65.96-18.54,35.68-32.66,72.81-52.89,108.01-12.37,21.52-61.39,98.51-86.32,106.85-5.7,1.91-13.22,2.82-19.46,3.09-52.86-11.6-30.97-49.97-26.94-81.39,1.13-8.83,2.95-51.06,3.99-53.62.13-.33,4.69-2.25,5.99-5.01,12.92-27.54,1.4-27.77,2.99-37.03.54-3.12,7.38-8.37,7.98-11.57.69-3.66-1.81-8.46-1-13.89.98-6.5,5.8-17.15,3.99-30.09-1.51-10.79-18.22-39.3-24.95-50.53,3.92-16.91,15.03-47.01,7.98-62.88-.72-1.61-6.02-4.65-5.99-6.17.01-.71,7.64-8.01,8.98-12.34,4.52-14.59-9.44-41.45-11.98-57.86C5.97,80.74,20.51,40.22,38.43.7c17.67-2.42,32.38,1.78,47.9,7.72Z"/>
      <path class="cls-3" d="M212.07,261.47c-8.19,4.8-22.62-16.04-22.95-17.36-1.43-5.61,6.26-17.07-7.48-22.76-4.99-2.07-9.79-1.51-11.98-2.31-12.05-4.41-8.38-12.94-10.48-17.36-.86-1.81-6.58-5.15-6.99-6.17-1.31-3.32,2.62-21.83,9.48-26.62,1.29-.9,17.83-5.67,20.46-20.44,1.03-5.78-3.92-27.56-7.98-32.4-4.68-5.58-11.88-6.17-12.47-6.56-2.05-1.33-3.6-5.1-6.99-6.94-6.11-3.32-17.19-2.21-21.46-9.64-.54-.93.73-4.1-1-6.94-1.7-2.81-9.48-3.89-10.98-6.17-3.53-5.37,1.95-33.09-8.48-37.42-11.42-4.73-28,6.34-26.45-33.95,34.79,13.3,75.49,45.05,95.8,70.59,36.16,45.49,12.48,44.93,6.99,74.06-6.05,32.06,14.33,75.71,22.95,108.4Z"/>
      <path class="cls-4" d="M18.47,410.37c-8.26-8.43-12.11-43.15-12.97-56.71-.62-9.68-.83-57.15,0-64.03.95-7.85,6.08-19.17,7.98-27.39,6.72,11.23,23.44,39.74,24.95,50.53,1.81,12.94-3.01,23.59-3.99,30.09-.82,5.43,1.69,10.23,1,13.89-.61,3.21-7.44,8.45-7.98,11.57-1.6,9.26,9.93,9.49-2.99,37.03-1.3,2.77-5.86,4.69-5.99,5.01Z"/>
    </g>
  </g>
</svg>