<svg xmlns="http://www.w3.org/2000/svg" viewBox="0 0 203.63 52.11"><defs><style>.cls-1{fill:#fff;}.cls-2{fill:#323233;}</style></defs><g id="Layer_2" data-name="Layer 2"><g id="Layer_1-2" data-name="Layer 1"><path class="cls-1" d="M27,35.93v5.29H0C2.2,40,2.62,39.51,3.61,36.69c1.33-3.69,2.63-7.35,3.92-11s2.62-7.35,3.92-11c.79-2.27.45-3.22-.88-4.28h8.25c-1.94,1-2.28,1.54-3.34,4.28L10.91,27.37C9.47,31.5,8,35.6,6.54,39.69H22.21C25.1,39.69,26.28,37.64,27,35.93Zm7.49,1-3.88-10.9A5.78,5.78,0,0,1,28.25,28a21.34,21.34,0,0,1-2.69,1.1c-1.53.55-3.77,1.24-4.8,2.52a7.44,7.44,0,0,0-.38.66l-.26.73c-.95,2.67-.69,3.22,1.29,4.28H15c1.75-.81,2.74-2.12,3.65-4.72,1.56-4.31,3.08-8.63,4.6-12.94l2.4-6.8s0,0,0-.07A6.06,6.06,0,0,0,23,10.33c1.41,0,2.17,0,3.53,0a3.48,3.48,0,0,1,1.72.25,2.72,2.72,0,0,1,1.06,1.25,14.22,14.22,0,0,1,.91,2.48c1.37,3.77,2.74,7.57,4.07,11.37S37,33.26,38.33,37c1,2.56,1.22,3,3.54,4.2H33.58C35.4,40.28,35.29,39.25,34.45,37Zm-5-14.08-.11-.4c-.91-2.52-1.83-5-2.74-7.6V14.8c-.64,1.71-1.25,3.43-1.86,5.19l-3.2,9.06a7.2,7.2,0,0,1,.88-.44c1-.4,1.94-.73,2.93-1.09,1.33-.52,3.42-1.28,4.1-2.6A2.52,2.52,0,0,0,29.43,22.87Z"/><path class="cls-2" d="M101.51,46c-1.82,3-5.21,4.75-8.63,5.56-8.44,2-16.58-1.36-22.4-7.32A93.65,93.65,0,0,1,62.76,35c-2.4-3.29-4.64-6.69-6.77-10.13Q53.65,21,51.54,17V37a4.15,4.15,0,0,0,3,4.27H47a4.14,4.14,0,0,0,3-4.42v-23l-1.59-3.44H52.3l.12.26c.6,1.32,1.25,2.59,1.93,3.88.92,1.79,1.87,3.54,2.86,5.3a149.66,149.66,0,0,0,8.1,12.72A69.67,69.67,0,0,0,72,40.79c1.1-.7,1.79-1.76,1.79-4V14.94L66.68,33l-1.07-1.5L74,10.33h.26c1.56,0,3.08,0,4.61,0h1.33l-1.11.73a3.74,3.74,0,0,0-1.44,3.29V37.13c.07,2.49,1,3.29,2.55,4.09H72.42A32,32,0,0,0,83,48.72,17.19,17.19,0,0,0,92.77,50a7.66,7.66,0,0,0,5.89-4.68A6.68,6.68,0,0,0,97.78,39c-2.62-3.58-9.27-3.43-10.45,1.1-.08.51-.57.47-.42-.11,1-5,7.26-6.73,11.52-4.68a7.25,7.25,0,0,1,3.42,3.25A7.63,7.63,0,0,1,101.51,46Z"/><path class="cls-2" d="M96.93,28.91c.38,0,.41.33.07.36h0a7.26,7.26,0,0,0-4.18,2.27,11,11,0,0,0-2.24,3.32c-.65,1.32-1.22,2.71-1.87,4a18,18,0,0,1-1.4,2.48c-2.13,3.15-5.1,4.53-9,4.79-.42.07-.45-.29-.11-.36a6.9,6.9,0,0,0,3.91-1.91,14.33,14.33,0,0,0,2.4-4.2c.72-1.54,1.29-3.11,2.09-4.61a11,11,0,0,1,7.08-5.92,5,5,0,0,1-3-2.19c-1.33-2.23-.38-5.71.27-8,.41-1.57,1-3.18,1.21-4.78.31-1.83.31-2.67-.83-3.88a14.37,14.37,0,0,1,4,0c1.83.47,2.62,2.34,3.12,3.87,1.33,3.81,2.7,7.61,4.07,11.41s2.7,7.64,4.07,11.4a6.19,6.19,0,0,0,4.14,4.21h-8.9c1.37-.88,1.68-2,.88-4.28-1.33-3.69-2.63-7.38-4-11s-2.51-7-3.76-10.56a17.68,17.68,0,0,1-.69,4c-.34,1.47-.8,2.93-1,4.39a5,5,0,0,0,.3,3.25A4.56,4.56,0,0,0,96.93,28.91Z"/><path class="cls-2" d="M158.62,44.7c-5.14,1.1-10,1.1-14.79-1.17-11-5.19-17.42-19-25.29-28V37a4,4,0,0,0,2.93,4.24H114a4.12,4.12,0,0,0,3-4.39V13.73a28.83,28.83,0,0,0-5.25-5A15.89,15.89,0,0,0,100,5.84c-.31,0-.34-.29-.12-.33,7.8-1.32,13.43,0,19.13,5.12,7.46,6.69,11.87,15.94,18.22,23.54V14.68a4.16,4.16,0,0,0-3-4.42h7.49a4.13,4.13,0,0,0-3,4.24V36a26.57,26.57,0,0,0,9.39,7,18.11,18.11,0,0,0,10.34,1.39C158.81,44.37,158.85,44.66,158.62,44.7Z"/><path class="cls-2" d="M156.92,41.19H148c1.52-.73,2.55-1.76,2.55-4.39V20.09c0-2.63-1-3.65-2.55-4.38h8.9c-1.6.8-2.47,1.61-2.55,4.06V37.13C154.45,39.58,155.32,40.38,156.92,41.19Zm-7.38-31a3.41,3.41,0,0,0,2.4-2.52.55.55,0,0,1,1,0,3.24,3.24,0,0,0,2.35,2.52.55.55,0,0,1,.08,1,3.36,3.36,0,0,0-2.4,2.52.59.59,0,0,1-1.1,0,3.68,3.68,0,0,0-2.43-2.52A.57.57,0,0,1,149.54,10.22Z"/><path class="cls-2" d="M200.81,1.27c-4.49,4.79-9.77,7.89-16.5,8.37-5.4.36-10.88-.88-16.05-2.3V37.13c.07,2.45,1,3.25,2.55,4.06h-8.9c1.52-.73,2.54-1.76,2.54-4.39V6.28C153.12,3,141.67-.6,132.43,8.83c-.3.26-.57-.1-.37-.29C137,3.39,142.78.32,150.12,0c5.36-.22,10.72,1,15.82,2.44,4,1.1,8,2.38,12.05,3.26a30.73,30.73,0,0,0,11.26.69,19.72,19.72,0,0,0,11.26-5.34C200.92.65,201.11.87,200.81,1.27Z"/><path class="cls-2" d="M187.62,31.25c-3.5.65-6.31,1.27-7.61,4.93l-.26.73c-.92,2.67.76,3.66,2.54,4.28H174c1.67-.55,3.19-1.72,4.29-4.72,1.52-4.35,3-8.66,4.6-13,1.26-3.58,2.55-7.2,3.81-10.79a5.43,5.43,0,0,0-3.28-2.48c1.38,0,2.74,0,4.15-.07a3.48,3.48,0,0,1,1.71.29,2.46,2.46,0,0,1,1.07,1.24,16.35,16.35,0,0,1,.95,2.49c1.37,3.8,2.7,7.6,4.07,11.44s2.73,7.6,4.06,11.4c.92,2.34,2,3.48,4.19,4.21h-8.94c1.45-1,1.71-2,.88-4.28l-2.86-8C191.61,30.37,189.37,30.92,187.62,31.25Zm-5.93.21a16.14,16.14,0,0,1,5.62-1.71l.54-.11c1.14-.26,2.77-.66,3.5-1.61a2.56,2.56,0,0,0,.3-2.16l0,0c-1.29-3.73-2.62-7.46-4-11.19-1.1,3.07-2.17,6.1-3.27,9.17Z"/></g></g></svg>