<svg xmlns="http://www.w3.org/2000/svg" viewBox="0 0 538.78 137.86"><defs><style>.cls-1{fill:#fff;}</style></defs><g id="Layer_2" data-name="Layer 2"><g id="Layer_1-2" data-name="Layer 1"><path class="cls-1" d="M71.34,95.05v14H0c5.83-3.29,6.94-4.55,9.56-12,3.52-9.78,6.94-19.45,10.36-29.22s6.94-19.44,10.37-29.21c2.11-6,1.2-8.51-2.32-11.32H49.81c-5.13,2.71-6,4.07-8.86,11.32-4,11.22-8.05,22.54-12.07,33.76C25.05,83.35,21.13,94.18,17.3,105H58.76C66.4,105,69.53,99.6,71.34,95.05Zm19.82,2.71L80.9,68.93a15.63,15.63,0,0,1-6.14,5.13A56.71,56.71,0,0,1,67.62,77c-4,1.46-10,3.29-12.69,6.68a15.5,15.5,0,0,0-1,1.74l-.7,1.93c-2.52,7.07-1.82,8.52,3.42,11.32h-17C44.27,96.5,46.89,93,49.3,86.15c4.13-11.41,8.15-22.82,12.18-34.24l6.33-18c0-.1-.09-.1-.09-.19a16,16,0,0,0-6.95-6.39c3.73,0,5.74-.09,9.36-.09a9,9,0,0,1,4.53.68,7,7,0,0,1,2.81,3.28,40,40,0,0,1,2.42,6.58c3.62,10,7.24,20,10.77,30.08S97.9,88,101.42,98c2.62,6.77,3.22,7.83,9.36,11.12H88.85C93.67,106.56,93.37,103.85,91.16,97.76ZM77.88,60.52l-.3-1.06c-2.42-6.68-4.83-13.35-7.25-20.12v-.19C68.62,43.69,67,48.23,65.4,52.88L57,76.87a17.81,17.81,0,0,1,2.31-1.16c2.52-1.07,5.14-1.94,7.75-2.91,3.52-1.35,9-3.38,10.87-6.86A6.81,6.81,0,0,0,77.88,60.52Z"/><path class="cls-1" d="M268.59,121.66c-4.83,8-13.79,12.57-22.84,14.7-22.34,5.22-43.88-3.58-59.27-19.35a251.06,251.06,0,0,1-20.42-24.38c-6.34-8.7-12.28-17.7-17.91-26.79Q142,55.54,136.38,45V97.76c.19,6.58,3.31,9.77,7.84,11.32H124.4c4.63-1.64,7.85-4.84,7.85-11.71V36.44L128,27.34h10.36l.31.68c1.61,3.48,3.32,6.87,5.13,10.25,2.41,4.74,4.93,9.39,7.55,14A397.16,397.16,0,0,0,172.79,86a184,184,0,0,0,17.82,22c2.91-1.84,4.72-4.64,4.72-10.55V39.53L176.42,87.22l-2.82-4,22.14-55.91h.7c4.13,0,8.15.1,12.18.1h3.52l-2.92,1.93c-3.12,2-3.72,5.42-3.82,8.71V98.25c.2,6.57,2.61,8.7,6.74,10.83H191.62c8.55,8.61,17.8,15.77,28,19.83,7.94,3.19,17.3,5.13,25.86,3.29,7.14-1.55,13.07-5.62,15.59-12.38a17.73,17.73,0,0,0-2.31-16.54c-7-9.48-24.56-9.1-27.67,2.9-.21,1.35-1.51,1.26-1.11-.29,2.71-13.16,19.21-17.8,30.49-12.39a19.18,19.18,0,0,1,9.05,8.62A20.18,20.18,0,0,1,268.59,121.66Z"/><path class="cls-1" d="M256.45,76.48c1,0,1.11.87.21,1h-.11a19.12,19.12,0,0,0-11.06,6,29.14,29.14,0,0,0-5.94,8.8c-1.71,3.48-3.22,7.16-4.93,10.64a49.06,49.06,0,0,1-3.72,6.58c-5.64,8.32-13.49,12-23.75,12.67-1.1.19-1.21-.78-.3-1a18.22,18.22,0,0,0,10.36-5c2.82-2.71,4.73-7.64,6.34-11.13,1.91-4.06,3.42-8.22,5.53-12.18,4.43-8.22,10.16-13.35,18.72-15.67a13.17,13.17,0,0,1-8-5.8c-3.52-5.91-1-15.1.71-21.29,1.1-4.16,2.51-8.41,3.22-12.67.8-4.83.8-7.06-2.22-10.25,3-.29,7.85-.58,10.56.1,4.84,1.25,6.95,6.19,8.25,10.25,3.53,10.06,7.15,20.12,10.77,30.18s7.15,20.22,10.77,30.18c2.51,6.58,5.63,9.19,11,11.12H269.33c3.62-2.32,4.43-5.22,2.32-11.32-3.52-9.76-6.95-19.54-10.47-29.21-3.32-9.38-6.64-18.67-10-27.95a46.38,46.38,0,0,1-1.81,10.73c-.91,3.87-2.11,7.74-2.72,11.62-.4,2.7-.7,6.08.81,8.6C249.21,74.45,253.13,76.09,256.45,76.48Z"/><path class="cls-1" d="M419.69,118.27c-13.59,2.9-26.56,2.9-39.14-3.1-29-13.73-46.09-50.29-66.92-74.19V97.76c.11,6.58,3.22,9.68,7.76,11.22H301.56c4.63-1.54,7.85-4.83,7.85-11.61v-61c-4.13-4.74-8.55-9.48-13.88-13.16-9.47-6.57-19.53-9.28-30.89-7.73-.81,0-.91-.78-.3-.87,20.62-3.49,35.51,0,50.61,13.54,19.72,17.7,31.39,42.17,48.19,62.29V38.85c0-6.86-3.22-10-7.85-11.7h19.83c-4.53,1.54-7.65,4.74-7.85,11.22V95.25c6.94,7.54,15.09,14.7,24.85,18.57,8.75,3.57,18.11,5.51,27.37,3.68C420.19,117.39,420.29,118.17,419.69,118.27Z"/><path class="cls-1" d="M415.19,109H391.65c4-1.93,6.73-4.64,6.73-11.61V53.17c0-7-2.71-9.67-6.73-11.61h23.54c-4.23,2.13-6.54,4.26-6.74,10.74v46C408.65,104.73,411,106.85,415.19,109ZM395.67,27.05c3.42-1,5.33-3.38,6.34-6.67a1.45,1.45,0,0,1,2.72,0c1,3,2.71,6.09,6.23,6.67a1.43,1.43,0,0,1,.21,2.71c-3.43,1.26-5.54,3.2-6.35,6.68a1.55,1.55,0,0,1-2.91,0c-.71-3.39-3.32-5.32-6.44-6.68A1.5,1.5,0,0,1,395.67,27.05Z"/><path class="cls-1" d="M531.32,3.36C519.45,16,505.46,24.25,487.65,25.5c-14.29,1-28.77-2.32-42.46-6.09V98.25c.2,6.48,2.52,8.6,6.74,10.73H428.39c4-1.93,6.74-4.64,6.74-11.61V16.61c-30-8.61-60.27-18.19-84.73,6.77-.8.67-1.5-.29-1-.77C362.48,9,377.78.84,397.2.07c14.18-.59,28.37,2.7,41.85,6.48,10.67,2.9,21.13,6.28,31.9,8.6,9.66,2.13,19.92,3.39,29.78,1.84,11.37-1.84,21.94-6.09,29.79-14.12C531.62,1.71,532.12,2.29,531.32,3.36Z"/><path class="cls-1" d="M496.42,82.67c-9.26,1.74-16.7,3.39-20.13,13.06l-.7,1.93c-2.41,7.07,2,9.68,6.74,11.32H460.4c4.42-1.45,8.45-4.54,11.37-12.48,4-11.51,8-22.92,12.17-34.43C487.26,52.59,490.68,43,494,33.53A14.37,14.37,0,0,0,485.35,27c3.62,0,7.25-.1,11-.19a9.32,9.32,0,0,1,4.53.76,6.61,6.61,0,0,1,2.81,3.3,39.5,39.5,0,0,1,2.52,6.57c3.62,10.06,7.14,20.12,10.77,30.28s7.24,20.12,10.76,30.18c2.41,6.19,5.23,9.19,11.07,11.12H515.14c3.81-2.7,4.52-5.22,2.31-11.32L509.9,76.48C507,80.35,501,81.8,496.42,82.67Zm-15.7.58c4.43-2.7,9.66-3.58,14.89-4.54l1.41-.29c3-.68,7.35-1.75,9.26-4.26a6.72,6.72,0,0,0,.8-5.71l-.1-.09c-3.42-9.87-6.94-19.74-10.46-29.6-2.92,8.12-5.73,16.15-8.65,24.28Z"/></g></g></svg>