<?xml version="1.0" encoding="UTF-8"?>
<svg id="Layer_2" data-name="Layer 2" xmlns="http://www.w3.org/2000/svg" viewBox="0 0 815.66 537.14">
  <defs>
    <style>
      .cls-1 {
        fill: #4e737a;
      }

      .cls-1, .cls-2, .cls-3, .cls-4, .cls-5, .cls-6, .cls-7, .cls-8, .cls-9, .cls-10, .cls-11, .cls-12, .cls-13, .cls-14, .cls-15, .cls-16, .cls-17, .cls-18, .cls-19, .cls-20, .cls-21, .cls-22, .cls-23, .cls-24, .cls-25, .cls-26, .cls-27, .cls-28, .cls-29, .cls-30, .cls-31, .cls-32, .cls-33, .cls-34, .cls-35, .cls-36, .cls-37, .cls-38, .cls-39, .cls-40, .cls-41, .cls-42, .cls-43, .cls-44, .cls-45, .cls-46, .cls-47, .cls-48, .cls-49, .cls-50, .cls-51, .cls-52, .cls-53, .cls-54, .cls-55, .cls-56, .cls-57, .cls-58, .cls-59, .cls-60, .cls-61, .cls-62, .cls-63, .cls-64, .cls-65, .cls-66 {
        stroke-width: 0px;
      }

      .cls-2 {
        fill: #df412d;
      }

      .cls-3 {
        fill: #e9dbb7;
      }

      .cls-4 {
        fill: #d9c5ac;
      }

      .cls-5 {
        fill: #f2b014;
      }

      .cls-6 {
        fill: #172834;
      }

      .cls-7 {
        fill: #874f2c;
      }

      .cls-8 {
        fill: #1c6488;
      }

      .cls-9 {
        fill: #9c1c1c;
      }

      .cls-10 {
        fill: #3a2f3b;
      }

      .cls-11 {
        fill: #803929;
      }

      .cls-12 {
        fill: #3f5e69;
      }

      .cls-13 {
        fill: #b54a33;
      }

      .cls-14 {
        fill: #68341c;
      }

      .cls-15 {
        fill: #f3f0de;
      }

      .cls-16 {
        fill: #771d18;
      }

      .cls-17 {
        fill: #70a1b9;
      }

      .cls-18 {
        fill: #715d61;
      }

      .cls-19 {
        fill: #7e3c1e;
      }

      .cls-20 {
        fill: #341a0a;
      }

      .cls-21 {
        fill: #c4800b;
      }

      .cls-22 {
        fill: #99b7c7;
      }

      .cls-23 {
        fill: #924934;
      }

      .cls-24 {
        fill: #341918;
      }

      .cls-25 {
        fill: #5a4f1d;
      }

      .cls-26 {
        fill: #9b5e44;
      }

      .cls-27 {
        fill: #abd0df;
      }

      .cls-28 {
        fill: #023348;
      }

      .cls-29 {
        fill: #63422f;
      }

      .cls-30 {
        fill: #192f0c;
      }

      .cls-31 {
        fill: #26600e;
      }

      .cls-32 {
        fill: #d7dbd7;
      }

      .cls-33 {
        fill: #251b15;
      }

      .cls-34 {
        fill: #847571;
      }

      .cls-35 {
        fill: #241314;
      }

      .cls-36 {
        fill: #4a2620;
      }

      .cls-37 {
        fill: #917b5a;
      }

      .cls-38 {
        fill: #d2e3ea;
      }

      .cls-39 {
        fill: #01677d;
      }

      .cls-40 {
        fill: #135310;
      }

      .cls-41 {
        fill: #ede8e4;
      }

      .cls-42 {
        fill: #bf997f;
      }

      .cls-43 {
        fill: #2d4855;
      }

      .cls-44 {
        fill: #c7af8b;
      }

      .cls-45 {
        fill: #825500;
      }

      .cls-46 {
        fill: #e100d3;
        opacity: .39;
      }

      .cls-47 {
        fill: #203e09;
      }

      .cls-48 {
        fill: #3b423e;
      }

      .cls-49 {
        fill: #efa21b;
      }

      .cls-50 {
        fill: #80999f;
      }

      .cls-51 {
        fill: #603e15;
      }

      .cls-52 {
        fill: #b3663c;
      }

      .cls-53 {
        fill: #511d11;
      }

      .cls-54 {
        fill: #ccbd86;
      }

      .cls-55 {
        fill: #cf784a;
      }

      .cls-56 {
        fill: #5b8294;
      }

      .cls-57 {
        fill: #1f1c1c;
      }

      .cls-58 {
        fill: #536716;
      }

      .cls-59 {
        fill: #02445c;
      }

      .cls-60 {
        fill: #100b0f;
      }

      .cls-61 {
        fill: #525156;
      }

      .cls-62 {
        fill: #a48a69;
      }

      .cls-63 {
        fill: #a46332;
      }

      .cls-64 {
        fill: #3d2100;
      }

      .cls-65 {
        fill: #79532f;
      }

      .cls-66 {
        fill: #ccd1d9;
      }
    </style>
  </defs>
  <g id="Layer_1-2" data-name="Layer 1">
    <g>
      <g>
        <path class="cls-66" d="M294.47,132.92c-11.02,8.22,31.86,49.87,37.92,51.69,2.14,7.73-14.55.59-30.44-3.86-8.36-2.34-13.76-.18-19.46-6.56-13.18-14.75-5.69-28.21,6.99-40.89l4.99-.39Z"/>
        <path class="cls-15" d="M332.4,184.62c-6.06-1.82-48.94-43.47-37.92-51.69,13.12,3.59,26.25,9.5,34.93,18.13,13.14,13.07,19.13,38.42,2.99,33.56Z"/>
      </g>
      <g>
        <g>
          <path class="cls-22" d="M255.55,146.81c-.19.67-2.26,3.73-2.99,4.63-28.63-5.05-58.33-11.6-83.83-23.15-.45-2.59.9-2.22,1-2.31,30.21,2.7,58.73,10.24,85.82,20.83Z"/>
          <path class="cls-27" d="M252.56,151.44c-2.17,2.66-3.42,5.55-8.48,6.17-7.91.97-87.44-19.65-75.34-29.32,25.5,11.55,55.2,18.1,83.83,23.15Z"/>
        </g>
        <g>
          <path class="cls-18" d="M236.59,129.07c-2.71,7.94-42.22-2.28-41.91-9.26,10.88-.66,19.56,1.15,20.46.77-9.25-17.26,22.8-13.97,18.46-1.93-2.14,5.95-13.05.21,2.99,10.42Z"/>
          <path class="cls-18" d="M194.68,119.81c-.31,6.98,39.2,17.2,41.91,9.26,6.22,3.96,20.7,11.5,18.96,17.74-27.09-10.59-55.61-18.13-85.82-20.83,4.86-4.53,17.76-5.74,24.95-6.17Z"/>
        </g>
      </g>
      <g>
        <path class="cls-63" d="M312.44,517.13c19.13-4.75,40.16-2.15,58.88-6.17,7.6,2.07,108.82,2.12,125.24,1.54,39.06-1.38,77.87-6.47,116.76-9.26,25.46-1.82,63.01-1.88,83.33-3.86,8.63-.84,50-.81,55.95-6.56,4.53-4.38,9.47-17.83,2.99-18.9.22-.67,1.56-1.64,1-4.63,55.66,12.33,88.37,22.94,22.45,40.89-85.31,23.23-328.86,34.94-416.21,20.83-12.95-2.09-40.27-8.05-50.4-13.89Z"/>
        <path class="cls-14" d="M369.32,481.64c9.61,2.39,24.78,3.39,26.45,3.86,2.21.62,10.59,7.21,20.96,10.03,43.8,11.9,160.12.06,208.07-10.8,13.4,4.05,29.58,2.95,42.91-.77,3.49,12.2,25.71,9.97,28.94,15.43-20.32,1.98-57.87,2.03-83.33,3.86-38.88,2.79-77.7,7.88-116.76,9.26-16.43.58-117.64.53-125.24-1.54-5.67-1.54-4.1-4.98-6.99-8.1-5.44-5.88-12.37-11.32-13.97-18.9,6.27-1.17,12.47-2.29,18.96-2.31Z"/>
        <path class="cls-7" d="M350.36,483.96c1.6,7.59,8.53,13.02,13.97,18.9,2.89,3.12,1.32,6.56,6.99,8.1-18.72,4.02-39.75,1.42-58.88,6.17-29.18-16.83,21.19-30.05,37.92-33.17Z"/>
        <path class="cls-14" d="M696.64,499.39c-3.23-5.46-25.45-3.23-28.94-15.43,1.33-.37,5.71-1.42,5.99-1.54,13.28,6.52,60.39,16.59,72.92,5.4,5.34-4.77,7.05-7.95,8.98-13.89,6.47,1.07,1.54,14.52-2.99,18.9-5.95,5.75-47.33,5.72-55.95,6.56Z"/>
        <g>
          <path class="cls-55" d="M756.59,469.3c.56,2.99-.78,3.96-1,4.63-1.93,5.94-3.64,9.12-8.98,13.89-12.91,2.16-58.92-3.6-70.92-6.17.24-.12,3.17-2.46,3.99-3.09,5.13-1.95,12.64-8.51,12.97-13.12.64-.06,1.48.11,2,0,13.73-2.93,56.58,2.67,61.94,3.86Z"/>
          <path class="cls-23" d="M675.69,481.64c12.01,2.57,58.02,8.33,70.92,6.17-12.53,11.19-59.64,1.12-72.92-5.4.94-.4,1.9-.72,2-.77Z"/>
        </g>
      </g>
      <g>
        <g>
          <path class="cls-23" d="M441.17,381.35c.98.06,2.25-.16,2.99,0,2.06.44,7.61,4.83,4.99,6.94-26.73,11.69-49.07,31.31-59.88,53.62,2.52,8.33,63.9,2.04,74.35,1.93,39.54-.42,71.79.75,110.77,6.94q-8.73-11.57-17.46-23.15c14.13,14.24,47.35,50.89,67.86,57.09-47.95,10.86-164.27,22.7-208.07,10.8-10.36-2.82-18.75-9.4-20.96-10.03-1.66-.47-16.83-1.47-26.45-3.86-43.43-10.78-40.14-32.48-16.96-57.09,24.42-17.54,56.99-24.42,84.82-37.42q-3.49-1.74-6.99-3.47c3.43-.57,7.32-2.53,10.98-2.31Z"/>
          <path class="cls-55" d="M430.19,383.66q3.49,1.74,6.99,3.47c-27.83,13-60.4,19.88-84.82,37.42,14.9-15.82,34.4-28.36,57.88-36.26,3.65-1.23,9.27-2.96,12.97-3.86,1.98-.48,5.07-.45,6.99-.77Z"/>
          <path class="cls-55" d="M499.05,375.18c14.26,1.17,45.64,39.82,55.88,50.15,1.84,1.85,1.89,2.2,2,2.31q8.73,11.57,17.46,23.15c-38.98-6.19-71.23-7.36-110.77-6.94-10.44.11-71.82,6.4-74.35-1.93,10.8-22.31,33.15-41.93,59.88-53.62,5.23-2.28,15.03-5.17,20.96-6.94,3.2-.96,2.82-1.5,2.99-1.54,7.01-1.9,18.89-5.21,25.95-4.63Z"/>
          <path class="cls-9" d="M470.11,381.35c-5.93,1.78-15.73,4.66-20.96,6.94,2.62-2.11-2.93-6.5-4.99-6.94.12-.32.9-1.51,1-1.54,5.23-1.75,19.28-.46,24.95,1.54Z"/>
        </g>
        <path class="cls-12" d="M478.1,240.16c.28.17-1.64,1.62,3.99,4.63,6.78,3.62,8.57,3.27,15.97,3.86,7.98.64,15.97.39,23.95,0,3.4-.17,6.62-.42,9.98-.77-2.58,3.37-21.42,27.24-23.45,27.77-3.78,1-49.91-10.92-57.38-13.12,4.3-2.57,18.42-22.78,19.96-23.53,1.49-.72,6.7.99,6.99,1.16Z"/>
        <g>
          <path class="cls-2" d="M622.8,275.65c-.06.07-.71-.42-2,.77-9.65,8.91-44,17.88-42.91,15.04,20.65-12.65,37.23-30.67,42.91-50.53,1.17-2.17,4.69-8.25,4.99-9.26,4.98,9.81,4.05,35.81-2.99,43.98Z"/>
          <path class="cls-9" d="M620.8,276.42c-3.39,18.4-33.18,23.73-52.89,28.55-9.63.86-19.26,1.85-28.94,2.31,13.74-6.13,38.76-21.36,47.9-31.63,11.47-6.91,28.34-24.35,33.93-34.72-5.68,19.87-22.26,37.88-42.91,50.53-1.08,2.83,33.26-6.13,42.91-15.04Z"/>
        </g>
        <path class="cls-2" d="M592.86,183.84c-20.72,10.08-32.83,25.9-44.91,41.66.52-.95,2.01-9.17,3.99-12.73,5.83-10.47,8.9-12.89,13.97-20.06.35-.5-.34-2.23,0-2.7,4.79-.66,11.43-11.83,14.47-12.34,4.05-.68,9.14,4.48,12.47,6.17Z"/>
        <path class="cls-36" d="M565.91,190.02c-.34.47.35,2.21,0,2.7-5.07,7.17-8.14,9.59-13.97,20.06-1.98,3.56-3.47,11.78-3.99,12.73-2.67,4.89-5.83,9.21-8.98,13.89.94-23.23,15.78-44.89,35.93-61.72,5.58-.15-5.3,7.28-8.98,12.34Z"/>
        <path class="cls-2" d="M479.09,238.62c-14.11,4.03,6.77-25.95,2.99-36.26,1-1.99,3.92-4.02,5.99-5.4,1.39-.93,3.33-1.31,4.99-2.31q-1,5.98-2,11.96c-4.24,10.64-7.13,21.51-11.98,32.02Z"/>
        <path class="cls-24" d="M497.06,204.67c-2.9,8.49-6.21,16.93-8.98,25.46-1.4,4.31-2.45,11.76-5.99,14.66-5.63-3.01-3.71-4.46-3.99-4.63,1.54.04.77-1.05,1-1.54,4.85-10.51,7.73-21.38,11.98-32.02q1-5.98,2-11.96c3.61-2.19,5.86-1.89,6.49-2.31.64-.44.11-1.86,2.49-3.86-2.12,5.27-3.18,10.91-4.99,16.2Z"/>
        <path class="cls-4" d="M488.07,196.96c-2.07,1.38-4.99,3.41-5.99,5.4-.04-.12-1.46.33-1-2.31.4-.2-2.55-2.62,6.99-3.09Z"/>
        <g>
          <path class="cls-9" d="M489.07,366.69c3.45,1.47,6.68,3.68,9.98,5.4v3.09c-7.05-.58-18.94,2.73-25.95,4.63-2.57-2.14-6.84-12.17-6.99-14.66-.02-.27,1.64-1.73,1-5.4,5.35.3,16.84,4.76,21.95,6.94Z"/>
          <g>
            <g>
              <path class="cls-1" d="M336.39,410.67c-2.17.53-8.21,3.75-7.98,1.16,33.64-42.69,81.77-50.76,84.82-54.39q1.5.96,2.99,1.93c-23.88,19.51-48.57,38.85-79.84,51.31Z"/>
              <path class="cls-6" d="M445.16,358.2c-3.15,3.95-2.85,5.86-2.99,6.17-.38.84-8.78,1.53,2.99,15.43-.1.03-.88,1.22-1,1.54-.74-.16-2.01.06-2.99,0q-3.24-5.01-6.49-10.03-5.74,6.56-11.48,13.12c-3.7.89-9.32,2.63-12.97,3.86-4.57.81-9.63,1.78-13.97,3.09q-1.25-.77-2.49-1.54c36.04-6.76,29.99-30.32,61.87-45.52,7.58,1.92-4.23,6.05-10.48,13.89Z"/>
              <path class="cls-12" d="M455.14,334.29c5.86,11.86-9.84,10.95-12.97,1.54,3.4-.92,10.55-.9,12.97-1.54Z"/>
              <path class="cls-43" d="M441.17,381.35c-3.66-.21-7.55,1.74-10.98,2.31-1.92.32-5,.29-6.99.77q5.74-6.56,11.48-13.12,3.24,5.01,6.49,10.03Z"/>
            </g>
            <path class="cls-54" d="M467.12,359.75c.64,3.67-1.01,5.13-1,5.4-4.5-1.43-5.91-5.78,1-5.4Z"/>
            <g>
              <g>
                <g>
                  <path class="cls-34" d="M572.96,349.13c0,.24,0,.48,0,.73-3.25,3.36-1.33,8.04,0,11.8,0,5.32,0,10.65,0,15.97-4.57-11.44-15.65-52.68-15.43-62.35.09-3.9,2.24-4.25,3.99-7.26,3.36-5.76,4.19-14.65,5.26-21.15.15,1.09,2.01,7.14,2,7.53-.02.73-3.61,4.04-1.27,8.17.18.32,1.21,1.07,1.27,1.27.69,2.38-1.71,9.2,1.82,13.07-3.74,7.14-4.99,8.04-3.27,16.16,1.9,8.95,4.58,8.84,4.72,9.44.34,1.44-2.63,3.93.91,6.63Z"/>
                  <g>
                    <path class="cls-61" d="M572.96,279.61c.54,22.77.01,46.63,0,69.52-3.54-2.7-.57-5.19-.91-6.63-.14-.6-2.82-.48-4.72-9.44-1.72-8.11-.47-9.01,3.27-16.16-3.53-3.87-1.12-10.69-1.82-13.07-.06-.2-1.09-.95-1.27-1.27-2.34-4.13,1.25-7.43,1.27-8.17.01-.39-1.85-6.44-2-7.53.78-4.7-.17-6.33,6.17-7.26Z"/>
                    <path class="cls-61" d="M572.96,361.65c-1.33-3.76-3.25-8.43,0-11.8,0,3.93,0,7.87,0,11.8Z"/>
                  </g>
                </g>
                <g>
                  <path class="cls-66" d="M477.84,309.01c-2,1.93,5.8,11.73,6.9,12.16.39,1.82-2.65.14-5.54-.91-1.52-.55-2.5-.04-3.54-1.54-2.4-3.47-1.04-6.64,1.27-9.62l.91-.09Z"/>
                  <path class="cls-15" d="M484.74,321.17c-1.1-.43-8.9-10.23-6.9-12.16,2.39.85,4.78,2.23,6.35,4.27,2.39,3.08,3.48,9.04.54,7.9Z"/>
                </g>
                <g>
                  <g>
                    <path class="cls-22" d="M470.76,312.28c-.03.16-.41.88-.54,1.09-5.21-1.19-10.61-2.73-15.25-5.45-.08-.61.16-.52.18-.54,5.5.64,10.68,2.41,15.61,4.9Z"/>
                    <path class="cls-27" d="M470.21,313.37c-.39.63-.62,1.31-1.54,1.45-1.44.23-15.91-4.62-13.71-6.9,4.64,2.72,10.04,4.26,15.25,5.45Z"/>
                  </g>
                  <g>
                    <path class="cls-18" d="M467.31,308.1c-.49,1.87-7.68-.54-7.62-2.18,1.98-.16,3.56.27,3.72.18-1.68-4.06,4.15-3.29,3.36-.45-.39,1.4-2.37.05.54,2.45Z"/>
                    <path class="cls-18" d="M459.68,305.93c-.06,1.64,7.13,4.05,7.62,2.18,1.13.93,3.76,2.71,3.45,4.18-4.93-2.49-10.12-4.27-15.61-4.9.88-1.07,3.23-1.35,4.54-1.45Z"/>
                  </g>
                </g>
                <g>
                  <path class="cls-6" d="M389.43,341.14c-.35,1.93-1.28,4.6-1.45,6.44-.15,1.62-.11,12.79,0,15.07.16,3.19.86,11.36,2.36,13.34-.19.6-.52,10.54-.73,12.62-.73,7.39-4.71,16.42,4.9,19.15-2.85.16-4.92-.44-7.44-1.63.22-40.78-.29-81.57,0-122.35,1.71-1.58,4.6-3.77,6.9-4.18-3.26,9.3-5.9,18.83-4.72,28.77.46,3.86,3,10.18,2.18,13.61-.24,1.02-1.63,2.74-1.63,2.9,0,.36.96,1.07,1.09,1.45,1.28,3.73-.74,10.82-1.45,14.79Z"/>
                  <path class="cls-34" d="M402.69,281.42c-.28,9.48,2.73,6.87,4.81,7.99,1.9,1.02.9,7.54,1.54,8.8.27.54,1.69.79,2,1.45.31.67.08,1.41.18,1.63.78,1.75,2.79,1.49,3.9,2.27.62.43.9,1.32,1.27,1.63.11.09,1.42.23,2.27,1.54.74,1.14,1.64,6.26,1.45,7.62-.48,3.48-3.49,4.6-3.72,4.81-1.25,1.13-1.96,5.48-1.72,6.26.07.24,1.11,1.03,1.27,1.45.38,1.04-.29,3.05,1.91,4.08.4.19,1.27.06,2.18.54,2.5,1.34,1.1,4.03,1.36,5.35.06.31,2.68,5.21,4.18,4.08,2.31,11.32,1.1,7.37-2.18,15.52-3.37,8.4-5.94,17.13-9.62,25.41-2.25,5.06-11.17,23.18-15.7,25.14-1.04.45-2.41.66-3.54.73-9.62-2.73-5.63-11.76-4.9-19.15.21-2.08.54-12.01.73-12.62.02-.08.85-.53,1.09-1.18,2.35-6.48.25-6.53.54-8.71.1-.73,1.34-1.97,1.45-2.72.13-.86-.33-1.99-.18-3.27.18-1.53,1.05-4.03.73-7.08-.27-2.54-3.32-9.25-4.54-11.89.71-3.98,2.73-11.06,1.45-14.79-.13-.38-1.09-1.09-1.09-1.45,0-.17,1.39-1.88,1.63-2.9.82-3.43-1.72-9.75-2.18-13.61-1.18-9.94,1.46-19.47,4.72-28.77,3.21-.57,5.89.42,8.71,1.82Z"/>
                  <path class="cls-42" d="M425.56,340.96c-1.49,1.13-4.11-3.77-4.18-4.08-.26-1.32,1.14-4.02-1.36-5.35-.91-.49-1.78-.36-2.18-.54-2.19-1.04-1.52-3.04-1.91-4.08-.16-.43-1.2-1.21-1.27-1.45-.24-.78.48-5.14,1.72-6.26.23-.21,3.24-1.33,3.72-4.81.19-1.36-.71-6.48-1.45-7.62-.85-1.31-2.16-1.45-2.27-1.54-.37-.31-.65-1.2-1.27-1.63-1.11-.78-3.13-.52-3.9-2.27-.1-.22.13-.96-.18-1.63-.31-.66-1.72-.92-2-1.45-.64-1.26.35-7.79-1.54-8.8-2.08-1.11-5.09,1.49-4.81-7.99,6.33,3.13,13.73,10.6,17.43,16.61,6.58,10.7,2.27,10.57,1.27,17.43-1.1,7.54,2.61,17.81,4.18,25.5Z"/>
                  <path class="cls-61" d="M390.34,376c-1.5-1.98-2.2-10.15-2.36-13.34-.11-2.28-.15-13.45,0-15.07.17-1.85,1.11-4.51,1.45-6.44,1.22,2.64,4.26,9.35,4.54,11.89.33,3.05-.55,5.55-.73,7.08-.15,1.28.31,2.41.18,3.27-.11.75-1.35,1.99-1.45,2.72-.29,2.18,1.81,2.23-.54,8.71-.24.65-1.07,1.1-1.09,1.18Z"/>
                </g>
                <g>
                  <path class="cls-63" d="M481.1,399.41c3.48-1.12,7.3-.51,10.71-1.45,1.38.49,19.79.5,22.78.36,7.1-.32,14.17-1.52,21.24-2.18,4.63-.43,11.46-.44,15.16-.91,1.57-.2,2.91-.19,3.99-1.54.82-1.03,1.72-4.19.54-4.45.04-.16.28-.39.18-1.09,10.12,2.9,16.07,5.4,4.08,9.62-15.52,5.47-53.63,8.22-69.52,4.9-2.36-.49-7.33-1.89-9.17-3.27Z"/>
                  <path class="cls-14" d="M491.45,391.06c1.75.56,4.51.8,4.81.91.4.15,1.93,1.7,3.81,2.36,7.97,2.8,29.13.01,37.85-2.54,2.44.95,5.38.69,7.81-.18.63,2.87,4.68,2.35,5.26,3.63-3.7.46-10.53.48-15.16.91-7.07.66-14.13,1.85-21.24,2.18-2.99.14-21.4.12-22.78-.36-1.03-.36-.75-1.17-1.27-1.91-.99-1.38-2.25-2.66-2.54-4.45,1.14-.28,2.27-.54,3.45-.54Z"/>
                  <path class="cls-7" d="M488,391.61c.29,1.78,1.55,3.06,2.54,4.45.53.73.24,1.54,1.27,1.91-3.41.95-7.23.33-10.71,1.45-5.31-3.96,3.86-7.07,6.9-7.81Z"/>
                  <path class="cls-14" d="M550.99,395.24c-.59-1.29-4.63-.76-5.26-3.63.24-.09,1.04-.34,1.09-.36,2.42,1.53,4.8,3.9,7.08,1.27.97-1.12,1.28-1.87,1.63-3.27,1.18.25.28,3.42-.54,4.45-1.08,1.35-2.42,1.35-3.99,1.54Z"/>
                  <g>
                    <path class="cls-55" d="M555.71,388.16c.1.7-.14.93-.18,1.09-.35,1.4-.66,2.15-1.63,3.27-2.35.51-4.53-.85-6.72-1.45.04-.03.58-.58.73-.73.93-.46,2.3-2,2.36-3.09.12-.01.27.03.36,0,2.5-.69,4.11.63,5.08.91Z"/>
                    <path class="cls-23" d="M547.18,391.06c2.18.61,4.37,1.96,6.72,1.45-2.28,2.63-4.66.26-7.08-1.27.17-.09.35-.17.36-.18Z"/>
                  </g>
                </g>
                <g>
                  <g>
                    <path class="cls-23" d="M504.52,367.46c.18.01.41-.04.54,0,.37.1,1.38,1.14.91,1.63-4.86,2.75-8.93,7.37-10.89,12.62.46,1.96,11.62.48,13.52.45,7.19-.1,13.06.18,20.15,1.63l-3.18-5.45c2.57,3.35,8.61,11.97,12.34,13.43-8.72,2.56-29.88,5.34-37.85,2.54-1.89-.66-3.41-2.21-3.81-2.36-.3-.11-3.06-.35-4.81-.91-7.9-2.54-7.3-7.64-3.09-13.43,4.44-4.13,10.37-5.75,15.43-8.8l-1.27-.82c.62-.13,1.33-.59,2-.54Z"/>
                    <path class="cls-55" d="M502.52,368.01l1.27.82c-5.06,3.06-10.99,4.68-15.43,8.8,2.71-3.72,6.26-6.67,10.53-8.53.66-.29,1.69-.7,2.36-.91.36-.11.92-.11,1.27-.18Z"/>
                    <path class="cls-55" d="M515.05,366.01c2.59.27,8.3,9.37,10.17,11.8.33.44.34.52.36.54l3.18,5.45c-7.09-1.46-12.96-1.73-20.15-1.63-1.9.03-13.06,1.51-13.52-.45,1.96-5.25,6.03-9.87,10.89-12.62.95-.54,2.73-1.22,3.81-1.63.58-.23.51-.35.54-.36,1.27-.45,3.44-1.22,4.72-1.09Z"/>
                    <path class="cls-9" d="M509.79,367.46c-1.08.42-2.86,1.1-3.81,1.63.48-.5-.53-1.53-.91-1.63.02-.08.16-.35.18-.36.95-.41,3.51-.11,4.54.36Z"/>
                  </g>
                  <path class="cls-12" d="M511.24,334.24c.05.04-.3.38.73,1.09,1.23.85,1.56.77,2.9.91,1.45.15,2.91.09,4.36,0,.62-.04,1.2-.1,1.82-.18-.47.79-3.9,6.41-4.27,6.53-.69.23-9.08-2.57-10.44-3.09.78-.61,3.35-5.36,3.63-5.54.27-.17,1.22.23,1.27.27Z"/>
                  <g>
                    <path class="cls-2" d="M537.56,342.59s-.13-.1-.36.18c-1.76,2.1-8,4.21-7.81,3.54,3.76-2.98,6.77-7.22,7.81-11.89.21-.51.85-1.94.91-2.18.91,2.31.74,8.42-.54,10.35Z"/>
                    <path class="cls-9" d="M537.2,342.78c-.62,4.33-6.04,5.58-9.62,6.72-1.75.2-3.5.43-5.26.54,2.5-1.44,7.05-5.03,8.71-7.44,2.09-1.62,5.15-5.73,6.17-8.17-1.03,4.67-4.05,8.91-7.81,11.89-.2.67,6.05-1.44,7.81-3.54Z"/>
                  </g>
                  <path class="cls-2" d="M532.11,320.99c-3.77,2.37-5.97,6.09-8.17,9.8.09-.22.37-2.16.73-3,1.06-2.46,1.62-3.03,2.54-4.72.06-.12-.06-.52,0-.64.87-.15,2.08-2.78,2.63-2.9.74-.16,1.66,1.05,2.27,1.45Z"/>
                  <path class="cls-36" d="M527.21,322.45c-.06.11.06.52,0,.64-.92,1.69-1.48,2.26-2.54,4.72-.36.84-.63,2.77-.73,3-.49,1.15-1.06,2.17-1.63,3.27.17-5.47,2.87-10.56,6.53-14.52,1.01-.04-.96,1.71-1.63,2.9Z"/>
                  <path class="cls-2" d="M511.42,333.88c-2.57.95,1.23-6.11.54-8.53.18-.47.71-.95,1.09-1.27.25-.22.61-.31.91-.54l-.36,2.81c-.77,2.5-1.3,5.06-2.18,7.53Z"/>
                  <path class="cls-24" d="M514.69,325.89c-.53,2-1.13,3.98-1.63,5.99-.25,1.02-.45,2.77-1.09,3.45-1.02-.71-.67-1.05-.73-1.09.28.01.14-.25.18-.36.88-2.47,1.41-5.03,2.18-7.53l.36-2.81c.66-.52,1.07-.44,1.18-.54.12-.1.02-.44.45-.91-.39,1.24-.58,2.57-.91,3.81Z"/>
                  <path class="cls-4" d="M513.05,324.08c-.38.33-.91.8-1.09,1.27,0-.03-.27.08-.18-.54.07-.05-.46-.62,1.27-.73Z"/>
                  <g>
                    <path class="cls-9" d="M513.23,364.01c.63.35,1.22.87,1.82,1.27v.73c-1.28-.14-3.45.64-4.72,1.09-.47-.5-1.24-2.86-1.27-3.45,0-.06.3-.41.18-1.27.97.07,3.06,1.12,3.99,1.63Z"/>
                    <g>
                      <g>
                        <path class="cls-1" d="M485.46,374.36c-.39.12-1.49.88-1.45.27,6.12-10.04,14.87-11.94,15.43-12.8l.54.45c-4.34,4.59-8.83,9.14-14.52,12.07Z"/>
                        <path class="cls-6" d="M505.25,362.02c-.57.93-.52,1.38-.54,1.45-.07.2-1.6.36.54,3.63-.02,0-.16.29-.18.36-.14-.04-.37.01-.54,0l-1.18-2.36-2.09,3.09c-.67.21-1.7.62-2.36.91-.83.19-1.75.42-2.54.73l-.45-.36c6.56-1.59,5.46-7.13,11.25-10.71,1.38.45-.77,1.42-1.91,3.27Z"/>
                        <path class="cls-12" d="M507.06,356.39c1.07,2.79-1.79,2.58-2.36.36.62-.22,1.92-.21,2.36-.36Z"/>
                        <path class="cls-43" d="M504.52,367.46c-.67-.05-1.37.41-2,.54-.35.08-.91.07-1.27.18l2.09-3.09,1.18,2.36Z"/>
                      </g>
                      <path class="cls-54" d="M509.24,362.38c.12.86-.18,1.21-.18,1.27-.82-.34-1.07-1.36.18-1.27Z"/>
                      <g>
                        <path class="cls-43" d="M537.56,342.59c.21.27.17.52.18.54-.29,3.36-11.01,8.7-14.25,10.17-1.01.46-2.16.61-3.18,1.09-.06.03-.37.42-1.09.45l.36.45c-1.28.12-2.53.2-3.81.27,2.3.66,4.79.94,7.17.82,1.46-.08,9.42-1.6,3.45,0-4.06,1.08-8.41,1.03-12.53.36,8.71,3.48,14.29.69,22.24-2.63-5.15,3.97-10.66,5.49-17.15,4.99-3.88-.3-8.93-2.38-.09,1.27-.84,1.17,2.19,1.89,3.63,2l-.36,1.82c-1.38-.11-1.21.18-1.27.18-2.58.12-5.06.15-7.62-.36-.93-.51-3.02-1.56-3.99-1.63-1.26-.09-1,.93-.18,1.27.03.59.8,2.94,1.27,3.45-.03.01.04.14-.54.36-1.03-.47-3.59-.77-4.54-.36-2.14-3.27-.61-3.43-.54-3.63l.54,1v-2.45c1.14-1.84,3.29-2.82,1.91-3.27-5.8,3.58-4.7,9.12-11.25,10.71l.45.36c-3.67,1.42-6.52,3.16-10.89,4.54,5.69-2.93,10.18-7.48,14.52-12.07l-.54-.45c.33-.51-.46-3.08,5.26-5.08.57,2.21,3.43,2.43,2.36-.36,1.5-.51.85-.89,1.45-2.09.12-.24.84-.45.91-.73.06-.26-.95-.96.54-2.81,4.21,1.35,5.07,1.13,9.26.73,1.75-.17,7.04-.87,8.44-1.27,3.45-.97,3.15-1.1-.09-.73,3.58-1.13,9-2.39,9.62-6.72.23-.28.35-.16.36-.18Z"/>
                        <path class="cls-12" d="M544.09,355.12c0,.15-.14.18-.18.36-.06.23-.07.32-.18.54-.31.66-2.14,2.48-2.72,2.9-.06.04.26-.29-1.09.54-.88.55-1.96,1.2-2.9,1.63-.05.02.24-.35-1.09.18l-4.18,1.45c-2.64.64-6.94,1.33-9.62,1.45l.36-1.82c3.52.26,14.3-2.31,17.43-4.54,2.07-.98,2.55-1.6,4.18-2.72Z"/>
                        <path class="cls-43" d="M522.49,362.38c-1.44-.11-4.47-.83-3.63-2,5.2,1.12,16.16-.22,21.06-2.54-3.12,2.23-13.91,4.8-17.43,4.54Z"/>
                        <path class="cls-6" d="M519.23,351.49c1.02-.49,2.1-.88,3.09-1.45,1.76-.11,3.51-.34,5.26-.54,3.24-.37,3.54-.25.09.73-1.41.4-6.69,1.1-8.44,1.27Z"/>
                        <path class="cls-50" d="M504.7,363.47c.03-.07-.03-.52.54-1.45v2.45l-.54-1Z"/>
                        <g>
                          <path class="cls-1" d="M544.09,355.12c-1.62,1.12-2.11,1.75-4.18,2.72-4.9,2.32-15.86,3.67-21.06,2.54-8.84-3.65-3.79-1.57.09-1.27,6.49.5,12-1.02,17.15-4.99-7.95,3.32-13.53,6.12-22.24,2.63,4.12.67,8.47.72,12.53-.36,5.97-1.6-1.99-.08-3.45,0-2.38.12-4.87-.16-7.17-.82,1.28-.07,2.54-.15,3.81-.27,6.86-.66,14.24-1.69,19.6-6.44-5.82,3.17-12.27,4.97-18.88,5.54,1.02-.48,2.17-.63,3.18-1.09,3.24-1.46,13.96-6.81,14.25-10.17,1.54,2.45,2.09,2.66,2.18,2.81.78,1.4-.06,2.39,0,2.54.04.1,1.38.5,1.82,1.27.7,1.25.15,2.07.18,2.18.06.2,2.32.83,2.18,3.18Z"/>
                          <path class="cls-43" d="M519.59,355.3l-.36-.45c.72-.04,1.03-.43,1.09-.45,6.61-.57,13.06-2.36,18.88-5.54-5.37,4.75-12.74,5.79-19.6,6.44Z"/>
                          <path class="cls-43" d="M541.28,352.03l-2.72,2.9c-8.5,4.15-.06-.44,2.72-2.9Z"/>
                        </g>
                        <path class="cls-48" d="M535.93,361.29s-.35.36-.91.54c-.65.22-1.33.56-2,.73-.43.11-1.02.12-1.27.18l4.18-1.45Z"/>
                      </g>
                    </g>
                    <g>
                      <path class="cls-54" d="M550.63,387.25c-.09.03-.25-.01-.36,0,0-.05-.37-.95-.36-1,.45-7.51-.32-6.82-1.27-11.07-.2-.88-.16-2.33-.36-3.09-2.73-9.99-6.34-11.58-6.53-12.25-.01-.05,0-.13,0-.18,0-.99,1.2-.94,1.27-1,.19-.15-.04-2.95,2.72,1.45,1.8,2.87,5.56,12.95,2.18,2.72l-4.18-6.81c.11-.23.12-.31.18-.54,9.33,7.65,7.74,21.08,6.72,31.77Z"/>
                      <path class="cls-29" d="M533.02,362.56c-.14,1.07.22,1.64.18,1.72-.07.15-.91.21-1.09.27-.25-1.88-3.1-1.35-4.45-.91-1.21.4-.76.4-.82,2l-.18.18c-.81-.12-1.57.14-2.36.18-.18,0-.36,0-.54,0l-2.9-1.63c.06,0-.11-.29,1.27-.18,2.68-.12,6.98-.82,9.62-1.45.25-.06.84-.07,1.27-.18Z"/>
                      <path class="cls-62" d="M520.86,364.38l2.9,1.63c-2.41.08-4.86-.21-7.26.18-.07-.05-1.03-.62-1.45-.91-.6-.4-1.19-.93-1.82-1.27,2.57.52,5.04.48,7.62.36Z"/>
                      <path class="cls-7" d="M550.27,387.25c-.06,1.08-1.43,2.63-2.36,3.09.91-.9,1.16-1.39,1.45-2.63,1.14-4.83-.61-8.07-1.82-12.53-.05-.19.15-1.53-.54-3.81-.1-.33-2.71-6.06-2.9-6.35-1.02-1.54-2.48-2.2-2.54-2.36-.18-.5.36-1.35-.54-2.09.28-.12.6-.45.73-.73.19.68,3.81,2.26,6.53,12.25.21.75.17,2.21.36,3.09.95,4.25,1.72,3.56,1.27,11.07,0,.05.37.95.36,1Z"/>
                      <path class="cls-65" d="M541.73,359.66l-.73-.73c.58-.43,2.41-2.24,2.72-2.9l4.18,6.81c3.38,10.22-.38.14-2.18-2.72-2.76-4.4-2.54-1.61-2.72-1.45-.07.06-1.27,0-1.27,1Z"/>
                      <path class="cls-14" d="M541.01,358.93l.73.73c0,.05-.01.13,0,.18-.13.28-.45.6-.73.73-.05.02-.13-.02-.18,0l-.91-1.09c1.35-.84,1.03-.5,1.09-.54Z"/>
                      <path class="cls-37" d="M539.92,359.48l.91,1.09c-1.16.5-2.46.78-3.63,1.27-.04-.18-.27-.3-.18-.73.94-.43,2.02-1.09,2.9-1.63Z"/>
                      <path class="cls-65" d="M537.01,361.11c-.09.43.14.55.18.73.01.06-.01.12,0,.18l-1.82.73c-.11-.32-.16-.62-.36-.91.56-.19.86-.53.91-.54,1.33-.53,1.04-.16,1.09-.18Z"/>
                      <path class="cls-62" d="M532.11,364.56c-1.49.49-3.67.79-5.26,1.09.06-1.6-.4-1.6.82-2,1.35-.44,4.2-.97,4.45.91Z"/>
                      <g>
                        <path class="cls-54" d="M540.83,360.57c.05-.02.13.02.18,0,.9.74.37,1.59.54,2.09.06.16,1.52.82,2.54,2.36.19.29,2.8,6.02,2.9,6.35.69,2.28.49,3.63.54,3.81,1.21,4.46,2.96,7.7,1.82,12.53-.29,1.25-.54,1.73-1.45,2.63-.15.15-.68.7-.73.73-.02.01-.19.09-.36.18-.05.03-.85.28-1.09.36-2.42.88-5.37,1.14-7.81.18-3.73-1.46-9.77-10.08-12.34-13.43-.02-.03-.03-.11-.36-.54-2.48-4.17-4.86-8.56-8.71-11.62,2.4-.39,4.85-.1,7.26-.18.18,0,.36,0,.54,0,4.87,3.56,6.67,15.25,8.35,17.7,3.04,4.41-2.15-8.9-2.72-11.07-.96-2.89-3.44-5.17-3.27-6.81l.18-.18c1.59-.3,3.77-.6,5.26-1.09.18-.06,1.02-.12,1.09-.27.03-.08-.32-.65-.18-1.72.66-.17,1.34-.51,2-.73.2.29.26.59.36.91,1.54,4.6,3.85,8.85,5.63,13.34.81,2.04,2.86,10.74,3.99,7.81-1.9-3.95-2.07-8.45-3.63-12.53-1.22-3.2-3.18-5.28-4.18-9.35-.01-.06.01-.12,0-.18,1.17-.49,2.47-.77,3.63-1.27Z"/>
                        <path class="cls-65" d="M535.38,362.74l1.82-.73c.99,4.06,2.95,6.15,4.18,9.35,1.56,4.08,1.73,8.57,3.63,12.53-1.13,2.94-3.19-5.77-3.99-7.81-1.78-4.5-4.08-8.74-5.63-13.34Z"/>
                        <path class="cls-7" d="M526.67,365.83c-.17,1.63,2.31,3.91,3.27,6.81.57,2.17,5.76,15.48,2.72,11.07-1.68-2.45-3.48-14.14-8.35-17.7.79-.04,1.55-.3,2.36-.18Z"/>
                        <path class="cls-7" d="M532.02,366.92c4.05,6.08,6.12,13.24,7.9,20.24.08.6-.42.8-.91.54.33-3.87-7.97-20.3-6.99-20.78Z"/>
                        <path class="cls-7" d="M516.5,366.19c3.86,3.05,6.23,7.45,8.71,11.62-1.86-2.43-7.57-11.52-10.17-11.8v-.73c.42.28,1.39.85,1.45.91Z"/>
                      </g>
                    </g>
                  </g>
                  <g>
                    <path class="cls-24" d="M532.66,289.23c-.46.79-.71.69-1.27.73-3.13.22-4.88-6.13-4.54-3-1.09.95-.94-1.57-1.72-2.81-.56-.1.95,2-3.99-1.45-.53,3.96,5.09.9,4.36,7.44-2.52-.22-1.21-.61-2.36-2.18-.3.02-.29,4.59-1.82-2.36l-.91,1.27c-.48-.03-2.35-3.97-1.63-1.09-1.8-.32-1.8-2.7-2.72-3.09-.22-.09-1,.69-1.91-.82,2.08-1.02-.51-.81,2.72-1.82-.92-.6-2.59-1.11-3.27,0-.67,1.1.55,1.65-.36,2.72,3.69,1.06,4.79,2.45.09,1.18-.25,2.28.68.91,2.36,1.45.76.25,6.5,4.48,6.63,4.99.2.83-.67.74-.73,1.45,1.92-.18,1.79.03,3.09,2,.65.99,1.6,2.56,1.09,3.54-.15.29-1.28.5-.91,2.9-.62,1.04-.13-2.3-.18-2.45-.42-1.22-5.82-1.05-4.9-4.27.08-.29-.19-.78.27-.73,5.2,3.74,3.78,1.98-.64-1.36,1.73-2.61.53-1.23-1.82-.64-.32-.58-.27-1.11-.54-1.72,3.58-.44-.14-1.48-2.36-.18,3.92,1.1.83,2.83-2.54.18-.04-.53,2.72-1.32,3.09-2-.98-2.09-7.19,1.12-3.27-1.82l-.27-.27c-1.94,1.58-6.22.37-1.54,1.91-5.55,2.09-2.5-3.54-2.81-3.72-.62-.35-3.41,7.7-6.17,1.09-1.16,4.15-1.77,6.57-4.08,10.35-.14-.93-.47-2.86-.36-3.81,2.9-.2,1.23-4.21.73-2.54.06-.19-.07-.91.18-1.54.33-.84,1.72-1.62,2.18-2.18.17-.21,1.39-3.94,3.99-2.63.07.03.63,1.16,1.18.91.2-.09-.18-1.12,2.81-3.27.06-.04.23-.66.64-.91,1.76-1.06,4-.14,4.54-.18.08,0,.58-.61,1.45-.73,2.09-.29,2.4.7,2.54.73.67.11,1.25-.34,2.54,0,.91.24,1.88,1.42,2,1.45.16.04,1.29-.84,3,.64.15.13.56,1.24.82,1.36.08.04.78-.35,1.82.18.92.47,1.45,2,1.54,2.09.64.63,1.58.9,2,1.45.72.96.66,2.6.73,2.72.07.13.72.18,1.27.82Z"/>
                    <path class="cls-60" d="M517.59,290.86s-.01.22,0,.36c-2.68,1.57-1.47,1.85,1,2.9l.45-.91.73.36c-.91,3.22,4.48,3.04,4.9,4.27.05.15-.44,3.49.18,2.45h.18l.36.73c-.72.87-1.35,2.5-1.45,3.63-2.09,2.84-1.85,9.13-3.09,3.45-.17-2.3,1.13-5.77,1.09-6.08-.1-.81-6.68-9.57-11.53-11.35-3.44-1.26-5.5-.12-5.26-2.36-3.32,2.75-5.96,3.37-6.81,8.26,1.15-1.22,2.65-1.92,3.45,0-.04.37-3.39-.63-3.63,3.18-.57-2.7-.57-3.8-.73-4.81-.02-.15-.36-.25-.36-.27,2.31-3.78,2.92-6.2,4.08-10.35,2.76,6.62,5.55-1.44,6.17-1.09.32.18-2.73,5.81,2.81,3.72-4.68-1.54-.4-.33,1.54-1.91l.27.27c-3.93,2.94,2.28-.28,3.27,1.82-.37.67-3.13,1.46-3.09,2,3.37,2.65,6.46.92,2.54-.18,2.22-1.29,5.94-.26,2.36.18.27.61.23,1.14.54,1.72Z"/>
                    <path class="cls-35" d="M536.47,296.12c.78,1.17.74,4.24,1.09,4.81.07.11.71.25,1.09.64-.6-.32-.47,3.47.27,3.99.14.1,1.58.19,1.72.64.16.51-1.14,1.25,1.18,5.17,3.09-2.81-.17-3.31-.27-3.54-.04-.09-.32-1.93,0-1.54.95.66,1.43.08,2.18.82,1.27,1.27.29,3.63.36,3.81.12.3,4.75,1.28,1.82,4.81-.34-1.42.66-3.34-2.45-4.36-2.87,2.21-.31,2.12,1.36,3,.37,1.02-.91,1.67-.91,1.82,0,.13,1.25.98,1.82,1.63.73.84-.1,1.84,2,1.27.16,1.94-1.01,1.85-2.54,1.36-.3-.18-.56-.43-.91-.54-.08-.23.32-.57.18-1-.31-.94-1.34-1.4-1.63-2-.6-1.19-.73-4.43-2.54-3.45,2,2.18.46,4.36,3.81,5.99-2.36.45-.26,1.95.91,3.9-.63,1.73-2.43,1.11-3.27-.18-1.83-2.81.14-8.69-1.54-5.81l-.27-.45c.95-2.83-.39-3.79-.36-3.99.14-1.1,2.04,1.16,0-4.36l-.45-.27c-1.17,1.51-1.85,1.01-2,1.09-3.17,1.75,3.11,2.29.54,4.18-.47-2.46-3.13-2.17-3.18-2.45-.27-1.73,2.66-2.89-2.9-3.81,1.98-.68,1.68.9,2.81-1.54,2.04,2.97.65,3.5,3.45,3.09,1.03-3.42-1.31-5.06-1.36-5.35-.26-1.46,1.81-2.51-.45-2.09-1.36-3.28,1.16-3.62-.45-5.17l.91-.09Z"/>
                    <path class="cls-24" d="M545.91,315.73c.04.15-.28.24-.18.45.12.26,2.7,1.54,2.36,3.81-.85,1.44-1.69,1.17-2.9.45,1.53.48,2.7.58,2.54-1.36-2.1.57-1.26-.43-2-1.27-.57-.66-1.82-1.51-1.82-1.63,0-.14,1.28-.79.91-1.82-1.67-.87-4.23-.79-1.36-3,3.11,1.01,2.11,2.94,2.45,4.36Z"/>
                    <path class="cls-24" d="M538.65,301.57s.47-.03.91.64c.6.91.53,3.06,2,4.08-.32-.38-.04,1.46,0,1.54.1.23,3.36.73.27,3.54-2.32-3.92-1.02-4.67-1.18-5.17-.14-.45-1.58-.54-1.72-.64-.75-.52-.87-4.32-.27-3.99Z"/>
                    <path class="cls-24" d="M544.28,319.9c.39,1.23,1.4,1.58.73,3.45-1.17-1.95-3.27-3.45-.91-3.9-3.35-1.63-1.82-3.81-3.81-5.99,1.81-.98,1.94,2.26,2.54,3.45.3.59,1.32,1.06,1.63,2,.14.43-.26.76-.18,1Z"/>
                    <path class="cls-24" d="M535.02,294.85c-.81.78-1.66-.17-2,1.09-.12-.01-.7-.34-.73-.36.05-.69,1.2-2.11,1.09-2.63-.03-.15-1.96-1.87-2.18-2.27l.18-.73c.56-.04.81.07,1.27-.73,2.03,2.33.89,2.09,1.27,3,.07.16.68.54.91,1.09.14.33.15,1.47.18,1.54Z"/>
                    <path class="cls-24" d="M507.79,279.61c-2.99,2.14-2.61,3.18-2.81,3.27-.55.25-1.11-.87-1.18-.91.87-1.88,1.9-2.59,3.99-2.36Z"/>
                    <path class="cls-24" d="M496.72,290.86c.1-.92.85-1.87.91-2.09,0-.02-.27-.15-.18-.45.51-1.66,2.17,2.34-.73,2.54Z"/>
                    <path class="cls-60" d="M529.03,298.48c.37,1.22,2.1,1.21,2.9,2.09.13,1.16-1.21-.82-2.54.18,1.94,2.57-.49,3.76-.54,3.99-.09.38.36.25.36.27.44,1.81.69.6.91,1,.18.35-1.25.59.18,1-.28.41-.62.44-.91.82,4.13.94-1.44.72-1.45,2.9.62,1.09,1.61.71,2.54.82.59.54-.17.76-.18.91-.06.87.37,1.12.36,1.18-.05.35-1.47.6-2,2.09-.68,1.92.91,1.14,2.54,2.54.01,0,.17.17.18.18,1.78,2.06-1.65.07,2,3.27-1-.75-1.21-.69-1.27-.73-.61-.4-1.53-1.61-2.27-1.45-.55.12-1.76,2.75-2.63,2.9.67-1.19,2.65-2.94,1.63-2.9-.2-.35-.79-.41-1.09-.54-.52-.23-2-.56-2.18-.82-.23-.33-1.44-7.14-1.45-7.9-.01-1.02.14-1.11.36-2,.13-.51.81-1.96,1.09-2.81.1-.32-.11-1.2,0-1.45.11-.26.61-.23,1.09-.64.03-.03.3.04.73-.36,1.13-1.05,1.57-2.72,1.09-4.18l.54-.36Z"/>
                    <g>
                      <path class="cls-60" d="M506.88,318.27c2.09.32,7.36-1.46,9.44-2.36v.18c.39,2.65,1.09,4.03-.73,5.99-.43.47-.34.8-.45.91-.11.1-.52.03-1.18.54-.3.24-.65.33-.91.54-1.73.11-1.2.68-1.27.73-.27.17-.62.37-.91.54-1.52.93-2.07.86-2.18.91-1.46-.9-.84.26-.91.36-.41.64-4.62,3.64-5.63,4.36.5-3.15-.34-1.82-.82-2.36-1.48-1.66-.58-3.7-.64-3.9-.02-.09-1.1-.63-1.27-1.45-.46-2.19,1.43-4.29,1.45-4.54.04-.44-.7-1.66-.73-2.18-.04-.69.56-1.89.54-2-.01-.09-.93-.81-1.09-1.45-.08-.33.07-.96,0-1.36,1.56,2.51,4.17,6.06,7.26,6.53Z"/>
                      <path class="cls-41" d="M508.7,326.26c-.06.03-.46.77-.91.36.06-.1-.55-1.26.91-.36Z"/>
                    </g>
                    <path class="cls-35" d="M531.39,289.95l-.18.73c-3,.99-.43,2.14,0,2.81.55.85.54,1.6,1.09,2.09.03.03.6.35.73.36-.08.3.03,1.88.18,2.09,3.27,1.62-1.27.13-2.36.36.85-7.4-3.61-4.53-3.36-7.35,2.33,1.4,1.27-1.3-1.27-3.45.4,5.04-.06,2.04-2.27,3.72.38.49,1.32,2.09,1.72,2.27,1.26.57,2.95-.42,3,.09l-1.45,1.45c2.1-.16.17,2.63,2.63.45,1,1.26-1.23,1.58-.82,2.9l-.54.36c-.33-.99-1.64-1.91-2.72-1.45.51-.98-.44-2.55-1.09-3.54-1.29-1.97-1.17-2.17-3.09-2,.05-.71.92-.62.73-1.45-.12-.51-5.87-4.74-6.63-4.99-1.68-.55-2.61.83-2.36-1.45,4.7,1.28,3.6-.12-.09-1.18.92-1.07-.3-1.62.36-2.72.67-1.11,2.35-.6,3.27,0-3.23,1.01-.65.8-2.72,1.82.91,1.51,1.69.73,1.91.82.93.39.92,2.76,2.72,3.09-.71-2.88,1.16,1.06,1.63,1.09l.91-1.27c1.52,6.95,1.52,2.38,1.82,2.36,1.15,1.56-.16,1.95,2.36,2.18.74-6.54-4.88-3.48-4.36-7.44,4.94,3.45,3.43,1.35,3.99,1.45.78,1.25.64,3.76,1.72,2.81-.34-3.14,1.41,3.21,4.54,3Z"/>
                    <path class="cls-24" d="M519.77,293.58l-.73-.36c.06-.93-.43-1.86-1.45-2-.01-.14.02-.32,0-.36,2.35-.59,3.54-1.98,1.82.64,4.41,3.34,5.83,5.1.64,1.36-.46-.06-.19.43-.27.73Z"/>
                    <g>
                      <path class="cls-24" d="M533.02,295.94c.34-1.26,1.19-.31,2-1.09.14.29,1.04.65,1.45,1.27l-.91.09c1.61,1.55-.9,1.89.45,5.17,2.26-.42.19.63.45,2.09.05.29,2.39,1.94,1.36,5.35-2.8.42-1.41-.11-3.45-3.09-1.13,2.44-.84.86-2.81,1.54,5.56.92,2.63,2.08,2.9,3.81.04.28,2.7-.01,3.18,2.45,2.56-1.89-3.71-2.43-.54-4.18.14-.08.83.42,2-1.09l.45.27c2.04,5.52.14,3.26,0,4.36-.03.21,1.31,1.16.36,3.99l.27.45c1.68-2.88-.29,3,1.54,5.81-.22-.02-.17.18-.18.18-.8.37.37.84-.27,2.18-4.73-.77-.99-2.71-1.54-3.9-2.63-.29-1.21-1.87-1.27-2.18-.35-1.91-1.99-2.55-3.81-2.36l1.45-2c-.13-.25-4.16,1.47-1.45-3.27-1.74,1.27-2.95-.57-3.72-.64-.08,0-.42.37-.45.36-.93-.11-1.93.27-2.54-.82.02-2.18,5.59-1.97,1.45-2.9.29-.38.63-.41.91-.82,1.01-1.47.96-2.95,4.81-1.45,2.44,3.94,2.08,1.7.82-.09-.45-.65-1.45-.8-1.45-1.09,0-.07.81-.68.91-1.09.75-3.09-3.17-4.9-3.09-3.63,1.8,1.56-1.1,2.05,1.82,3.09-.1,2.65-2.38,1.49-2.63,1.54-.12.02-.86.92-2.27.73,0-.02-.45.11-.36-.27.05-.23,2.49-1.42.54-3.99,1.33-1.01,2.68.98,2.54-.18-.8-.88-2.53-.87-2.9-2.09-.41-1.33,1.82-1.64.82-2.9-2.47,2.18-.53-.62-2.63-.45l1.45-1.45c-.04-.51-1.74.48-3-.09-.4-.18-1.35-1.78-1.72-2.27,2.21-1.69,2.67,1.32,2.27-3.72,2.54,2.15,3.6,4.85,1.27,3.45-.25,2.83,4.21-.05,3.36,7.35,1.09-.24,5.63,1.26,2.36-.36-.15-.2-.26-1.79-.18-2.09Z"/>
                      <path class="cls-24" d="M530.3,307.02c-1.43-.41,0-.65-.18-1-.21-.4-.47.82-.91-1,1.41.19,2.15-.7,2.27-.73.25-.05,2.53,1.11,2.63-1.54-2.92-1.04-.02-1.53-1.82-3.09-.08-1.27,3.84.54,3.09,3.63-.1.41-.91,1.02-.91,1.09,0,.29,1,.44,1.45,1.09,1.26,1.79,1.63,4.03-.82.09-3.86-1.5-3.8-.02-4.81,1.45Z"/>
                      <path class="cls-35" d="M532.02,309.56c3.53-.27-1.55,1.91-1.72,1.36-.41-.83,1.56-1.35,1.72-1.36Z"/>
                    </g>
                    <path class="cls-24" d="M517.59,291.22c1.02.14,1.51,1.07,1.45,2l-.45.91c-2.47-1.06-3.67-1.33-1-2.9Z"/>
                    <path class="cls-24" d="M531.39,318.45s-.17-.17-.18-.18c.5-2.96-1.59-1.63-2.54-2.54.53-1.49,1.94-1.74,2-2.09,0-.06-.42-.31-.36-1.18,3.08-.73,3.49,6.02,1.09,5.99Z"/>
                    <g>
                      <path class="cls-35" d="M541.55,323.35c.7,2.77-.92,4.09-3.45,2.54-.71-.44-3.35-3.15-4.72-4.18-3.64-3.2-.22-1.2-2-3.27,2.4.03,1.99-6.72-1.09-5.99.01-.15.77-.37.18-.91.03,0,.37-.37.45-.36.77.06,1.98,1.91,3.72.64-2.7,4.74,1.32,3.02,1.45,3.27l-1.45,2c1.82-.19,3.46.45,3.81,2.36.06.31-1.36,1.88,1.27,2.18.56,1.19-3.19,3.13,1.54,3.9.64-1.34-.53-1.81.27-2.18Z"/>
                      <path class="cls-24" d="M536.38,318.63c2.33-.25,1.65,2.02-2,1.63-1.42-.5,1.76-1.61,2-1.63Z"/>
                      <path class="cls-24" d="M535.29,317.73c2.65-.11-2.55,2.53-1.63.18.56.53,1.55-.18,1.63-.18Z"/>
                    </g>
                    <path class="cls-24" d="M532.3,295.58c-.55-.49-.54-1.24-1.09-2.09-.43-.67-3-1.82,0-2.81.22.4,2.15,2.12,2.18,2.27.11.53-1.04,1.94-1.09,2.63Z"/>
                    <path class="cls-35" d="M531.21,318.27c-1.64-1.4-3.22-.62-2.54-2.54.95.91,3.04-.42,2.54,2.54Z"/>
                  </g>
                  <g>
                    <path class="cls-23" d="M531.02,342.59c-1.66,2.42-6.21,6-8.71,7.44-.99.57-2.06.97-3.09,1.45-4.18.41-5.04.63-9.26-.73-2.76-.89-12.55-5.67-13.61-8.17-.45-1.07-.68-2.98,0-3.99.11.67.35.99.82,1.45,1.23,1.19,15.38,6.68,17.43,6.9,5.23.55,12.23-1.08,16.43-4.36Z"/>
                    <path class="cls-23" d="M511.78,324.8c-.08.62.17.52.18.54.69,2.43-3.11,9.48-.54,8.53-.04.12.1.37-.18.36-.05-.04-1-.44-1.27-.27-.28.18-2.85,4.93-3.63,5.54-2.83-1.07-6.21-2.18-8.17-4.63-2.4-3,.22-.16,2.45.09,2.4.27,5.75-1.03,7.62-2.54,3.13-2.52,2.12-3.48,2.63-7.08.29-.18.64-.37.91-.54Z"/>
                    <path class="cls-2" d="M528.85,319.54c-3.66,3.96-6.36,9.06-6.53,14.52-.36.7-.88,1.33-1.27,2-.61.08-1.2.14-1.82.18,2.14-2.94,2.67-6.65,4.18-9.89,1.21-2.61,3.05-4.8,4.36-7.35.3.13.89.19,1.09.54Z"/>
                    <g>
                      <path class="cls-55" d="M532.11,320.99c.06.04.27-.02,1.27.73,1.37,1.03,4,3.74,4.72,4.18.49,1.86.42,4.5,0,6.35-.05.24-.7,1.67-.91,2.18-1.02,2.44-4.09,6.54-6.17,8.17-4.2,3.27-11.2,4.9-16.43,4.36-2.04-.21-16.2-5.71-17.43-6.9-.47-.46-.71-.78-.82-1.45-.19-1.16.47-3.75.27-3.81-.27-.08-2.01,4.89-2.09,5.26-.97-.29-1.87-3.88-2.27-3.99-.1-.03-1.03.66-1.91.73-2.39.18-3.32-1.62-1.27-1.54l-1.09-.45c.07-.32-.25-.4-.18-.73.06-.3.12-.62.18-.91,1.91-1.05,6.73-1.4,4.54-4.54-.92-1.31-2.38-1.3-3.81-.91-.29-3.15-1.99-3.72-4.36-5.26.06.02.19-.41,1.36,0,.87.3,10.3,5.54,11.98,6.53,1.84,1.09,3.41,2.68,3.63,2.72.73.13.77-.69.82-.73,1.01-.71,5.22-3.72,5.63-4.36.45.4.85-.34.91-.36.11-.05.66.02,2.18-.91-.51,3.6.49,4.56-2.63,7.08-1.87,1.51-5.22,2.81-7.62,2.54-2.24-.25-4.85-3.09-2.45-.09,1.96,2.44,5.34,3.55,8.17,4.63,1.36.52,9.75,3.32,10.44,3.09.37-.13,3.8-5.74,4.27-6.53.39-.67.91-1.3,1.27-2,.57-1.1,1.15-2.12,1.63-3.27,2.2-3.71,4.4-7.43,8.17-9.8Z"/>
                      <path class="cls-14" d="M490.82,333.16c.33-.08,2.03-.11,1.91.27-3.17,1.55-3.82.17-1.91-.27Z"/>
                      <path class="cls-52" d="M493.54,331.7c2.55-.19,4.36,1.56,1.63.36-3.42.25-3.96-.19-1.63-.36Z"/>
                    </g>
                    <path class="cls-23" d="M514.69,325.89c.33-1.25.52-2.57.91-3.81,1.82-1.96,1.12-3.34.73-5.99,1.09-.22,2.22-.33,3.27-.73-.06,1.63.59,8.94.36,9.53-.35.91-4.3,1.53-5.26,1Z"/>
                    <g>
                      <path class="cls-23" d="M523.94,304.66c-.08.89-.06,3.2.54,3.63-.22.89-.37.98-.36,2-.32.18-.56.61-.73.91-2.17,1.95-4.4,3.55-7.08,4.72-2.08.9-7.35,2.68-9.44,2.36.33-.49-.68-1.22.09-1.82.66-.52,9.12-.42,13.89-8.35,1.24,5.68.99-.61,3.09-3.45Z"/>
                      <g>
                        <path class="cls-55" d="M520.86,308.1c-4.77,7.93-13.22,7.83-13.89,8.35-.77.6.24,1.33-.09,1.82-3.09-.48-5.7-4.02-7.26-6.53-.42-2.47-1.39-5.3-.91-7.99.95,2.58,3.78,2.64,3.99-.27-.55-.78-1.97,3.32-4.18-1-.09-.45-.01-1.05-.36-2.72.24-3.81,3.59-2.81,3.63-3.18-.8-1.92-2.3-1.22-3.45,0,.85-4.89,3.49-5.51,6.81-8.26-.23,2.24,1.82,1.1,5.26,2.36,4.85,1.77,11.42,10.53,11.53,11.35.04.31-1.26,3.78-1.09,6.08Z"/>
                        <g>
                          <path class="cls-33" d="M498.71,303.75c-.2-.55-.11-.94-.18-1.27,2.2,4.32,3.63.22,4.18,1-.21,2.91-3.04,2.85-3.99.27Z"/>
                          <path class="cls-57" d="M515.69,302.3c.22,3.29-5.96,4.13-7.17,1,.19-.34,3.86,2.18,7.17-1Z"/>
                          <path class="cls-60" d="M509.51,293.4c1.81-.36,3.85,1.16,3.54,1.72-3.32-.69-5.14,1.18-5.35,1-.6-.97,1.04-2.57,1.82-2.72Z"/>
                          <path class="cls-53" d="M503.16,307.56c.19-.12,1.13,2.41,3.81.18.45,2.82-4.37,2.8-3.81-.18Z"/>
                          <g>
                            <path class="cls-9" d="M505.25,311.92c1.27.11,1.87.71,3.99,0-.1.55-.71,1.58-1.09,2l-2.72.18c-2.6-2.12-2.51-2.39-.18-2.18Z"/>
                            <path class="cls-53" d="M508.15,313.91c-2.14,2.37-2.58.29-2.72.18l2.72-.18Z"/>
                            <path class="cls-16" d="M509.24,311.92c-2.13.71-2.73.11-3.99,0,.88-1.02.76.29,2.81,0,.63-.09,1.43-1.46,1.18,0Z"/>
                          </g>
                          <path class="cls-53" d="M504.43,289.59l.45.09c-2.52,2.41-2.77,1.85-.45-.09Z"/>
                        </g>
                      </g>
                      <path class="cls-55" d="M528.48,298.85c.49,1.45.04,3.13-1.09,4.18.42-2.95.08-6.14-2.36-2.72h-.18c-.37-2.4.76-2.62.91-2.9,1.08-.46,2.39.46,2.72,1.45Z"/>
                      <path class="cls-11" d="M523.4,311.19c-1.14,2-1.45,3.28-3.81,4.18-1.05.4-2.18.5-3.27.73v-.18c2.68-1.16,4.91-2.77,7.08-4.72Z"/>
                      <path class="cls-55" d="M526.67,303.38c-.48.41-.98.37-1.09.64-.11.25.1,1.13,0,1.45-.28.85-.96,2.31-1.09,2.81-.6-.43-.62-2.74-.54-3.63.1-1.13.73-2.76,1.45-3.63,1.93-2.32,2.19.91,1.27,2.36Z"/>
                      <path class="cls-36" d="M527.39,303.02c-.43.4-.7.34-.73.36.91-1.45.66-4.68-1.27-2.36l-.36-.73c2.44-3.42,2.78-.23,2.36,2.72Z"/>
                    </g>
                    <g>
                      <path class="cls-11" d="M490.36,336.79c.56,2.15,1.71,4.06,3.27,5.63-.07,0-.58.5-1.36.36-.31-.05-2.57-1.89-5.54-2.72.03-.08.07-.37.18-.73,1.09-.52,1.59-1.08.36-1.82.2-.78.37-1.58.54-2.36,0-.02.07.15.18-.36l1.09.45c-2.05-.07-1.11,1.73,1.27,1.54Z"/>
                      <path class="cls-23" d="M494.54,340.05c-.07.3-.33.02-.36.45,0,.11.54.7.36,2.09-.27-.02-.42-.15-.91-.18-1.55-1.57-2.71-3.47-3.27-5.63.87-.07,1.81-.75,1.91-.73.4.11,1.3,3.71,2.27,3.99Z"/>
                      <path class="cls-23" d="M496.35,338.6c-.68,1.01-.45,2.92,0,3.99-.56.38-1.05.04-1.82,0,.18-1.38-.37-1.98-.36-2.09.04-.43.3-.15.36-.45.08-.37,1.82-5.34,2.09-5.26.2.06-.46,2.65-.27,3.81Z"/>
                      <path class="cls-26" d="M486.91,339.33c.03-.09.1-.78.36-1.82,1.22.73.73,1.3-.36,1.82Z"/>
                    </g>
                    <path class="cls-55" d="M527.76,319c-1.3,2.55-3.15,4.74-4.36,7.35-1.51,3.24-2.03,6.96-4.18,9.89-1.45.09-2.9.15-4.36,0-1.59-1.07-1.01-3.27-1.82-4.36.5-2.01,1.11-3.99,1.63-5.99.97.53,4.92-.09,5.26-1,.22-.59-.42-7.9-.36-9.53,2.36-.89,2.68-2.18,3.81-4.18.17-.3.41-.72.73-.91,0,.76,1.22,7.57,1.45,7.9.18.25,1.66.59,2.18.82Z"/>
                    <path class="cls-2" d="M514.87,336.24c-1.35-.14-1.67-.05-2.9-.91.64-.68.83-2.43,1.09-3.45.81,1.09.23,3.28,1.82,4.36Z"/>
                  </g>
                </g>
                <g>
                  <g>
                    <g>
                      <path class="cls-58" d="M444.53,371.64c.55-.06,4.15,9.09-.91,9.26-3.52-2.53-1.11-6.49.91-9.26Z"/>
                      <g>
                        <path class="cls-58" d="M437.72,375.45c-.36,1.96,2.38,3.58,3.54,5.63.93-.78.18-1.37.64-1.82.47,1.63-.47,1.29-.36,2.72-.12,0-.24.01-.36,0-2.22-.21-4.45-3.58-4.36-6.26.04-1.03.1-.58.91-.27Z"/>
                        <path class="cls-58" d="M441.9,379.26c-.45.44.29,1.03-.64,1.82-1.16-2.04-3.9-3.66-3.54-5.63,1.17.45,3.82,2.58,4.18,3.81Z"/>
                      </g>
                    </g>
                    <path class="cls-25" d="M462.41,397.78c-.12,1.41-.94.86-2.18,1.09-.26-.47-1.65-.54-2.54-.91l.18-.91c1.47.56,2.97.84,4.54.73Z"/>
                    <g>
                      <path class="cls-14" d="M435.54,385.8c.2.23-.19.72,1.45,1.27,1.05.35,3.35.57,4.54.54.25.89,1.59,2.5,2,3.45-.99.01-1.27.11-2.18.36-.31-.8-4.04-2.81-4.18-2.09.62,2.2.17,2.32,2.54,2.81-.53.24-.98.82-1.63,1.09-2.09.88-1.84-.48-2-.54,1.39-1-1.52-1.13-2.36-1.09-.42-2.44-.36-4.06,1.27-5.99.16-.04.48.1.54.18Z"/>
                      <path class="cls-14" d="M459.32,387.98c1.28.77,1.19,1.23,1.27,1.27l-.54.36c-.23-.21-.63-.26-.91-.36-3.28-1.22-5.98,1.69-5.08,4.9-.03,0-.45.18-.54.18-.25-.25-.66-.47-.91-.73-1.51-1.54-.88-2.42-3.45-1.09-.43-.29-1.04-.34-1.09-.36-.19-.09-.65-.47-.91-.54-.5-1.27-.79-2.64-.73-3.99.21.09,2.27.28,3.63,1.72-2.43,2.35.78.88,2.36.73-2.66-2.88-4.58-4.85-.09-1l2.18-2.18c1.54,2.95,3.72,2.17,1.91-.91.85.82,1.26,1.76,1.36,1.82.2.12,1.45.13,1.54.18Z"/>
                      <path class="cls-11" d="M446.43,387.61c-.07,1.35.22,2.72.73,3.99-1.17-.35-2.4-.56-3.63-.54-.4-.95-1.75-2.56-2-3.45,0-.03.49.17.36-.45-.03-.17-.89-1.26-.45-3.36,2.38,3.75,3.43,3.16,4.99,3.81Z"/>
                      <path class="cls-11" d="M436.99,387.07c-1.64-.55-1.25-1.04-1.45-1.27,6.79-3.83,7.02.75,1.45,1.27Z"/>
                      <g>
                        <path class="cls-52" d="M450.06,382.17c-1.83-.44,4.48,5.45,4.18,3.36l-3.99-3.36c.58-.02,3.7.34,4.08.54,1.77,2.15,3.71,2.17,4.99,5.26-.09-.05-1.34-.07-1.54-.18-.1-.06-.51-1-1.36-1.82-.43-.73-1.08-1.76-2-1.72.6.85,1.9,1.63,2,1.72,1.82,3.08-.36,3.86-1.91.91l-2.18,2.18c-4.49-3.85-2.57-1.88.09,1-1.58.16-4.79,1.63-2.36-.73-1.36-1.45-3.42-1.64-3.63-1.72-1.56-.65-2.61-.06-4.99-3.81-.43,2.1.42,3.19.45,3.36.12.63-.37.43-.36.45-1.19.03-3.49-.19-4.54-.54,5.57-.52,5.34-5.1-1.45-1.27-.07-.08-.38-.22-.54-.18,1.58-1.87,4.01-2.67,6.17-3.63.12.01.24,0,.36,0,.33,0,1.17-.43,6.44-.36.13,0,1.2-1.41,2.09.54Z"/>
                        <path class="cls-23" d="M450.06,382.17c.06,0,.12,0,.18,0l3.99,3.36c.31,2.1-6-3.8-4.18-3.36Z"/>
                        <path class="cls-19" d="M446.71,382.71c3.68.87,4.31,3.76.54.73-.21-.17-.81-.49-.54-.73Z"/>
                        <path class="cls-14" d="M456.42,385.98c-.1-.09-1.4-.87-2-1.72.91-.04,1.57,1,2,1.72Z"/>
                      </g>
                      <path class="cls-14" d="M452.61,393.6c.96,2.81-1.55,2.02-2.18,1.45,0,0,.04-.2-.18-.18.2-2.09-.36-1.74-.91-2.18-.16-.13-.17-.17-.18-.18,2.57-1.33,1.94-.45,3.45,1.09Z"/>
                      <path class="cls-36" d="M441.35,391.42c-.6.17-1.08.48-1.63.73-2.37-.49-1.92-.62-2.54-2.81.14-.73,3.86,1.29,4.18,2.09Z"/>
                    </g>
                    <g>
                      <path class="cls-3" d="M460.05,389.61c.13.12,2.1,2.74,2.18,2.9.38.77.31,1.07.36,1.82.04.57.03,1.24,0,1.82-.03.49-.14,1.11-.18,1.63-1.56.11-3.07-.16-4.54-.73-.24-.09-.5-.24-.73-.36-1.16-2.21-2.24-4.71.27-6.53.7-.51,1.9-.44,1.72-.91.28.1.67.15.91.36Z"/>
                      <path class="cls-44" d="M459.14,389.25c.18.47-1.02.4-1.72.91-2.51,1.82-1.43,4.32-.27,6.53-2.63-1.44-1.55-2.4-3.09-2.54-.9-3.21,1.8-6.12,5.08-4.9Z"/>
                    </g>
                    <path class="cls-51" d="M454.06,394.15c1.54.14.46,1.1,3.09,2.54.23.13.48.27.73.36l-.18.91c-3.26-1.34-3.86-3.31-4.18-3.63.09,0,.52-.18.54-.18Z"/>
                  </g>
                  <g>
                    <path class="cls-55" d="M444.44,320.45c-4.07,1.26-6.66,2.81-9.08,6.17l-2-.09c2.25-5.21,4.39-3.91,4.99-4.08,2.64-.76,1.75-1.71,3.54-3.09.06.58,2.35,1.26,2.54,1.09Z"/>
                    <path class="cls-49" d="M458.78,318.27c-.91.03-1.81.14-2.72.18-1.36-1.42-1.36-.04-1.45,0-.43.2-.65.24-1.09.36-.87-.26-3-1.13-1.72-2.18,3.15,2.81,1.93-1.25,2.18-1.45,1.81.45-.02,2.08,2.18,2.54,1.48.31,4.8-2.58,2.63.54Z"/>
                    <path class="cls-49" d="M470.03,318.81c-.4-.05-.63-.15-.91-.18-.9-3.44-1.48-3.56-2.9-.36-.07,0-.24.23-1.36.18-.08,0-1.12-.36-1.18-.36-.32-1.93,2.53.78,2.72-3,.58-1.01,3.7,1.85,3.63,3.72Z"/>
                    <path class="cls-49" d="M444.16,311.01c3.37,2.23-.83,6.39-2.09,1.72l.27-.27c3.16,2.58,1.24-1.36,1.82-1.45Z"/>
                    <path class="cls-49" d="M444.44,320.45c-.19.17-2.48-.51-2.54-1.09.86-.66,1.46-1.7,2.54,1.09Z"/>
                    <path class="cls-49" d="M447.16,319.72c-.25.39-.96.28-1.27.36-1.06-3.52-.29-2.9,1.27-.36Z"/>
                    <path class="cls-49" d="M449.97,311.19c1.81.43.31,3.38-.64,1.36l.64-1.36Z"/>
                    <path class="cls-20" d="M455.06,312.1c2.54.8-.68,2.64-.64.45l.64-.45Z"/>
                    <path class="cls-24" d="M437.27,317.54l.64.45c-.23,1.65-2.14.39-.64-.45Z"/>
                    <g>
                      <path class="cls-6" d="M436.27,326.44c-.47,3.5.47,2.42,2,1.45l.18.54c-.14.1-.61.55-.73.73-1.76.63,2.75,2.46,4.9,3.27-.46.74-3.32-1.42-3.27-.64,10.37,9.62,20.17,20.37,35.85,14.98,1.92-.66,4.19-2.5,5.54-2.54-1.07,1.21-2.03,2.49-3.27,3.54l3.09,1.18c-9.1,6.23-29.36,6.12-37.94-1.09,1.63-3.93-.28-3.84-2.18-8.44-.99-2.41-2.64-10.19-5.08-10.8v-.18c1.04.15.11-.55.36-1.36.26-.85.52-.6.54-.64Z"/>
                      <path class="cls-39" d="M435.36,328.62c2.44.61,4.09,8.39,5.08,10.8,1.89,4.6,3.81,4.51,2.18,8.44-4.81-4.05-5.78-10.93-7.08-16.7-.07-.33.09-.98,0-1.18-.32-.76-2.01-.41-2-1.18.2,0,1.42-.28,1.82-.18Z"/>
                      <path class="cls-39" d="M487.82,335.15c-.17.78-.35,1.58-.54,2.36-.26,1.03-.34,1.73-.36,1.82-.11.36-.15.64-.18.73-1.15,3.35-3.21,6.87-6.17,8.89l-3.09-1.18c1.24-1.05,2.2-2.33,3.27-3.54,2.77-3.14,4.96-5.67,6.99-9.44l.09.36Z"/>
                      <g>
                        <path class="cls-28" d="M487.46,329.89c-2.84,3.28-4.06,2.84-4.63,3.45-1.95,2.1,2.94,2.21,4.99.73-.07.32.25.41.18.73-.11.51-.18.34-.18.36l-.09-.36c-2.03,3.77-4.22,6.3-6.99,9.44-1.35.04-3.62,1.88-5.54,2.54-15.68,5.39-25.48-5.36-35.85-14.98-.05-.78,2.81,1.37,3.27.64,5.39,2.01,11.52,2.93,17.24,3.09,1.84.05,3.61-.11,5.45-.18,6.7-.28,16.6-1.26,21.96-5.45h.18Z"/>
                        <path class="cls-59" d="M492.54,328.62c.21,2.27-3.74,1.93-4.18,2.63-.05.08-.29,1.58-.36,1.91-.07.29-.12.61-.18.91-2.05,1.48-6.94,1.37-4.99-.73.57-.61,1.79-.17,4.63-3.45.83-.95.27-.12.91,0,1.12.22,1.81.16,2.9-.18,2.58-2.52-4-.89-2.54-2,1.44-.39,2.89-.4,3.81.91Z"/>
                      </g>
                    </g>
                    <g>
                      <path class="cls-6" d="M433,328.8c.18,0,.36,0,.54,0,0,.77,1.67.42,2,1.18.09.2-.07.85,0,1.18-1.59.17-5.79-1.07-4.18-3.27.28.2.69.99,1,1.09.58.18.6-.18.64-.18Z"/>
                      <path class="cls-8" d="M433,328.25v.54s-.06.36-.64.18c-.31-.1-.72-.89-1-1.09.14-.2.69-.48.91-.54-.07.32.51.87.73.91Z"/>
                      <path class="cls-10" d="M435.36,328.44v.18c-.4-.1-1.61.18-1.82.18-.18,0-.36,0-.54,0v-.54c.13.02,2.14-.62,2.36.18Z"/>
                    </g>
                    <g>
                      <path class="cls-6" d="M488,333.16c.07-.33.31-1.82.36-1.91.43-.7,4.38-.37,4.18-2.63,2.2,3.13-2.63,3.48-4.54,4.54Z"/>
                      <path class="cls-13" d="M491.27,329.71c-1.1.34-1.78.4-2.9.18.38-1.41,3.47-1.06,2.9-.18Z"/>
                    </g>
                    <path class="cls-32" d="M469.12,318.63c-.95-.11-1.97-.3-2.9-.36,1.42-3.19,2-3.07,2.9.36Z"/>
                    <path class="cls-38" d="M456.05,318.45c-.5.02-1.09.13-1.45,0,.09-.04.09-1.42,1.45,0Z"/>
                    <g>
                      <path class="cls-6" d="M484.37,322.45c2.37,1.54,4.07,2.12,4.36,5.26-1.45,1.1,5.12-.52,2.54,2,.57-.88-2.52-1.23-2.9.18-.63-.12-.08-.95-.91,0h-.18c-2.07-3.16-7.19-4.45-10.71-5.26-.06-.01-.25-.16-1.27-.36-1.72-.34-3.52-.56-5.26-.73-1.22-.12-2.41-.31-3.63-.36-7.55-.36-21.7.67-27.95,5.26l-.18-.54c4.78-3.01,7.95-4.16,13.61-5.08,9.93-1.62,28.49-1.56,35.85,6.35,1.53-3.69-2.89-5.81-5.72-6.9l-.36-.73c.91.28,1.83.59,2.72.91Z"/>
                      <path class="cls-43" d="M466.22,318.27c.93.06,1.96.26,2.9.36.27.03.51.13.91.18,5.35.69,6.78,1.26,11.62,2.72l.36.73c-8.68-3.34-20.83-3.54-29.95-2.36-4.3.56-13.5,2.42-15.79,6.53-.02.04-.28-.21-.54.64-.25.81.67,1.52-.36,1.36-.22-.8-2.23-.16-2.36-.18-.21-.03-.79-.59-.73-.91,1.13-.32,2.77-.09,3-.18.19-.08.04-.47.09-.54,2.42-3.37,5.01-4.91,9.08-6.17.32-.1,1.01-.25,1.45-.36.31-.08,1.02.02,1.27-.36,1.63-.18,5.01-.52,6.35-.91.43-.13.66-.17,1.09-.36.36.13.95.02,1.45,0,.92-.04,1.81-.15,2.72-.18,1.57-.05,3.36-.23,4.9-.18.06,0,1.1.36,1.18.36,1.13.05,1.29-.19,1.36-.18Z"/>
                      <path class="cls-17" d="M452.06,319.9c.01,1.04.51,1.98-.18,2.9-5.66.92-8.84,2.07-13.61,5.08-1.53.97-2.46,2.05-2-1.45,2.29-4.12,11.5-5.98,15.79-6.53Z"/>
                      <path class="cls-56" d="M482.01,322.26c2.83,1.09,7.24,3.21,5.72,6.9-7.36-7.91-25.92-7.97-35.85-6.35.69-.93.19-1.86.18-2.9,9.12-1.18,21.27-.98,29.95,2.36Z"/>
                      <g>
                        <path class="cls-5" d="M466.4,323.17c-2.51.61-6.61-.45-5.45.82-.77.52-.77,1.46.09,1.91.86-.48,5.58.17,5.81,0,.17-.13-.16-1.92,3.18-2.36,1.75.17,3.54.39,5.26.73-.79.64-3.61,2.63-4.45,2.18.81-3.98-4.37-2.18-3.36-.27,1.59,1.59,3.26.71,4.27.82.07,0,.85.54.91.54,2.15.09,6.77-.19,3.9-2.9,3.52.81,8.64,2.1,10.71,5.26-5.37,4.19-15.26,5.17-21.96,5.45v-.18c.57-.84-.52-.58-.73-1-.13-.25.19-.26.18-.27,4.27-.35,4.21.86,4.45.91,2.32.48,4.45-3.12,6.35-2.36.43.17.05,2.34,3.36.45.03-.26-4.54-3.13-1.54-3.36,3.28,5.19,4.98,1.38,5.81,1.27.7-.09,1.44,2.33-.27-3.72-1.19-.81-.85-.47-.91.82-.29-.04-.34-.35-.36-.36-2.11-1.04-9.07,1.68-2.72.73v.54c-2.03-.5-2.41.71-3,.91-2.06.69-1.56-.64-2.9-1.27-.25-.12-2.72-.45-3.09-.54-.09-.02.06-.84-.91-.54-.2.06.06.51-.27.54-.66-1.16-3.4-1.4-4.63-1.27-4.21.43-.99.73,3.18.91-3.81.13-4.06.2.18,3.36.28.67-2.31,1.6-2.45,1.54-1.01-.37,1.57-1.55-3.9-1.09-.15-.19-.5-.42-.73-.54-.42-.24-.65-.29-1.09-.45.27-.4.61-.17,1.09-.45.31,2.51,3.57-1.34,2.81-1.82-1.56-.39-2.57.8-3.81,1.27-1.04.4-2.22-.13-2.09.54-1.21-.01-.92.66-1.45,1.45-1.63-.64-5.75,1.01-4.9,2.54-.11-.02-.79.52-2.18-.09-.21-.43,1.57-.44.82-1.72-1.26.8-2.22.29-3,.36-.25-1.18-.25-1.77-1.63-1.82,3.13-2.93,3.42,2.5,6.9.64.25-2.47.81-.9,2.27-1.36.53-.17.41-.46.45-.54.03-.06-.01-.33,0-.54.01-.2-.06-.38.18-.36.95.56,3.85,1.08,4.18-.54.26.42.14.64.27.73,2.37-1.94.74-1.14.09-2.27-.12-.21-.35-2.17-1-2.45-.34-.15-6.92,1.12-7.26,1.27-1.3.57-.92,1.51-1.09,1.63-.1.07-1.71-1.05-2.18-1.09-1.16-.11-8.2,2.71-8.35,4.9-.99-.49-2.18-1.09-1.72-1.45.12-.18.59-.63.73-.73,6.25-4.6,20.4-5.62,27.95-5.26Z"/>
                        <path class="cls-31" d="M475.3,324.26c1.02.2,1.21.35,1.27.36,2.87,2.71-1.75,3-3.9,2.9-.05,0-.84-.54-.91-.54-1-.1-2.68.77-4.27-.82-1.01-1.91,4.17-3.71,3.36.27.84.46,3.66-1.54,4.45-2.18Z"/>
                        <path class="cls-49" d="M470.03,323.53c-3.33.44-3.01,2.23-3.18,2.36-.23.17-4.95-.48-5.81,0-.86-.45-.86-1.39-.09-1.91-1.16-1.27,2.93-.21,5.45-.82,1.23.06,2.41.24,3.63.36Z"/>
                        <path class="cls-21" d="M465.31,335.15v.18c-1.83.08-3.6.23-5.45.18-.17-.91.86-1.41,1.45-2,.88,1.37,2.43,1.74,3.99,1.63Z"/>
                        <path class="cls-49" d="M455.87,331.34c-.24.36-.28.93-.36,1.09-.43.82-2.09.94-.36,2.18-.49,0-2.09.02-2.27,0-.11-.01-.09-.43-1.91-.73-.85-1.53,3.27-3.18,4.9-2.54Z"/>
                        <path class="cls-31" d="M458.96,327.89c-.33,1.62-3.23,1.1-4.18.54-.57-.33-1.73-1.53-.64-2,4.26,1.56,3.15-1.2,4.81,1.45Z"/>
                        <path class="cls-40" d="M464.77,333.88s-.31.02-.18.27c.21.42,1.29.16.73,1-1.56.11-3.11-.26-3.99-1.63l-.18-.64c1.05-1.57,3.08.09,3.63,1Z"/>
                        <path class="cls-40" d="M460.41,329.89c-.48.28-.82.05-1.09.45.44.16.67.21,1.09.45v.36c-1.84.18-.11.78-1.54,1.27-3.31,1.14-3.31-.89.45-2.54,1.39-.61,2.94-1.09,1.09,0Z"/>
                        <path class="cls-49" d="M460.41,329.89c1.85-1.09.3-.61-1.09,0h-2c-.13-.67,1.04-.15,2.09-.54,1.24-.47,2.26-1.66,3.81-1.27.76.47-2.5,4.32-2.81,1.82Z"/>
                        <path class="cls-49" d="M444.98,330.61c1.38.05,1.38.63,1.63,1.82-.21.02-.67,1.17-3.99-.45.29-.87,1.52-1.39,2.36-1.36Z"/>
                        <path class="cls-5" d="M482.01,327.89c-.02.37.61.9-.45,1.82-1.99,0-2.49-.87-2.63-.91v-.54c.95-.14,1.85-.31,2.72-.73.02.01.07.33.36.36Z"/>
                        <path class="cls-5" d="M455.15,334.61c-1.73-1.24-.07-1.36.36-2.18,1.99,1.64,2.04,2.16-.36,2.18Z"/>
                        <path class="cls-47" d="M468.76,327.89c-.07,0-.73-.33-1.45-.36-4.17-.18-7.39-.47-3.18-.91,1.23-.13,3.97.11,4.63,1.27Z"/>
                        <g>
                          <path class="cls-49" d="M458.96,327.89c-1.66-2.65-.55.1-4.81-1.45-1.09.47.07,1.67.64,2-.24-.01-.17.16-.18.36-3.21-2.74-2.85-.95-3.18-.91-.62.08-2.21.03-3,0-.35-.01-1.24-.45-.18.18,1.61.97,4.59,2.16,6.35,1.27-.05.09.07.38-.45.54-1.46.46-2.01-1.11-2.27,1.36-3.47,1.87-3.76-3.56-6.9-.64-.84-.03-2.07.49-2.36,1.36,3.32,1.62,3.78.47,3.99.45.77-.07,1.74.44,3-.36.75,1.28-1.02,1.29-.82,1.72,1.39.61,2.07.07,2.18.09,1.81.3,1.8.71,1.91.73.18.02,1.78,0,2.27,0,2.4-.02,2.36-.53.36-2.18.08-.16.12-.73.36-1.09.53-.79.24-1.46,1.45-1.45h2c-3.76,1.65-3.77,3.68-.45,2.54,1.44-.5-.3-1.09,1.54-1.27.19-.02-.17.26.73.18,5.47-.46,2.9.72,3.9,1.09.14.05,2.73-.88,2.45-1.54-4.24-3.16-4-3.23-.18-3.36.72.03,1.38.37,1.45.36.33-.03.08-.48.27-.54.97-.3.82.52.91.54.37.09,2.84.43,3.09.54,1.35.63.84,1.97,2.9,1.27.59-.2.97-1.41,3-.91.14.03.65.91,2.63.91,1.06-.91.44-1.45.45-1.82.06-1.29-.28-1.62.91-.82,1.71,6.06.97,3.63.27,3.72-.83.11-2.53,3.92-5.81-1.27-2.99.23,1.57,3.1,1.54,3.36-3.31,1.88-2.93-.28-3.36-.45-1.9-.76-4.03,2.84-6.35,2.36-.24-.05-.17-1.26-4.45-.91-.55-.91-2.58-2.57-3.63-1l.18.64c-.59.58-1.62,1.09-1.45,2-5.73-.15-11.86-1.08-17.24-3.09-2.15-.8-6.66-2.63-4.9-3.27-.46.36.74.96,1.72,1.45.15-2.19,7.19-5.01,8.35-4.9.47.04,2.08,1.16,2.18,1.09.17-.13-.21-1.06,1.09-1.63.34-.15,6.92-1.42,7.26-1.27.64.28.88,2.24,1,2.45.65,1.13,2.28.33-.09,2.27-.13-.09,0-.31-.27-.73Z"/>
                          <g>
                            <path class="cls-31" d="M472.57,330.98c-.72.1-.96-.16-1.09-.18-.84-.16-2.19-.93-3.45-1,.64-2.96,7.54-.8,4.54,1.18Z"/>
                            <path class="cls-5" d="M471.48,330.8c.13.02.37.29,1.09.18,1,1.17-2.53,3.03-3.45,1,1.04-2.59.49-.9,2.36-1.18Z"/>
                            <path class="cls-64" d="M461.14,331.34c-.89.07-.54-.2-.73-.18v-.36c.22.13.58.35.73.54Z"/>
                            <g>
                              <path class="cls-40" d="M454.6,328.8c-.01.21.03.49,0,.54-1.77.89-4.75-.3-6.35-1.27l.18-.18c.78.03,2.38.08,3,0,.33-.04-.04-1.84,3.18.91Z"/>
                              <path class="cls-45" d="M448.43,327.89l-.18.18c-1.05-.64-.16-.19.18-.18Z"/>
                            </g>
                          </g>
                        </g>
                        <path class="cls-30" d="M481.65,327.53c-.87.42-1.77.58-2.72.73-6.35.96.61-1.76,2.72-.73Z"/>
                      </g>
                    </g>
                  </g>
                </g>
              </g>
              <path class="cls-12" d="M658.72,328.89c-.05.66-.75.77-1,1.54-.32.99-.41,1.34-1,2.31-1.72,2.81-11.78,10.53-14.97,12.34-.31.18,1.45-1.25-5.99,2.31-4.86,2.33-10.8,5.12-15.97,6.94-.28.1,1.32-1.47-5.99.77q-11.48,3.09-22.95,6.17c-14.54,2.7-38.15,5.66-52.89,6.17l2-7.72c19.33,1.11,78.64-9.81,95.8-19.29,11.35-4.15,14.03-6.81,22.95-11.57Z"/>
              <path class="cls-43" d="M539.97,359.75c-7.9-.45-24.58-3.53-19.96-8.49,28.57,4.78,88.81-.95,115.76-10.8-17.16,9.48-76.47,20.4-95.8,19.29Z"/>
              <path class="cls-6" d="M522,313.46c5.63-2.07,11.55-3.76,16.96-6.17,9.68-.47,19.31-1.46,28.94-2.31,17.82-1.58,19.46-1.05.5,3.09-7.73,1.68-36.77,4.67-46.4,5.4Z"/>
              <path class="cls-50" d="M442.17,364.38c.14-.31-.16-2.22,2.99-6.17v10.42q-1.5-2.12-2.99-4.24Z"/>
              <g>
                <path class="cls-1" d="M658.72,328.89c-8.93,4.76-11.6,7.42-22.95,11.57-26.95,9.85-87.2,15.58-115.76,10.8-48.57-15.51-20.82-6.67.5-5.4,35.68,2.13,65.99-4.34,94.31-21.22-43.7,14.13-74.37,26-122.25,11.19,22.63,2.84,46.55,3.07,68.86-1.54,32.83-6.79-10.94-.32-18.96,0-13.07.53-26.78-.66-39.42-3.47,7.03-.31,13.94-.64,20.96-1.16,37.73-2.8,78.27-7.2,107.78-27.39-32,13.49-67.46,21.1-103.79,23.53,5.6-2.06,11.9-2.69,17.46-4.63,17.81-6.22,76.77-28.94,78.34-43.2,8.49,10.42,11.49,11.29,11.98,11.96,4.31,5.93-.31,10.17,0,10.8.22.44,7.61,2.14,9.98,5.4,3.85,5.29.81,8.8,1,9.26.33.83,12.75,3.54,11.98,13.5Z"/>
                <path class="cls-43" d="M524,329.66l-2-1.93c3.97-.15,5.66-1.81,5.99-1.93,36.33-2.43,71.78-10.04,103.79-23.53-29.51,20.19-70.05,24.59-107.78,27.39Z"/>
                <path class="cls-43" d="M643.25,315.77q-7.48,6.17-14.97,12.34c-46.72,17.64-.34-1.87,14.97-12.34Z"/>
              </g>
              <path class="cls-48" d="M613.81,355.12c-.27.08-1.91,1.52-4.99,2.31-3.59.93-7.33,2.37-10.98,3.09-2.36.46-5.59.51-6.99.77q11.48-3.09,22.95-6.17Z"/>
            </g>
          </g>
          <g>
            <path class="cls-54" d="M694.65,465.44c-.52.11-1.35-.06-2,0,.02-.23-2.01-4.02-2-4.24,2.47-31.92-1.74-28.98-6.99-47.06-1.09-3.74-.87-9.92-2-13.12-15-42.48-34.87-49.2-35.93-52.08-.08-.21,0-.54,0-.77.02-4.23,6.6-4,6.99-4.24,1.02-.65-.21-12.53,14.97,6.17,9.88,12.18,30.55,55.02,11.98,11.57q-11.48-14.47-22.95-28.93c.59-.97.67-1.32,1-2.31,51.31,32.53,42.57,89.61,36.92,135.01Z"/>
            <path class="cls-29" d="M597.85,360.52c-.76,4.56,1.19,6.99,1,7.33-.36.66-4.99.91-5.99,1.16-1.36-7.98-17.04-5.73-24.45-3.86-6.66,1.68-4.16,1.69-4.49,8.49l-1,.77c-4.44-.5-8.64.61-12.97.77-.99.04-2-.03-2.99,0q-7.98-3.47-15.97-6.94c.35-.01-.6-1.24,6.99-.77,14.74-.51,38.35-3.47,52.89-6.17,1.39-.26,4.62-.31,6.99-.77Z"/>
            <path class="cls-62" d="M530.99,368.23q7.98,3.47,15.97,6.94c-13.26.34-26.73-.89-39.92.77-.37-.23-5.67-2.65-7.98-3.86-3.29-1.72-6.53-3.93-9.98-5.4,14.11,2.19,27.72,2.06,41.91,1.54Z"/>
            <path class="cls-7" d="M692.65,465.44c-.33,4.6-7.85,11.17-12.97,13.12,5.01-3.82,6.36-5.89,7.98-11.19,6.27-20.52-3.33-34.28-9.98-53.23-.28-.79.82-6.51-2.99-16.2-.56-1.42-14.91-25.77-15.97-27-5.61-6.53-13.65-9.33-13.97-10.03-.96-2.11,1.97-5.72-2.99-8.87,1.52-.52,3.28-1.9,3.99-3.09,1.05,2.88,20.93,9.6,35.93,52.08,1.13,3.2.91,9.37,2,13.12,5.24,18.08,9.46,15.14,6.99,47.06-.02.23,2.01,4.02,2,4.24Z"/>
            <path class="cls-65" d="M645.75,348.17l-3.99-3.09c3.19-1.82,13.25-9.53,14.97-12.34q11.48,14.47,22.95,28.93c18.57,43.45-2.09.61-11.98-11.57-15.18-18.7-13.95-6.83-14.97-6.17-.39.25-6.96.01-6.99,4.24Z"/>
            <path class="cls-14" d="M641.76,345.09l3.99,3.09c0,.23-.08.56,0,.77-.71,1.18-2.47,2.56-3.99,3.09-.28.1-.72-.09-1,0l-4.99-4.63c7.44-3.57,5.67-2.14,5.99-2.31Z"/>
            <path class="cls-37" d="M635.77,347.4l4.99,4.63c-6.4,2.11-13.51,3.32-19.96,5.4-.21-.74-1.48-1.26-1-3.09,5.17-1.82,11.11-4.61,15.97-6.94Z"/>
            <path class="cls-65" d="M619.8,354.35c-.49,1.83.79,2.34,1,3.09.07.25-.08.53,0,.77q-4.99,1.54-9.98,3.09c-.58-1.35-.9-2.64-2-3.86,3.08-.8,4.72-2.23,4.99-2.31,7.31-2.24,5.71-.67,5.99-.77Z"/>
            <path class="cls-62" d="M592.86,369.01c-8.2,2.07-20.2,3.36-28.94,4.63.33-6.8-2.17-6.81,4.49-8.49,7.41-1.87,23.09-4.12,24.45,3.86Z"/>
            <g>
              <path class="cls-54" d="M640.76,352.03c.28-.09.72.1,1,0,4.96,3.15,2.03,6.76,2.99,8.87.32.69,8.37,3.5,13.97,10.03,1.06,1.24,15.41,25.58,15.97,27,3.81,9.69,2.72,15.41,2.99,16.2,6.65,18.95,16.25,32.71,9.98,53.23-1.62,5.3-2.98,7.36-7.98,11.19-.82.63-3.76,2.97-3.99,3.09-.09.05-1.06.37-2,.77-.28.12-4.66,1.17-5.99,1.54-13.33,3.72-29.51,4.82-42.91.77-20.51-6.2-53.73-42.85-67.86-57.09-.11-.11-.16-.46-2-2.31-13.63-17.72-26.71-36.39-47.9-49.38,13.19-1.66,26.66-.44,39.92-.77,1-.03,2,.04,2.99,0,26.78,15.11,36.64,64.83,45.91,75.22,16.7,18.74-11.85-37.83-14.97-47.06-5.29-12.3-18.89-21.98-17.96-28.93l1-.77c8.74-1.27,20.74-2.56,28.94-4.63.99-.25,5.62-.5,5.99-1.16.19-.34-1.76-2.77-1-7.33,3.64-.71,7.38-2.15,10.98-3.09,1.1,1.21,1.41,2.51,2,3.86,8.48,19.55,21.15,37.6,30.94,56.71,4.43,8.66,15.74,45.66,21.95,33.17-10.44-16.81-11.39-35.91-19.96-53.23-6.73-13.6-17.5-22.46-22.95-39.73-.08-.24.07-.53,0-.77,6.45-2.08,13.55-3.29,19.96-5.4Z"/>
              <path class="cls-65" d="M610.82,361.29q4.99-1.54,9.98-3.09c5.45,17.28,16.22,26.13,22.95,39.73,8.57,17.32,9.52,36.43,19.96,53.23-6.22,12.48-17.52-24.52-21.95-33.17-9.78-19.11-22.45-37.16-30.94-56.71Z"/>
              <path class="cls-7" d="M562.92,374.41c-.92,6.95,12.67,16.63,17.96,28.93,3.12,9.23,31.66,65.8,14.97,47.06-9.26-10.39-19.13-60.11-45.91-75.22,4.33-.17,8.53-1.27,12.97-.77Z"/>
              <path class="cls-7" d="M592.36,379.03c22.28,25.85,33.62,56.29,43.41,86.02.44,2.56-2.28,3.42-4.99,2.31,1.79-16.46-43.84-86.27-38.42-88.34Z"/>
              <path class="cls-7" d="M507.04,375.95c21.2,12.98,34.27,31.65,47.9,49.38-10.25-10.33-41.62-48.98-55.88-50.15v-3.09c2.31,1.21,7.61,3.63,7.98,3.86Z"/>
            </g>
          </g>
        </g>
        <g>
          <path class="cls-24" d="M595.85,48.83c-2.52,3.37-3.9,2.92-6.99,3.09-17.18.93-26.81-26.06-24.95-12.73-5.97,4.02-5.19-6.67-9.48-11.96-3.07-.44,5.22,8.5-21.95-6.17-2.9,16.83,28,3.82,23.95,31.63-13.83-.95-6.67-2.61-12.97-9.26-1.65.08-1.61,19.52-9.98-10.03q-2.49,2.7-4.99,5.4c-2.61-.11-12.91-16.86-8.98-4.63-9.9-1.37-9.88-11.47-14.97-13.12-1.2-.39-5.49,2.95-10.48-3.47,11.42-4.31,31.19-3.43,48.97-7.72-5.04-2.55-14.26-4.73-17.96,0-3.67,4.69-30.95,7.02-36,11.57,20.31,4.52,26.36,10.43.5,5.01-1.37,9.71,3.76,3.85,12.97,6.17,4.18,1.05,35.76,19.06,36.42,21.22,1.09,3.52-3.71,3.14-3.99,6.17,10.55-.75,9.86.12,16.96,8.49,3.56,4.19,8.81,10.88,5.99,15.04-.82,1.22-7.02,2.13-4.99,12.34-3.43,4.4-.72-9.8-1-10.42-2.29-5.19-31.97-4.46-26.94-18.13.46-1.25-1.05-3.33,1.5-3.09,28.56,15.89,20.75,8.39-3.49-5.79,9.5-11.1,2.92-5.23-9.98-2.7-1.74-2.49-1.51-4.73-2.99-7.33,19.68-1.87-.76-6.27-12.97-.77,21.54,4.66,4.56,12.03-13.97.77-.22-2.27,14.94-5.63,16.96-8.49-5.41-8.89-39.54,4.77-17.96-7.72l-1.5-1.16c-10.68,6.71-34.21,1.55-8.48,8.1-30.49,8.88-13.74-15.05-15.47-15.82-3.39-1.51-18.76,32.75-33.93,4.63-6.39,17.62-9.75,27.92-22.45,43.98-.76-3.95-2.56-12.14-2-16.2,15.95-.87,6.79-17.87,3.99-10.8.31-.8-.37-3.86,1-6.56,1.81-3.58,9.43-6.88,11.98-9.26.96-.89,7.67-16.74,21.95-11.19.37.14,3.47,4.91,6.49,3.86,1.11-.39,33.01-4.77,49.47-13.89.32-.18,1.26-2.82,3.49-3.86,9.65-4.49,21.99-.61,24.95-.77.45-.02,3.2-2.57,7.98-3.09,11.49-1.23,13.21,2.99,13.97,3.09,3.69.45,6.88-1.43,13.97,0,5.02,1.01,10.32,6.06,10.98,6.17.87.15,7.09-3.55,16.47,2.7.83.55-30.94,5.26-29.51,5.79.45.17,4.26-1.5,9.98.77,5.04,2,7.98,8.48,8.48,8.87,3.53,2.7,8.68,3.81,10.98,6.17,3.97,4.08,3.6,11.06,3.99,11.57.41.54,3.97.78,6.99,3.47Z"/>
          <path class="cls-60" d="M513.02,55.77c.13.19-.07.95,0,1.54-14.71,6.69-8.1,7.84,5.49,12.34q1.25-1.93,2.49-3.86l3.99,1.54c-5.03,13.67,24.66,12.94,26.94,18.13.27.62-2.43,14.82,1,10.42h1l2,3.09c-3.97,3.69-7.44,10.63-7.98,15.43-11.5,12.05-10.15,38.8-16.96,14.66-.94-9.77,6.2-24.54,5.99-25.85-.57-3.46-36.73-40.69-63.37-48.22-18.92-5.35-30.21-.5-28.94-10.03-18.25,11.69-32.77,14.34-37.42,35.1,6.34-5.18,14.55-8.16,18.96,0-.24,1.55-18.63-2.69-19.96,13.5-3.13-11.48-3.11-16.17-3.99-20.44-.13-.64-1.98-1.06-2-1.16,12.71-16.05,16.06-26.35,22.45-43.98,15.17,28.12,30.54-6.13,33.93-4.63,1.73.77-15.02,24.69,15.47,15.82-25.73-6.55-2.2-1.39,8.48-8.1l1.5,1.16c-21.58,12.49,12.55-1.18,17.96,7.72-2.02,2.86-17.19,6.22-16.96,8.49,18.53,11.26,35.51,3.89,13.97-.77,12.21-5.5,32.65-1.1,12.97.77,1.48,2.6,1.25,4.84,2.99,7.33Z"/>
          <path class="cls-35" d="M616.81,78.15c4.28,4.99,4.07,18.01,5.99,20.44.38.48,3.9,1.05,5.99,2.7-3.3-1.37-2.61,14.76,1.5,16.97.78.42,8.7.79,9.48,2.7.88,2.15-6.29,5.31,6.49,21.99,17-11.96-.94-14.08-1.5-15.04-.21-.36-1.78-8.19,0-6.56,5.2,2.8,7.89.33,11.98,3.47,7,5.39,1.58,15.42,2,16.2.68,1.29,26.13,5.42,9.98,20.44-1.87-6.04,3.64-14.21-13.47-18.52-15.76,9.39-1.7,9.02,7.48,12.73,2.03,4.35-4.99,7.1-4.99,7.72,0,.54,6.85,4.16,9.98,6.94,4.03,3.59-.55,7.82,10.98,5.4.87,8.23-5.54,7.84-13.97,5.79-1.67-.76-3.1-1.83-4.99-2.31-.41-1,1.78-2.42,1-4.24-1.71-3.99-7.35-5.97-8.98-8.49-3.28-5.07-4.01-18.82-13.97-14.66,10.98,9.25,2.55,18.52,20.96,25.46-12.99,1.93-1.44,8.29,4.99,16.59-3.44,7.37-13.34,4.71-17.96-.77-10.07-11.93.75-36.93-8.48-24.69q-.75-.96-1.5-1.93c5.21-12.03-2.14-16.09-2-16.97.76-4.66,11.23,4.93,0-18.52l-2.49-1.16c-6.44,6.43-10.19,4.29-10.98,4.63-17.43,7.42,17.09,9.72,2.99,17.74-2.61-10.47-17.22-9.22-17.46-10.42-1.51-7.34,14.62-12.29-15.97-16.2,10.86-2.91,9.25,3.82,15.47-6.56,11.23,12.63,3.57,14.88,18.96,13.12,5.66-14.52-7.2-21.52-7.48-22.76-1.44-6.21,9.96-10.65-2.49-8.87-7.46-13.94,6.38-15.4-2.49-21.99l4.99-.39Z"/>
          <path class="cls-24" d="M668.7,161.47c.2.64-1.52,1.04-1,1.93.65,1.09,14.84,6.55,12.97,16.2-4.7,6.13-9.31,4.96-15.97,1.93,8.43,2.06,14.84,2.45,13.97-5.79-11.53,2.42-6.95-1.81-10.98-5.4-3.13-2.79-9.98-6.41-9.98-6.94,0-.61,7.02-3.37,4.99-7.72-9.18-3.71-23.24-3.34-7.48-12.73,17.11,4.31,11.61,12.48,13.47,18.52Z"/>
          <path class="cls-24" d="M628.78,101.29c.21.17,2.6-.11,4.99,2.7,3.28,3.86,2.9,13.02,10.98,17.36-1.78-1.63-.21,6.19,0,6.56.56.96,18.49,3.09,1.5,15.04-12.78-16.68-5.61-19.84-6.49-21.99-.78-1.91-8.7-2.28-9.48-2.7-4.11-2.21-4.8-18.34-1.5-16.97Z"/>
          <path class="cls-24" d="M659.72,179.21c2.17,5.23,7.7,6.7,3.99,14.66-6.43-8.3-17.98-14.66-4.99-16.59-18.41-6.94-9.98-16.21-20.96-25.46,9.96-4.17,10.69,9.58,13.97,14.66,1.63,2.52,7.27,4.49,8.98,8.49.78,1.82-1.41,3.24-1,4.24Z"/>
          <path class="cls-24" d="M608.83,72.75c-4.44,3.3-9.11-.74-10.98,4.63-.67-.05-3.82-1.43-3.99-1.54.28-2.92,6.59-8.95,5.99-11.19-.18-.65-10.76-7.94-11.98-9.64q.5-1.54,1-3.09c3.09-.17,4.47.29,6.99-3.09,11.14,9.91,4.89,8.9,6.99,12.73.36.66,3.71,2.29,4.99,4.63.76,1.39.8,6.26,1,6.56Z"/>
          <path class="cls-24" d="M493.13,7.94c-16.46,9.11-48.35,13.5-49.47,13.89-3.02,1.05-6.12-3.72-6.49-3.86,4.78-8.01,44.44-11.02,55.95-10.03Z"/>
          <path class="cls-24" d="M398.26,55.77c.54-3.91,4.69-7.94,4.99-8.87.03-.1-1.5-.63-1-1.93,2.8-7.07,11.96,9.94-3.99,10.8Z"/>
          <path class="cls-60" d="M575.89,88.18c2.06,5.17,11.55,5.14,15.97,8.87.74,4.95-6.68-3.51-13.97.77,10.67,10.92-2.71,16-2.99,16.97-.48,1.63,1.97,1.06,2,1.16,2.42,7.71,3.82,2.53,4.99,4.24,1.01,1.47-6.86,2.5,1,4.24-1.54,1.74-3.39,1.87-4.99,3.47,22.73,3.98-7.89,3.08-7.98,12.34,3.39,4.64,8.88,3,13.97,3.47,3.24,2.28-.94,3.24-1,3.86-.33,3.69,2.05,4.76,2,5.01-.29,1.49-8.06,2.55-10.98,8.87-3.76,8.15,4.98,4.86,13.97,10.8.06.04.94.72,1,.77,9.76,8.77-9.04.29,10.98,13.89-5.52-3.19-6.65-2.92-6.99-3.09-3.34-1.69-8.43-6.85-12.47-6.17-3.04.51-9.68,11.69-14.47,12.34,3.69-5.07,14.56-12.5,8.98-12.34-1.1-1.49-4.34-1.76-5.99-2.31-2.87-.96-10.99-2.4-11.98-3.47-1.27-1.39-7.94-30.34-7.98-33.56-.06-4.32.78-4.7,2-8.49.69-2.15,4.47-8.33,5.99-11.96.57-1.36-.58-5.09,0-6.17.59-1.11,3.35-.97,5.99-2.7.17-.11,1.62.15,3.99-1.54,6.23-4.45,8.66-11.57,5.99-17.74l2.99-1.54Z"/>
          <g>
            <path class="cls-60" d="M454.14,172.27c11.49,1.38,40.48-6.2,51.89-10.03v.77c2.15,11.25,6,17.11-3.99,25.46-2.38,1.99-1.86,3.42-2.49,3.86-.62.43-2.88.12-6.49,2.31-1.66,1.01-3.6,1.39-4.99,2.31-9.53.47-6.58,2.88-6.99,3.09-1.47.74-3.41,1.57-4.99,2.31-8.36,3.94-11.38,3.66-11.98,3.86-8.03-3.82-4.64,1.12-4.99,1.54-2.24,2.73-25.37,15.49-30.94,18.52,2.77-13.41-1.85-7.75-4.49-10.03-8.16-7.05-3.2-15.74-3.49-16.59-.14-.4-6.03-2.68-6.99-6.17-2.54-9.31,7.85-18.25,7.98-19.29.25-1.87-3.82-7.05-3.99-9.26-.22-2.93,3.07-8.05,2.99-8.49-.07-.38-5.11-3.46-5.99-6.17-.46-1.41.38-4.06,0-5.79,8.58,10.67,22.93,25.74,39.92,27.77Z"/>
            <path class="cls-41" d="M464.12,206.22c-.34.11-2.51,3.25-4.99,1.54.35-.42-3.04-5.36,4.99-1.54Z"/>
          </g>
          <path class="cls-35" d="M588.87,51.92q-.5,1.54-1,3.09c-16.5,4.22-2.39,9.1,0,11.96,3.01,3.6,2.94,6.78,5.99,8.87.17.11,3.32,1.5,3.99,1.54-.44,1.27.17,8.01,1,8.87,18,6.88-6.96.53-12.97,1.54,4.67-31.45-19.85-19.24-18.46-31.25,12.81,5.96,6.96-5.53-6.99-14.66,2.2,21.42-.31,8.65-12.47,15.82,2.07,2.09,7.28,8.88,9.48,9.64,6.91,2.41,16.22-1.8,16.47.39q-3.99,3.09-7.98,6.17c11.55-.7.92,11.19,14.47,1.93,5.51,5.37-6.74,6.7-4.49,12.34l-2.99,1.54c-1.82-4.21-9.03-8.11-14.97-6.17,2.82-4.16-2.43-10.85-5.99-15.04-7.1-8.36-6.42-9.24-16.96-8.49.28-3.03,5.08-2.65,3.99-6.17-.67-2.16-32.24-20.16-36.42-21.22-9.21-2.32-14.34,3.53-12.97-6.17,25.86,5.42,19.81-.5-.5-5.01,5.05-4.56,32.33-6.88,36-11.57,3.7-4.73,12.92-2.55,17.96,0-17.78,4.29-37.55,3.4-48.97,7.72,4.98,6.42,9.27,3.08,10.48,3.47,5.09,1.64,5.07,11.75,14.97,13.12-3.93-12.23,6.37,4.52,8.98,4.63q2.49-2.7,4.99-5.4c8.37,29.55,8.33,10.11,9.98,10.03,6.3,6.65-.86,8.3,12.97,9.26,4.05-27.81-26.85-14.81-23.95-31.63,27.17,14.67,18.88,5.73,21.95,6.17,4.29,5.29,3.51,15.98,9.48,11.96-1.86-13.33,7.77,13.66,24.95,12.73Z"/>
          <path class="cls-24" d="M525,67.35l-3.99-1.54c.31-3.94-2.37-7.9-7.98-8.49-.07-.6.13-1.35,0-1.54,12.9-2.53,19.48-8.4,9.98,2.7,24.25,14.18,32.05,21.67,3.49,5.79-2.55-.24-1.04,1.84-1.5,3.09Z"/>
          <g>
            <path class="cls-24" d="M597.85,77.38c1.86-5.37,6.54-1.33,10.98-4.63.79,1.22,5.72,2.76,7.98,5.4l-4.99.39c8.88,6.59-4.96,8.05,2.49,21.99,12.45-1.77,1.05,2.66,2.49,8.87.29,1.24,13.14,8.24,7.48,22.76-15.39,1.77-7.73-.48-18.96-13.12-6.22,10.38-4.61,3.65-15.47,6.56,30.59,3.91,14.46,8.86,15.97,16.2.25,1.19,14.86-.05,17.46,10.42,14.1-8.02-20.42-10.32-2.99-17.74.79-.34,4.54,1.8,10.98-4.63l2.49,1.16c11.23,23.45.76,13.85,0,18.52-.14.88,7.21,4.94,2,16.97q.75.96,1.5,1.93c9.23-12.24-1.58,12.76,8.48,24.69-1.23-.08-.93.75-1,.77-4.41,1.56,2.03,3.56-1.5,9.26-26.01-3.29-5.42-11.53-8.48-16.59-14.46-1.25-6.67-7.95-6.99-9.26-1.94-8.1-10.95-10.85-20.96-10.03l7.98-8.49c-.72-1.06-22.85,6.26-7.98-13.89-9.57,5.4-16.22-2.43-20.46-2.7-.46-.03-2.34,1.56-2.49,1.54-5.09-.48-10.59,1.17-13.97-3.47.09-9.27,30.71-8.36,7.98-12.34,1.6-1.61,3.45-1.73,4.99-3.47,5.53-6.26,5.25-12.54,26.45-6.17,13.43,16.73,11.41,7.22,4.49-.39-2.5-2.75-7.97-3.4-7.98-4.63,0-.3,4.44-2.89,4.99-4.63,4.14-13.14-17.41-20.84-16.96-15.43,9.87,6.61-6.05,8.69,9.98,13.12-.55,11.25-13.11,6.35-14.47,6.56-.66.1-4.74,3.9-12.47,3.09-.03-.09-2.47.47-2-1.16.28-.97,13.67-6.05,2.99-16.97,7.29-4.28,14.71,4.18,13.97-.77-4.42-3.73-13.91-3.7-15.97-8.87-2.25-5.64,10-6.98,4.49-12.34-13.55,9.26-2.92-2.63-14.47-1.93q3.99-3.09,7.98-6.17c-.25-2.18-9.56,2.02-16.47-.39-2.2-.77-7.41-7.55-9.48-9.64,12.17-7.17,14.67,5.61,12.47-15.82,13.95,9.13,19.79,20.62,6.99,14.66-1.39,12.01,23.13-.21,18.46,31.25,6.02-1.01,30.97,5.33,12.97-1.54-.83-.87-1.44-7.6-1-8.87Z"/>
            <path class="cls-24" d="M582.88,124.44c-7.86-1.74,0-2.78-1-4.24-1.17-1.71-2.57,3.47-4.99-4.24,7.73.81,11.81-2.99,12.47-3.09,1.36-.2,13.92,4.7,14.47-6.56-16.03-4.42-.11-6.51-9.98-13.12-.45-5.41,21.1,2.3,16.96,15.43-.55,1.74-4.99,4.33-4.99,4.63,0,1.23,5.49,1.88,7.98,4.63,6.92,7.61,8.94,17.11-4.49.39-21.19-6.37-20.91-.09-26.45,6.17Z"/>
            <path class="cls-35" d="M592.36,135.24c19.42-1.16-8.51,8.12-9.48,5.79-2.28-3.51,8.59-5.73,9.48-5.79Z"/>
          </g>
          <path class="cls-24" d="M513.02,57.32c5.61.58,8.29,4.54,7.98,8.49q-1.25,1.93-2.49,3.86c-13.59-4.5-20.2-5.66-5.49-12.34Z"/>
          <path class="cls-24" d="M588.87,173.04c-.06-.05-.94-.73-1-.77,2.76-12.6-8.75-6.94-13.97-10.8,2.91-6.32,10.68-7.38,10.98-8.87.05-.26-2.32-1.32-2-5.01,16.91-3.12,19.2,25.57,5.99,25.46Z"/>
          <g>
            <path class="cls-35" d="M644.75,193.87c3.83,11.78-5.08,17.36-18.96,10.8-3.93-1.86-18.4-13.38-25.95-17.74-20.02-13.59-1.21-5.12-10.98-13.89,13.21.11,10.92-28.58-5.99-25.46.06-.62,4.24-1.58,1-3.86.16.01,2.03-1.57,2.49-1.54,4.23.27,10.88,8.1,20.46,2.7-14.86,20.15,7.26,12.83,7.98,13.89l-7.98,8.49c10.01-.82,19.02,1.93,20.96,10.03.31,1.31-7.48,8.01,6.99,9.26,3.06,5.06-17.52,13.3,8.48,16.59,3.53-5.7-2.92-7.7,1.5-9.26Z"/>
            <path class="cls-24" d="M616.31,173.81c12.81-1.08,9.05,8.59-10.98,6.94-7.83-2.15,9.67-6.83,10.98-6.94Z"/>
            <path class="cls-24" d="M610.32,169.96c14.59-.49-14,10.76-8.98.77,3.08,2.25,8.49-.76,8.98-.77Z"/>
          </g>
          <path class="cls-24" d="M593.86,75.83c-3.04-2.09-2.98-5.27-5.99-8.87-2.39-2.86-16.5-7.74,0-11.96,1.22,1.71,11.8,8.99,11.98,9.64.6,2.24-5.7,8.26-5.99,11.19Z"/>
          <path class="cls-35" d="M587.87,172.27c-8.99-5.94-17.73-2.65-13.97-10.8,5.22,3.86,16.73-1.8,13.97,10.8Z"/>
        </g>
        <g>
          <path class="cls-23" d="M586.87,275.65c-9.14,10.27-34.16,25.51-47.9,31.63-5.42,2.42-11.33,4.1-16.96,6.17-23,1.74-27.73,2.67-50.89-3.09-15.19-3.77-69.02-24.09-74.85-34.72-2.5-4.56-3.74-12.67,0-16.97.6,2.85,1.9,4.23,4.49,6.17,6.74,5.06,84.56,28.41,95.8,29.32,28.77,2.32,67.22-4.61,90.31-18.52Z"/>
          <path class="cls-23" d="M481.09,200.05c-.47,2.65.95,2.2,1,2.31,3.77,10.31-17.11,40.29-2.99,36.26-.23.5.54,1.59-1,1.54-.28-.17-5.5-1.88-6.99-1.16-1.54.75-15.66,20.96-19.96,23.53-15.54-4.57-34.14-9.28-44.91-19.67-13.21-12.74,1.18-.66,13.47.39,13.21,1.13,31.63-4.39,41.91-10.8,17.18-10.72,11.67-14.81,14.47-30.09,1.58-.75,3.52-1.58,4.99-2.31Z"/>
          <path class="cls-2" d="M574.9,177.67c-20.15,16.84-34.98,38.49-35.93,61.72-1.99,2.96-4.82,5.65-6.99,8.49-3.36.36-6.58.61-9.98.77,11.77-12.49,14.68-28.26,22.95-42.05,6.66-11.09,16.79-20.41,23.95-31.25,1.65.55,4.88.83,5.99,2.31Z"/>
          <g>
            <path class="cls-55" d="M592.86,183.84c.34.17,1.47-.1,6.99,3.09,7.54,4.36,22.02,15.89,25.95,17.74,2.69,7.9,2.33,19.14,0,27-.3,1.01-3.82,7.09-4.99,9.26-5.59,10.37-22.46,27.81-33.93,34.72-23.09,13.91-61.55,20.84-90.31,18.52-11.24-.91-89.06-24.26-95.8-29.32-2.59-1.95-3.89-3.32-4.49-6.17-1.04-4.92,2.58-15.96,1.5-16.2-1.49-.34-11.03,20.79-11.48,22.37-5.34-1.22-10.27-16.5-12.47-16.97-.54-.12-5.68,2.8-10.48,3.09-13.11.78-18.25-6.86-6.99-6.56l-5.99-1.93c.38-1.35-1.36-1.72-1-3.09.34-1.26.64-2.61,1-3.86,10.49-4.48,37.02-5.97,24.95-19.29-5.05-5.58-13.07-5.51-20.96-3.86-1.58-13.38-10.94-15.81-23.95-22.37.35.1,1.04-1.73,7.48,0,4.77,1.28,56.63,23.54,65.86,27.77,10.14,4.65,18.73,11.4,19.96,11.57,4.03.57,4.25-2.95,4.49-3.09,5.56-3.03,28.7-15.79,30.94-18.52,2.48,1.71,4.65-1.43,4.99-1.54.59-.2,3.61.08,11.98-3.86-2.8,15.28,2.71,19.37-14.47,30.09-10.28,6.41-28.7,11.93-41.91,10.8-12.29-1.05-26.68-13.13-13.47-.39,10.77,10.39,29.37,15.11,44.91,19.67,7.47,2.19,53.6,14.11,57.38,13.12,2.03-.54,20.87-24.4,23.45-27.77,2.17-2.83,4.99-5.53,6.99-8.49,3.15-4.68,6.31-8.99,8.98-13.89,12.08-15.76,24.19-31.58,44.91-41.66Z"/>
            <path class="cls-14" d="M365.83,235.53c1.79-.32,11.17-.45,10.48,1.16-17.45,6.6-21.02.73-10.48-1.16Z"/>
            <path class="cls-52" d="M380.8,229.36c14.03-.79,23.95,6.62,8.98,1.54-18.8,1.04-21.76-.83-8.98-1.54Z"/>
          </g>
          <path class="cls-23" d="M497.06,204.67c1.81-5.3,2.87-10.93,4.99-16.2,9.99-8.35,6.14-14.21,3.99-25.46,5.99-.95,12.2-1.4,17.96-3.09-.32,6.95,3.23,38,2,40.5-1.91,3.88-23.63,6.49-28.94,4.24Z"/>
          <g>
            <path class="cls-23" d="M547.95,114.41c-.43,3.8-.31,13.6,2.99,15.43-1.21,3.78-2.06,4.17-2,8.49-1.75.79-3.06,2.59-3.99,3.86-11.91,8.3-24.16,15.11-38.92,20.06-11.41,3.83-40.41,11.41-51.89,10.03,1.8-2.08-3.74-5.17.5-7.72,3.64-2.19,50.14-1.8,76.34-35.49,6.81,24.14,5.46-2.61,16.96-14.66Z"/>
            <g>
              <path class="cls-55" d="M530.99,129.07c-26.2,33.69-72.7,33.3-76.34,35.49-4.24,2.55,1.31,5.64-.5,7.72-16.98-2.04-31.33-17.11-39.92-27.77-2.3-10.51-7.62-22.53-4.99-33.95,5.24,10.97,20.8,11.21,21.95-1.16-3-3.31-10.85,14.1-22.95-4.24-.5-1.92-.06-4.46-2-11.57,1.33-16.19,19.72-11.95,19.96-13.5-4.41-8.16-12.62-5.18-18.96,0,4.65-20.77,19.17-23.41,37.42-35.1-1.27,9.53,10.02,4.68,28.94,10.03,26.64,7.53,62.8,44.76,63.37,48.22.21,1.31-6.93,16.08-5.99,25.85Z"/>
              <g>
                <path class="cls-33" d="M409.24,110.55c-1.12-2.34-.63-3.98-1-5.4,12.1,18.34,19.95.93,22.95,4.24-1.16,12.37-16.71,12.13-21.95,1.16Z"/>
                <path class="cls-57" d="M502.54,104.38c1.19,14-32.76,17.55-39.42,4.24,1.03-1.44,21.24,9.25,39.42-4.24Z"/>
                <path class="cls-60" d="M468.61,66.58c9.93-1.52,21.17,4.94,19.46,7.33-18.25-2.95-28.26,5.01-29.44,4.24-3.3-4.14,5.7-10.92,9.98-11.57Z"/>
                <path class="cls-53" d="M433.69,126.75c1.02-.53,6.22,10.26,20.96.77,2.46,11.98-24,11.88-20.96-.77Z"/>
                <g>
                  <path class="cls-9" d="M445.16,145.27c6.95.49,10.26,3.01,21.95,0-.52,2.33-3.92,6.72-5.99,8.49l-14.97.77c-14.29-9.03-13.79-10.15-1-9.26Z"/>
                  <path class="cls-53" d="M461.13,153.76c-11.78,10.06-14.21,1.25-14.97.77l14.97-.77Z"/>
                  <path class="cls-16" d="M467.12,145.27c-11.7,3.01-15,.49-21.95,0,4.83-4.34,4.2,1.21,15.47,0,3.45-.37,7.87-6.19,6.49,0Z"/>
                </g>
                <path class="cls-53" d="M440.67,50.37l2.49.39c-13.85,10.25-15.25,7.86-2.49-.39Z"/>
              </g>
            </g>
            <path class="cls-55" d="M572.9,89.72c2.67,6.18.24,13.29-5.99,17.74,2.32-12.53.42-26.1-12.97-11.57h-1c-2.03-10.22,4.17-11.13,4.99-12.34,5.94-1.94,13.15,1.96,14.97,6.17Z"/>
            <path class="cls-11" d="M544.96,142.18c-6.25,8.49-7.97,13.95-20.96,17.74-5.76,1.68-11.98,2.14-17.96,3.09v-.77c14.76-4.95,27.01-11.76,38.92-20.06Z"/>
            <path class="cls-55" d="M562.92,109.01c-2.64,1.73-5.39,1.59-5.99,2.7-.58,1.08.57,4.82,0,6.17-1.52,3.62-5.3,9.81-5.99,11.96-3.3-1.83-3.43-11.63-2.99-15.43.55-4.8,4.01-11.74,7.98-15.43,10.61-9.87,12.01,3.88,6.99,10.03Z"/>
            <path class="cls-36" d="M566.91,107.46c-2.37,1.69-3.82,1.43-3.99,1.54,5.03-6.15,3.63-19.9-6.99-10.03l-2-3.09c13.39-14.53,15.29-.96,12.97,11.57Z"/>
          </g>
          <g>
            <path class="cls-11" d="M363.33,250.96c3.06,9.15,9.43,17.24,17.96,23.92-.39-.02-3.17,2.14-7.48,1.54-1.69-.23-14.1-8.05-30.44-11.57.15-.35.38-1.56,1-3.09,6.02-2.2,8.72-4.61,2-7.72,1.09-3.31,2.05-6.69,2.99-10.03.02-.08.38.62,1-1.54l5.99,1.93c-11.26-.31-6.13,7.34,6.99,6.56Z"/>
            <path class="cls-23" d="M386.28,264.85c-.36,1.29-1.79.1-2,1.93-.05.45,2.96,2.99,2,8.87-1.49-.07-2.33-.65-4.99-.77-8.54-6.68-14.91-14.76-17.96-23.92,4.79-.29,9.94-3.2,10.48-3.09,2.2.47,7.13,15.75,12.47,16.97Z"/>
            <path class="cls-23" d="M396.26,258.68c-3.74,4.31-2.5,12.42,0,16.97-3.06,1.61-5.77.18-9.98,0,.97-5.88-2.05-8.42-2-8.87.21-1.83,1.63-.64,2-1.93.45-1.58,9.98-22.71,11.48-22.37,1.08.25-2.54,11.28-1.5,16.2Z"/>
            <path class="cls-26" d="M344.37,261.77c.15-.38.55-3.33,2-7.72,6.73,3.11,4.02,5.51-2,7.72Z"/>
          </g>
          <path class="cls-55" d="M568.91,175.36c-7.16,10.83-17.29,20.15-23.95,31.25-8.28,13.79-11.19,29.56-22.95,42.05-7.98.39-15.97.64-23.95,0-8.74-4.56-5.53-13.9-9.98-18.52,2.77-8.53,6.09-16.97,8.98-25.46,5.31,2.25,27.03-.37,28.94-4.24,1.24-2.51-2.32-33.56-2-40.5,12.98-3.79,14.71-9.25,20.96-17.74.93-1.27,2.24-3.07,3.99-3.86.05,3.22,6.71,32.17,7.98,33.56.98,1.07,9.11,2.51,11.98,3.47Z"/>
          <path class="cls-2" d="M498.05,248.65c-7.4-.59-9.18-.23-15.97-3.86,3.54-2.9,4.59-10.34,5.99-14.66,4.45,4.62,1.24,13.96,9.98,18.52Z"/>
        </g>
      </g>
      <g>
        <g>
          <g>
            <path class="cls-58" d="M111.35,399.09c3.03-.24,22.79,38.64-4.99,39.35-19.37-10.74-6.11-27.56,4.99-39.35Z"/>
            <g>
              <path class="cls-58" d="M73.93,415.3c-1.98,8.35,13.09,15.23,19.46,23.92,5.09-3.32,1.01-5.83,3.49-7.72,2.56,6.92-2.57,5.49-2,11.57-.66,0-1.34.05-2,0-12.19-.91-24.48-15.2-23.95-26.62.2-4.4.54-2.47,4.99-1.16Z"/>
              <path class="cls-58" d="M96.88,431.5c-2.49,1.88,1.6,4.39-3.49,7.72-6.37-8.69-21.44-15.57-19.46-23.92,6.41,1.9,21.01,10.95,22.95,16.2Z"/>
            </g>
          </g>
          <path class="cls-25" d="M209.65,510.19c-.65,5.97-5.17,3.65-11.98,4.63-1.43-1.98-9.07-2.3-13.97-3.86l1-3.86c8.06,2.4,16.35,3.56,24.95,3.09Z"/>
          <g>
            <path class="cls-14" d="M61.95,459.27c1.09.99-1.02,3.07,7.98,5.4,5.78,1.5,18.43,2.43,24.95,2.31,1.35,3.77,8.77,10.63,10.98,14.66-5.45.05-6.97.46-11.98,1.54-1.72-3.4-22.19-11.96-22.95-8.87,3.4,9.34.92,9.88,13.97,11.96-2.89,1-5.4,3.47-8.98,4.63-11.49,3.72-10.13-2.05-10.98-2.31,7.62-4.25,25.62-4.82,21.03-4.63-2.3-10.35-35.99-17.24-27.01-25.46.89-.17,2.63.44,2.99.77Z"/>
            <path class="cls-14" d="M192.68,468.53c7.03,3.28,6.55,5.21,6.99,5.4q-1.5.77-2.99,1.54c-1.29-.9-3.45-1.1-4.99-1.54-18.03-5.18-32.9,7.2-27.94,20.83-.16-.01-2.5.75-2.99.77-1.36-1.08-3.63-2.01-4.99-3.09-8.28-6.55-4.82-10.3-18.96-4.63-2.36-1.23-5.7-1.44-5.99-1.54-1.03-.37-3.58-1.99-4.99-2.31-2.77-5.41-4.35-11.21-3.99-16.97,1.14.37,12.49,1.18,19.96,7.33-13.38,10,4.29,3.75,12.97,3.09-14.63-12.22-25.16-20.6-.5-4.24q5.99-4.63,11.98-9.26c8.49,12.54,20.47,9.22,10.48-3.86,4.69,3.47,6.94,7.47,7.48,7.72,1.11.49,7.99.54,8.48.77Z"/>
            <path class="cls-11" d="M121.83,466.99c-.36,5.76,1.22,11.57,3.99,16.97-6.44-1.47-13.18-2.37-19.96-2.31-2.21-4.02-9.62-10.89-10.98-14.66-.04-.12,2.68.73,2-1.93-.19-.72-4.88-5.36-2.49-14.27,13.09,15.93,18.85,13.43,27.44,16.2Z"/>
            <path class="cls-11" d="M69.94,464.67c-9-2.33-6.9-4.41-7.98-5.4,37.34-16.27,38.61,3.18,7.98,5.4Z"/>
            <g>
              <path class="cls-52" d="M141.79,443.84c-10.04-1.88,24.64,23.18,22.95,14.27q-10.98-7.14-21.95-14.27c3.17-.11,20.34,1.46,22.45,2.31,9.71,9.13,20.42,9.23,27.44,22.37-.49-.23-7.38-.28-8.48-.77-.54-.24-2.79-4.25-7.48-7.72-2.36-3.09-5.96-7.48-10.98-7.33,3.29,3.61,10.45,6.94,10.98,7.33,9.99,13.08-1.99,16.4-10.48,3.86q-5.99,4.63-11.98,9.26c-24.66-16.36-14.13-7.98.5,4.24-8.69.66-26.35,6.91-12.97-3.09-7.47-6.15-18.82-6.96-19.96-7.33-8.59-2.78-14.35-.27-27.44-16.2-2.39,8.91,2.31,13.55,2.49,14.27.69,2.66-2.04,1.81-2,1.93-6.52.11-19.17-.82-24.95-2.31,30.62-2.22,29.36-21.67-7.98-5.4-.36-.33-2.1-.94-2.99-.77,8.7-7.96,22.07-11.37,33.93-15.43.65.05,1.33,0,2,0,1.79.01,6.43-1.81,35.43-1.54.73,0,6.58-5.98,11.48,2.31Z"/>
              <path class="cls-23" d="M141.79,443.84c.33,0,.67.01,1,0q10.98,7.14,21.95,14.27c1.68,8.91-32.99-16.15-22.95-14.27Z"/>
              <path class="cls-19" d="M123.33,446.16c20.25,3.68,23.69,15.98,2.99,3.09-1.17-.73-4.46-2.1-2.99-3.09Z"/>
              <path class="cls-14" d="M176.72,460.04c-.52-.39-7.69-3.72-10.98-7.33,5.02-.15,8.62,4.24,10.98,7.33Z"/>
            </g>
            <path class="cls-14" d="M155.76,492.45c5.3,11.96-8.52,8.58-11.98,6.17-.05-.04.22-.86-1-.77,1.07-8.9-1.98-7.4-4.99-9.26-.86-.53-.94-.74-1-.77,14.14-5.67,10.68-1.92,18.96,4.63Z"/>
            <path class="cls-36" d="M93.89,483.19c-3.31.72-5.91,2.02-8.98,3.09-13.05-2.08-10.57-2.62-13.97-11.96.76-3.09,21.24,5.47,22.95,8.87Z"/>
          </g>
          <g>
            <path class="cls-3" d="M196.68,475.47c.74.52,11.54,11.65,11.98,12.34,2.07,3.27,1.73,4.54,2,7.72.2,2.42.17,5.28,0,7.72-.14,2.1-.75,4.72-1,6.94-8.59.47-16.88-.69-24.95-3.09-1.34-.4-2.73-1.01-3.99-1.54-6.38-9.41-12.29-20.02,1.5-27.77,3.87-2.17,10.47-1.86,9.48-3.86,1.54.44,3.7.64,4.99,1.54Z"/>
            <path class="cls-44" d="M191.69,473.93c.99,2-5.61,1.68-9.48,3.86-13.79,7.75-7.87,18.36-1.5,27.77-14.45-6.14-8.5-10.2-16.96-10.8-4.96-13.63,9.91-26.01,27.94-20.83Z"/>
          </g>
          <path class="cls-51" d="M163.74,494.76c8.47.6,2.51,4.66,16.96,10.8,1.26.54,2.65,1.15,3.99,1.54l-1,3.86c-17.9-5.68-21.22-14.06-22.95-15.43.49-.03,2.84-.78,2.99-.77Z"/>
        </g>
        <g>
          <path class="cls-55" d="M110.85,181.53c-22.36,5.37-36.62,11.92-49.9,26.23-5.49-.19,28.51-.19,23.02-.39,12.35-22.14-9.84-16.63-6.56-17.36,14.49-3.23,9.6-7.25,19.46-13.12.33,2.48,12.94,5.34,13.97,4.63Z"/>
          <path class="cls-49" d="M189.69,172.27c-5.02.12-9.94.58-14.97.77-7.48-6.04-7.46-.19-7.98,0-2.36.84-3.6,1.01-5.99,1.54-4.77-1.11-16.49-4.81-9.48-9.26,17.33,11.93,10.62-5.3,11.98-6.17,9.95,1.9-.12,8.86,11.98,10.8,8.13,1.31,26.37-10.95,14.47,2.31Z"/>
          <path class="cls-49" d="M251.56,174.59c-2.21-.22-3.48-.64-4.99-.77-4.95-14.6-8.14-15.12-15.97-1.54-.38-.02-1.3,1-7.48.77-.45-.02-6.15-1.54-6.49-1.54-1.77-8.19,13.92,3.3,14.97-12.73,3.17-4.31,20.32,7.86,19.96,15.82Z"/>
          <path class="cls-49" d="M109.36,141.41c18.55,9.5-4.55,27.14-11.48,7.33l1.5-1.16c17.39,10.97,6.83-5.79,9.98-6.17Z"/>
          <path class="cls-49" d="M110.85,181.53c-1.03.71-13.64-2.15-13.97-4.63,4.71-2.8,8.02-7.21,13.97,4.63Z"/>
          <path class="cls-49" d="M125.82,178.44c-1.38,1.65-5.27,1.2-6.99,1.54-5.84-14.98-1.6-12.3,6.99-1.54Z"/>
          <path class="cls-49" d="M141.29,142.18c9.94,1.82,1.68,14.38-3.49,5.79l3.49-5.79Z"/>
          <path class="cls-20" d="M169.23,146.04c13.99,3.4-3.72,11.23-3.49,1.93q1.75-.96,3.49-1.93Z"/>
          <path class="cls-24" d="M71.43,169.19l3.49,1.93c-1.25,7-11.79,1.65-3.49-1.93Z"/>
          <g>
            <path class="cls-6" d="M65.95,206.99c-2.56,14.87,2.56,10.28,10.98,6.17l1,2.31c-.75.43-3.33,2.32-3.99,3.09-9.67,2.69,15.1,10.47,26.94,13.89-2.52,3.14-18.26-6.03-17.96-2.7,57.03,40.87,110.9,86.58,197.09,63.65,10.54-2.8,23.01-10.64,30.44-10.8-5.86,5.15-11.16,10.57-17.96,15.04l16.96,5.01c-50.04,26.48-161.43,26.02-208.57-4.63,8.97-16.69-1.57-16.31-11.98-35.88-5.45-10.24-14.54-43.3-27.94-45.9v-.77c5.7.66.63-2.35,2-5.79,1.44-3.61,2.88-2.54,2.99-2.7Z"/>
            <path class="cls-39" d="M60.96,216.25c13.41,2.61,22.49,35.66,27.94,45.9,10.41,19.57,20.95,19.19,11.98,35.88-26.45-17.2-31.79-46.44-38.92-70.98-.41-1.41.47-4.16,0-5.01-1.77-3.22,22.97-1.74,23.02-5.01,1.11,0-26.2-1.19-24.02-.77Z"/>
            <path class="cls-39" d="M349.36,244.02c-.95,3.33-1.91,6.72-2.99,10.03-1.44,4.38-1.84,7.34-2,7.72-.62,1.53-.84,2.74-1,3.09-6.32,14.24-17.66,29.2-33.93,37.8l-16.96-5.01c6.81-4.48,12.11-9.9,17.96-15.04,15.21-13.36,27.28-24.1,38.42-40.12l.5,1.54Z"/>
            <g>
              <path class="cls-28" d="M347.36,221.65c-15.63,13.95-22.32,12.06-25.45,14.66-10.72,8.92,16.18,9.4,27.44,3.09-.37,1.37,1.38,1.74,1,3.09-.62,2.16-.97,1.46-1,1.54l-.5-1.54c-11.14,16.01-23.21,26.76-38.42,40.12-7.43.16-19.89,8-30.44,10.8-86.19,22.93-140.07-22.78-197.09-63.65-.3-3.33,15.44,5.84,17.96,2.7,29.62,8.54,63.32,12.47,94.8,13.12,10.14.21,19.87-.45,29.94-.77,36.84-1.18,91.24-5.34,120.75-23.15h1Z"/>
              <path class="cls-59" d="M375.31,216.25c1.14,9.63-20.58,8.2-22.95,11.19-.28.35-1.59,6.71-2,8.1-.36,1.24-.66,2.59-1,3.86-11.27,6.31-38.17,5.83-27.44-3.09,3.13-2.6,9.82-.71,25.45-14.66,4.54-4.05,1.51-.53,4.99,0,6.16.94,9.92.69,15.97-.77,14.19-10.71-21.97-3.8-13.97-8.49,7.89-1.65,15.9-1.72,20.96,3.86Z"/>
            </g>
          </g>
          <g>
            <path class="cls-6" d="M81.98,217.02c1-.01,2,0,2.99,0-.05,3.28-24.79,1.79-23.02,5.01.47.85-.41,3.6,0,5.01-8.74.72,2.17-4.55,11.05-13.89,1.53.87,3.78,4.22,5.49,4.63,3.17.76,3.31-.77,3.49-.77Z"/>
            <path class="cls-8" d="M81.98,214.7v2.31c-.18,0-.32,1.53-3.49.77-1.71-.41-3.96-3.76-5.49-4.63.77-.86,3.77-2.04,4.99-2.31-.36,1.35,2.81,3.72,3.99,3.86Z"/>
            <path class="cls-10" d="M60.96,215.48v.77c-2.18-.42,25.13.77,24.02.77-1,0-2-.01-2.99,0v-2.31c.69.08-22.26-2.64-21.03.77Z"/>
          </g>
          <g>
            <path class="cls-6" d="M350.36,235.53c.4-1.39,1.72-7.75,2-8.1,2.37-2.99,24.1-1.55,22.95-11.19,12.07,13.32-14.46,14.81-24.95,19.29Z"/>
            <path class="cls-13" d="M368.32,220.88c-6.04,1.46-9.8,1.71-15.97.77,2.09-5.99,19.09-4.52,15.97-.77Z"/>
          </g>
          <path class="cls-32" d="M246.57,173.81c-5.21-.45-10.83-1.27-15.97-1.54,7.82-13.57,11.02-13.06,15.97,1.54Z"/>
          <path class="cls-38" d="M174.72,173.04c-2.74.1-6,.55-7.98,0,.52-.19.51-6.04,7.98,0Z"/>
          <g>
            <path class="cls-6" d="M330.4,190.02c13.01,6.56,22.37,9,23.95,22.37-7.99,4.69,28.16-2.22,13.97,8.49,3.12-3.75-13.87-5.22-15.97.77-3.48-.53-.45-4.05-4.99,0h-1c-11.35-13.44-39.55-18.93-58.88-22.37-.35-.06-1.37-.69-6.99-1.54-9.47-1.45-19.32-2.36-28.94-3.09-6.68-.5-13.22-1.3-19.96-1.54-41.53-1.52-119.31,2.83-153.68,22.37l-1-2.31c26.26-12.81,43.72-17.68,74.85-21.6,54.61-6.87,156.61-6.63,197.09,27,8.39-15.69-15.9-24.7-31.44-29.32q-1-1.54-2-3.09c5.01,1.17,10.03,2.53,14.97,3.86Z"/>
            <path class="cls-43" d="M230.61,172.27c5.13.27,10.76,1.09,15.97,1.54,1.51.13,2.78.55,4.99.77,29.42,2.93,37.27,5.37,63.87,11.57q1,1.54,2,3.09c-47.74-14.18-114.52-15.05-164.66-10.03-23.62,2.37-74.22,10.28-86.82,27.77-.11.16-1.56-.91-2.99,2.7-1.37,3.43,3.71,6.44-2,5.79-1.23-3.41,21.72-.69,21.03-.77-1.18-.14-4.35-2.51-3.99-3.86,6.19-1.37-18.79-.36-17.53-.77,1.03-.34.21-2,.5-2.31,13.28-14.31,27.54-20.86,49.9-26.23,1.79-.43,5.55-1.05,7.98-1.54,1.71-.35,5.61.1,6.99-1.54,8.95-.78,27.56-2.22,34.93-3.86,2.39-.53,3.63-.7,5.99-1.54,1.99.55,5.25.1,7.98,0,5.03-.19,9.95-.65,14.97-.77,8.61-.2,18.5-.96,26.94-.77.34,0,6.04,1.53,6.49,1.54,6.19.23,7.11-.79,7.48-.77Z"/>
            <path class="cls-17" d="M152.77,179.21c.07,4.43,2.81,8.39-1,12.34-31.12,3.92-48.59,8.79-74.85,21.6-8.42,4.11-13.54,8.7-10.98-6.17,12.6-17.49,63.2-25.41,86.82-27.77Z"/>
            <path class="cls-56" d="M317.43,189.24c15.54,4.62,39.83,13.63,31.44,29.32-40.48-33.63-142.48-33.88-197.09-27,3.81-3.95,1.07-7.91,1-12.34,50.14-5.02,116.92-4.15,164.66,10.03Z"/>
            <g>
              <path class="cls-5" d="M231.6,193.1c-13.81,2.59-36.32-1.93-29.94,3.47-4.23,2.21-4.22,6.19.5,8.1,4.75-2.04,30.66.74,31.93,0,.93-.54-.86-8.16,17.46-10.03,9.62.72,19.47,1.64,28.94,3.09-4.33,2.73-19.83,11.2-24.45,9.26,4.45-16.91-24.04-9.26-18.46-1.16,8.72,6.74,17.95,3.03,23.45,3.47.37.03,4.7,2.3,4.99,2.31,11.82.39,37.22-.81,21.46-12.34,19.33,3.45,47.52,8.93,58.88,22.37-29.51,17.81-83.91,21.96-120.75,23.15v-.77c3.11-3.56-2.84-2.47-3.99-4.24-.69-1.07,1.04-1.1,1-1.16,23.5-1.48,23.15,3.65,24.45,3.86,12.77,2.05,24.49-13.26,34.93-10.03,2.34.72.29,9.93,18.46,1.93.14-1.1-24.94-13.3-8.48-14.27,18.03,22.08,27.35,5.85,31.93,5.4,3.84-.38,7.91,9.92-1.5-15.82-6.53-3.43-4.67-2-4.99,3.47-1.6-.15-1.87-1.5-2-1.54-11.62-4.4-49.88,7.15-14.97,3.09v2.31c-11.15-2.12-13.24,3.02-16.47,3.86-11.34,2.95-8.55-2.71-15.97-5.4-1.37-.5-14.94-1.92-16.96-2.31-.5-.1.33-3.58-4.99-2.31-1.07.25.32,2.17-1.5,2.31-3.64-4.92-18.71-5.94-25.45-5.4-23.17,1.84-5.47,3.11,17.46,3.86-20.97.56-22.3.85,1,14.27,1.53,2.83-12.69,6.78-13.47,6.56-5.53-1.57,8.63-6.58-21.46-4.63-.83-.81-2.77-1.78-3.99-2.31-2.3-1.02-3.56-1.23-5.99-1.93,1.5-1.7,3.36-.73,5.99-1.93,1.71,10.66,19.64-5.71,15.47-7.72-8.56-1.64-14.14,3.4-20.96,5.4-5.74,1.68-12.21-.54-11.48,2.31-6.65-.05-5.05,2.82-7.98,6.17-8.98-2.71-31.62,4.31-26.94,10.8-.59-.08-4.33,2.21-11.98-.39-1.13-1.84,8.63-1.89,4.49-7.33-6.91,3.41-12.22,1.25-16.47,1.54-1.4-5.02-1.39-7.5-8.98-7.72,17.23-12.45,18.83,10.64,37.92,2.7,1.4-10.5,4.48-3.84,12.47-5.79,2.89-.7,2.24-1.94,2.49-2.31.17-.25-.07-1.4,0-2.31.07-.85-.33-1.6,1-1.54,5.22,2.37,21.16,4.57,22.95-2.31,1.44,1.79.78,2.72,1.5,3.09,13.04-8.23,4.09-4.84.5-9.64-.67-.89-1.95-9.23-5.49-10.42-1.86-.63-38.06,4.77-39.92,5.4-7.15,2.44-5.06,6.41-5.99,6.94-.53.31-9.42-4.44-11.98-4.63-6.4-.47-45.09,11.52-45.91,20.83-5.42-2.08-12.01-4.63-9.48-6.17.66-.76,3.24-2.66,3.99-3.09,34.38-19.54,112.15-23.89,153.68-22.37Z"/>
              <path class="cls-31" d="M280.5,197.73c5.61.86,6.63,1.48,6.99,1.54,15.76,11.53-9.63,12.73-21.46,12.34-.29,0-4.62-2.29-4.99-2.31-5.5-.44-14.74,3.27-23.45-3.47-5.57-8.1,22.91-15.75,18.46,1.16,4.62,1.94,20.12-6.53,24.45-9.26Z"/>
              <path class="cls-49" d="M251.56,194.64c-18.33,1.87-16.53,9.49-17.46,10.03-1.28.74-27.19-2.04-31.93,0-4.72-1.91-4.73-5.89-.5-8.1-6.38-5.4,16.13-.88,29.94-3.47,6.74.25,13.28,1.04,19.96,1.54Z"/>
              <path class="cls-21" d="M225.62,244.02v.77c-10.07.32-19.8.98-29.94.77-.91-3.86,4.74-6,7.98-8.49,4.84,5.82,13.39,7.4,21.95,6.94Z"/>
              <path class="cls-49" d="M173.72,227.82c-1.33,1.52-1.54,3.95-2,4.63-2.36,3.48-11.48,3.98-2,9.26-2.71.02-11.46.09-12.47,0-.59-.05-.52-1.82-10.48-3.09-4.67-6.49,17.96-13.51,26.94-10.8Z"/>
              <path class="cls-31" d="M190.69,213.16c-1.8,6.89-17.73,4.68-22.95,2.31-3.11-1.41-9.51-6.51-3.49-8.49,23.44,6.61,17.34-5.08,26.45,6.17Z"/>
              <path class="cls-40" d="M222.62,238.62c.05.06-1.69.09-1,1.16,1.15,1.77,7.1.68,3.99,4.24-8.57.45-17.12-1.12-21.95-6.94q-.5-1.35-1-2.7c5.76-6.66,16.96.39,19.96,4.24Z"/>
              <path class="cls-40" d="M198.67,221.65c-2.62,1.2-4.49.23-5.99,1.93,2.43.7,3.69.91,5.99,1.93v1.54c-10.14.77-.58,3.3-8.48,5.4-18.21,4.85-18.18-3.77,2.49-10.8,7.62-2.59,16.14-4.64,5.99,0Z"/>
              <path class="cls-49" d="M198.67,221.65c10.15-4.64,1.63-2.59-5.99,0h-10.98c-.73-2.85,5.74-.63,11.48-2.31,6.82-2,12.4-7.04,20.96-5.4,4.17,2.01-13.75,18.38-15.47,7.72Z"/>
              <path class="cls-49" d="M113.85,224.73c7.59.21,7.58,2.7,8.98,7.72-1.17.08-3.68,4.98-21.95-1.93,1.57-3.7,8.35-5.92,12.97-5.79Z"/>
              <path class="cls-5" d="M317.43,213.16c-.09,1.56,3.33,3.83-2.49,7.72-10.92.02-13.71-3.71-14.47-3.86v-2.31c5.22-.61,10.17-1.31,14.97-3.09.13.05.4,1.39,2,1.54Z"/>
              <path class="cls-5" d="M169.73,241.71c-9.49-5.28-.36-5.77,2-9.26,10.96,6.99,11.21,9.17-2,9.26Z"/>
              <path class="cls-47" d="M244.58,213.16c-.41.03-4.01-1.41-7.98-1.54-22.93-.75-40.63-2.02-17.46-3.86,6.74-.53,21.8.48,25.45,5.4Z"/>
              <g>
                <path class="cls-49" d="M190.69,213.16c-9.1-11.26-3,.44-26.45-6.17-6.02,1.98.38,7.08,3.49,8.49-1.33-.06-.93.7-1,1.54-17.66-11.67-15.67-4.05-17.46-3.86-3.39.36-12.16.13-16.47,0-1.9-.06-6.8-1.93-1,.77,8.83,4.12,25.21,9.19,34.93,5.4-.26.38.4,1.61-2.49,2.31-8,1.95-11.08-4.72-12.47,5.79-19.1,7.94-20.7-15.15-37.92-2.7-4.62-.13-11.4,2.09-12.97,5.79,18.28,6.91,20.78,2.01,21.95,1.93,4.25-.29,9.55,1.87,16.47-1.54,4.14,5.44-5.62,5.49-4.49,7.33,7.64,2.6,11.38.31,11.98.39,9.96,1.26,9.89,3.03,10.48,3.09,1.01.09,9.76.02,12.47,0,13.21-.08,12.96-2.27,2-9.26.46-.68.67-3.11,2-4.63,2.93-3.35,1.33-6.22,7.98-6.17h10.98c-20.67,7.03-20.7,15.65-2.49,10.8,7.9-2.11-1.66-4.63,8.48-5.4,1.02-.08-.92,1.09,3.99.77,30.08-1.95,15.93,3.06,21.46,4.63.79.22,15-3.73,13.47-6.56-23.29-13.42-21.96-13.72-1-14.27,3.97.13,7.57,1.57,7.98,1.54,1.82-.14.42-2.06,1.5-2.31,5.32-1.26,4.49,2.22,4.99,2.31,2.02.4,15.59,1.82,16.96,2.31,7.41,2.69,4.62,8.35,15.97,5.4,3.23-.84,5.32-5.98,16.47-3.86.77.15,3.55,3.88,14.47,3.86,5.83-3.89,2.4-6.16,2.49-7.72.32-5.47-1.54-6.9,4.99-3.47,9.41,25.74,5.34,15.44,1.5,15.82-4.58.45-13.9,16.68-31.93-5.4-16.46.98,8.62,13.18,8.48,14.27-18.17,8-16.12-1.21-18.46-1.93-10.44-3.23-22.16,12.08-34.93,10.03-1.3-.21-.95-5.34-24.45-3.86-3-3.86-14.2-10.91-19.96-4.24q.5,1.35,1,2.7c-3.24,2.48-8.89,4.63-7.98,8.49-31.48-.65-65.18-4.57-94.8-13.12-11.85-3.42-36.61-11.19-26.94-13.89-2.53,1.54,4.06,4.1,9.48,6.17.81-9.31,39.5-21.3,45.91-20.83,2.56.19,11.44,4.94,11.98,4.63.92-.54-1.17-4.51,5.99-6.94,1.86-.63,38.05-6.03,39.92-5.4,3.54,1.19,4.82,9.52,5.49,10.42,3.59,4.8,12.54,1.41-.5,9.64-.71-.36-.05-1.3-1.5-3.09Z"/>
                <g>
                  <path class="cls-31" d="M265.53,226.28c-3.94.45-5.27-.67-5.99-.77-4.63-.68-12.06-3.96-18.96-4.24,3.5-12.58,41.47-3.42,24.95,5.01Z"/>
                  <path class="cls-5" d="M259.55,225.51c.72.1,2.04,1.22,5.99.77,5.48,4.95-13.93,12.89-18.96,4.24,5.73-11.01,2.7-3.84,12.97-5.01Z"/>
                  <path class="cls-64" d="M202.66,227.82c-4.91.32-2.97-.85-3.99-.77v-1.54c1.22.54,3.16,1.5,3.99,2.31Z"/>
                  <g>
                    <path class="cls-40" d="M166.74,217.02c-.07.91.17,2.07,0,2.31-9.72,3.79-26.09-1.29-34.93-5.4l1-.77c4.3.13,13.08.36,16.47,0,1.79-.19-.2-7.81,17.46,3.86Z"/>
                    <path class="cls-45" d="M132.81,213.16l-1,.77c-5.8-2.7-.9-.83,1-.77Z"/>
                  </g>
                </g>
              </g>
              <path class="cls-30" d="M315.43,211.62c-4.8,1.77-9.75,2.48-14.97,3.09-34.91,4.06,3.35-7.49,14.97-3.09Z"/>
            </g>
          </g>
        </g>
      </g>
    </g>
    <circle class="cls-46" cx="35" cy="437.97" r="35"/>
  </g>
</svg>